<?xml version="1.0" encoding="utf-8"?>
<!-- Generator: Adobe Illustrator 26.0.1, SVG Export Plug-In . SVG Version: 6.00 Build 0)  -->
<svg version="1.1" id="Layer_1" xmlns="http://www.w3.org/2000/svg" xmlns:xlink="http://www.w3.org/1999/xlink" x="0px" y="0px"
	 viewBox="0 0 1075.9 438.9" style="enable-background:new 0 0 1075.9 438.9;" xml:space="preserve">
<style type="text/css">
	.st0{fill:#051C1A;}
	.st1{opacity:0.5;}
	.st2{fill:#EE7862;}
	.st3{fill:#C9C9C7;}
	.st4{opacity:0.5;fill:#EE7862;enable-background:new    ;}
	.st5{opacity:0.5;fill:#051C1A;enable-background:new    ;}
	.st6{opacity:0.5;fill:#C9C9C7;enable-background:new    ;}
	.st7{opacity:0.25;fill:#EE7862;enable-background:new    ;}
	.st8{opacity:0.25;fill:#051C1A;enable-background:new    ;}
	.st9{opacity:0.25;fill:#C9C9C7;enable-background:new    ;}
</style>
<g>
	<path class="st0" d="M0,279l0.5-2.2c0,0,0.5,0.2,1.2,0.2c1.5,0,2.4-1,2.4-2.8v-11.8h2.7v11.9c0,3.2-1.8,5.1-4.8,5.1
		C0.6,279.3,0,279,0,279z"/>
	<path class="st0" d="M15.8,262.3h2.5l5.3,16.8h-2.7l-1.2-4.1h-5.3l-1.2,4.1h-2.6L15.8,262.3z M19,273l-2.1-7.1l-2.1,7.1H19z"/>
	<path class="st0" d="M29.9,271.5v7.6h-2.6v-16.8h2.6v6.8h5.4v-6.8h2.6v16.8h-2.6v-7.6H29.9z"/>
	<path class="st0" d="M43.3,273.9v-11.6h2.6v11.6c0,2,1,3.1,2.7,3.1s2.7-1.1,2.7-3.1v-11.6h2.5v11.5c0,3.4-2.2,5.5-5.3,5.5
		C45.4,279.3,43.3,277.3,43.3,273.9z"/>
	<path class="st0" d="M70.5,271.3c-2.2-1.3-3.8-2.9-3.8-5c0-2.6,2-4.3,4.6-4.3c4,0,5,3.5,5,3.5l-2.1,0.8c0,0-0.7-2.2-2.7-2.2
		c-1.3,0-2.1,0.8-2.1,1.9c0,1.4,1.1,2.2,2.9,3.4c2.2,1.3,3.9,2.9,3.9,5.2c0,2.9-2.1,4.6-4.9,4.6c-4.2,0-5.2-4-5.2-4l2.1-0.8
		c0,0,0.9,2.7,3.1,2.7c1.4,0,2.4-0.9,2.4-2.2C73.6,273.4,72.5,272.5,70.5,271.3z"/>
	<path class="st0" d="M80.9,273.9v-11.6h2.6v11.6c0,2,1,3.1,2.7,3.1c1.7,0,2.7-1.1,2.7-3.1v-11.6h2.6v11.5c0,3.4-2.2,5.5-5.3,5.5
		C83,279.3,80.9,277.3,80.9,273.9z"/>
	<path class="st0" d="M100.4,271.3c-2.2-1.3-3.8-2.9-3.8-5c0-2.6,2-4.3,4.6-4.3c4,0,5,3.5,5,3.5l-2.1,0.8c0,0-0.7-2.2-2.7-2.2
		c-1.3,0-2.1,0.8-2.1,1.9c0,1.4,1,2.2,2.9,3.4c2.2,1.3,3.9,2.9,3.9,5.2c0,2.9-2.1,4.6-4.9,4.6c-4.2,0-5.2-4-5.2-4l2.1-0.8
		c0,0,0.9,2.7,3.1,2.7c1.4,0,2.4-0.9,2.4-2.2C103.4,273.4,102.3,272.5,100.4,271.3z"/>
	<path class="st0" d="M113.5,271.5v7.6h-2.6v-16.8h2.6v6.8h5.4v-6.8h2.6v16.8h-2.6v-7.6H113.5z"/>
	<path class="st0" d="M129.8,262.3v16.8h-2.7v-16.8H129.8z"/>
	<path class="st0" d="M143.1,262.3h4.7c3.5,0,5.7,2.3,5.7,5.3c0,3.1-2.3,5.4-5.8,5.4h-2v6.1h-2.6V262.3L143.1,262.3z M147.7,270.8
		c2,0,3.3-1.3,3.3-3.1s-1.3-3.2-3.3-3.2h-1.9v6.4H147.7z"/>
	<path class="st0" d="M160.9,262.3v16.8h-2.7v-16.8H160.9z"/>
	<path class="st0" d="M166.5,262.3h2.6l5.9,11.9v-11.9h2.4v16.8H175l-6.1-12.1v12.1h-2.4V262.3z"/>
	<path class="st0" d="M182.8,262.3h2.6v7.8l5-7.8h3l-5.5,8l5.7,8.8h-3l-5.2-8.2v8.2h-2.6V262.3L182.8,262.3z"/>
</g>
<g>
	<path class="st0" d="M413,273.9v-6.4c0-3.4,2.2-5.4,5.3-5.4c3.1,0,5.2,2,5.2,5.3v0.7H421v-0.6c0-2-1-3.1-2.7-3.1
		c-1.7,0-2.7,1.1-2.7,3.1v6.4c0,2,1,3.1,2.7,3.1c1.7,0,2.7-1.1,2.7-3.1v-0.8h2.5v0.8c0,3.4-2.1,5.5-5.2,5.5
		C415.2,279.3,413,277.3,413,273.9z"/>
	<path class="st0" d="M428.5,273.8v-6.2c0-3.4,2.2-5.5,5.5-5.5s5.3,2,5.3,5.5v6.2c0,3.5-2.2,5.5-5.4,5.5
		C430.7,279.2,428.5,277.2,428.5,273.8z M436.8,273.8v-6.2c0-2-1.1-3.2-2.9-3.2c-1.7,0-2.8,1.2-2.8,3.2v6.2c0,2,1,3.2,2.8,3.2
		C435.7,277,436.8,275.8,436.8,273.8z"/>
	<path class="st0" d="M444.3,273.8v-6.2c0-3.4,2.2-5.5,5.5-5.5s5.3,2,5.3,5.5v6.2c0,3.5-2.2,5.5-5.4,5.5S444.3,277.2,444.3,273.8z
		 M452.6,273.8v-6.2c0-2-1-3.2-2.8-3.2c-1.7,0-2.8,1.2-2.8,3.2v6.2c0,2,1.1,3.2,2.8,3.2C451.5,277,452.6,275.8,452.6,273.8z"/>
	<path class="st0" d="M460.4,262.3h2.6v14.5h5.8v2.3h-8.4V262.3z"/>
	<path class="st0" d="M480.7,273.8v-6.2c0-3.4,2.2-5.5,5.5-5.5s5.3,2,5.3,5.5v0.3h-2.6v-0.3c0-2-1.1-3.2-2.8-3.2
		c-1.7,0-2.8,1.2-2.8,3.2v6.1c0,2.1,1,3.3,2.8,3.3s2.9-1.2,2.9-3.3v-1.6h-2.9v-1.8h5.2v3.5c0,3.5-2.2,5.5-5.4,5.5
		S480.7,277.2,480.7,273.8z"/>
	<path class="st0" d="M496.7,262.3h4.9c3.3,0,5.6,2.2,5.6,5.2c0,2-1.1,3.7-2.9,4.5l3.3,7.1h-2.9l-2.8-6.5h-2.6v6.5h-2.6L496.7,262.3
		L496.7,262.3z M501.3,270.6c2,0,3.2-1.3,3.2-3.1c0-1.7-1.3-3.1-3.2-3.1h-2.1v6.1H501.3z"/>
	<path class="st0" d="M512,262.3h8.8v2.2h-6.2v4.7h5.2v2.1h-5.2v5.3h6.3v2.2H512V262.3z"/>
	<path class="st0" d="M528.8,272.6l-5-10.3h2.9l3.5,7.7l3.4-7.7h2.8l-5,10.3v6.5h-2.6L528.8,272.6L528.8,272.6z"/>
</g>
<g>
	<path class="st0" d="M827.6,262.3h5.6c2.8,0,4.7,1.8,4.7,4.2c0,1.7-0.9,3.1-2.5,3.8c1.7,0.7,2.8,2.2,2.8,4.1c0,2.6-2.1,4.7-5.2,4.7
		h-5.6L827.6,262.3L827.6,262.3z M832.6,269.4c1.6,0,2.7-1,2.7-2.5s-1-2.5-2.7-2.5h-2.5v5.1H832.6z M832.7,277c1.8,0,3-1.2,3-2.8
		c0-1.7-1.2-2.9-3-2.9h-2.6v5.7L832.7,277L832.7,277z"/>
	<path class="st0" d="M843.1,262.3h2.6v14.5h5.8v2.3h-8.4V262.3z"/>
	<path class="st0" d="M859.5,262.3h2.5l5.2,16.8h-2.7l-1.2-4.1H858l-1.2,4.1h-2.6L859.5,262.3z M862.7,273l-2.1-7.1l-2.1,7.1H862.7z
		"/>
	<path class="st0" d="M870.8,273.9v-6.4c0-3.4,2.2-5.4,5.3-5.4c3.1,0,5.2,2,5.2,5.3v0.7h-2.5v-0.6c0-2-1-3.1-2.7-3.1
		c-1.7,0-2.7,1.1-2.7,3.1v6.4c0,2,1,3.1,2.7,3.1c1.7,0,2.7-1.1,2.7-3.1v-0.8h2.5v0.8c0,3.4-2.1,5.5-5.2,5.5
		C872.9,279.4,870.8,277.3,870.8,273.9z"/>
	<path class="st0" d="M886.5,262.3h2.6v7.8l5-7.8h3l-5.5,8l5.7,8.8h-3l-5.2-8.2v8.2h-2.6V262.3L886.5,262.3z"/>
</g>
<g class="st1">
	<path class="st0" d="M2.5,338.3H1.1v-11.4h3.7c0.5,0,1,0.1,1.4,0.2s0.9,0.4,1.2,0.7s0.6,0.6,0.8,1.1s0.3,0.9,0.3,1.5
		s-0.1,1-0.3,1.4s-0.5,0.8-0.8,1.1s-0.7,0.5-1.2,0.7s-0.9,0.2-1.4,0.2H2.5V338.3z M4.7,332.5c0.3,0,0.6-0.1,0.9-0.2s0.5-0.2,0.7-0.4
		s0.4-0.4,0.5-0.7s0.2-0.6,0.2-0.9s-0.1-0.7-0.2-0.9s-0.3-0.5-0.5-0.7s-0.5-0.3-0.7-0.4s-0.6-0.2-0.9-0.2H2.5v4.4L4.7,332.5
		L4.7,332.5z"/>
	<path class="st0" d="M12.2,335.3l-0.9,2.9H9.8l3.7-11.4h1.2l3.6,11.4h-1.4l-0.9-2.9H12.2z M15.6,334.1l-1.5-4.9l-1.5,4.9H15.6z"/>
	<path class="st0" d="M25.8,338.3l-4.4-8.5v8.5h-1.5v-11.4h1.5l4.4,8.5v-8.5h1.5v11.4H25.8z"/>
	<path class="st0" d="M33.9,328.2v10.1h-1.4v-10.1H29V327h8.4v1.2H33.9z"/>
	<path class="st0" d="M46.6,334.5c-0.1,0.4-0.2,0.8-0.3,1.2s-0.3,0.7-0.5,1.1s-0.5,0.6-0.8,0.9s-0.6,0.4-1,0.6s-0.8,0.2-1.3,0.2
		s-0.9-0.1-1.3-0.2s-0.7-0.3-1-0.6s-0.5-0.5-0.8-0.9s-0.4-0.7-0.5-1.1s-0.2-0.8-0.3-1.2s-0.1-0.8-0.1-1.2V332c0-0.4,0-0.8,0.1-1.2
		s0.2-0.8,0.3-1.2c0.1-0.4,0.3-0.7,0.5-1.1s0.5-0.6,0.8-0.9c0.3-0.2,0.6-0.4,1-0.6s0.8-0.2,1.3-0.2s0.9,0.1,1.3,0.2s0.7,0.3,1,0.6
		s0.5,0.5,0.8,0.9s0.4,0.7,0.5,1.1s0.2,0.8,0.3,1.2s0.1,0.8,0.1,1.2v1.3C46.7,333.7,46.7,334.1,46.6,334.5z M45.2,331.1
		c0-0.3-0.1-0.6-0.2-0.9c-0.1-0.3-0.2-0.6-0.3-0.8s-0.3-0.5-0.5-0.7s-0.4-0.4-0.7-0.5s-0.6-0.2-0.9-0.2c-0.3,0-0.6,0.1-0.9,0.2
		s-0.5,0.3-0.7,0.5s-0.3,0.4-0.5,0.7s-0.2,0.5-0.3,0.8s-0.1,0.6-0.2,0.9s-0.1,0.6-0.1,0.8v1.3c0,0.3,0,0.5,0.1,0.8s0.1,0.6,0.2,0.9
		c0.1,0.3,0.2,0.6,0.3,0.8s0.3,0.5,0.5,0.7s0.4,0.4,0.7,0.5s0.6,0.2,0.9,0.2s0.6-0.1,0.9-0.2s0.5-0.3,0.7-0.5s0.3-0.4,0.5-0.7
		s0.2-0.5,0.3-0.8s0.1-0.6,0.2-0.9s0-0.6,0.1-0.9V332C45.3,331.7,45.3,331.4,45.2,331.1z"/>
	<path class="st0" d="M54.6,338.3l-4.4-8.5v8.5h-1.5v-11.4h1.5l4.4,8.5v-8.5h1.5v11.4H54.6z"/>
	<path class="st0" d="M60,333v4h5.5v1.2h-7v-11.4h6.9v1.2H60v3.7h4.8v1.2L60,333L60,333z"/>
	<path class="st0" d="M70.9,336.6c0.2-0.2,0.5-0.3,0.9-0.3s0.7,0.1,0.9,0.3s0.3,0.5,0.3,0.8s-0.1,0.6-0.3,0.8s-0.5,0.3-0.9,0.3
		s-0.7-0.1-0.8-0.3s-0.3-0.5-0.3-0.8C70.6,337,70.7,336.8,70.9,336.6z"/>
	<path class="st0" d="M7.9,355.5c-0.2,0.4-0.5,0.8-0.8,1.1c-0.3,0.3-0.7,0.6-1.2,0.7s-0.9,0.3-1.5,0.3c-0.5,0-0.9-0.1-1.3-0.2
		s-0.7-0.3-1-0.6c-0.3-0.2-0.6-0.5-0.8-0.8s-0.4-0.7-0.5-1c-0.1-0.4-0.3-0.8-0.3-1.2s-0.1-0.8-0.1-1.2V351c0-0.4,0-0.8,0.1-1.2
		s0.2-0.8,0.3-1.2c0.1-0.4,0.3-0.7,0.5-1s0.5-0.6,0.8-0.8c0.3-0.2,0.6-0.4,1-0.6S4,346,4.4,346c0.6,0,1.1,0.1,1.5,0.3
		s0.8,0.4,1.2,0.7c0.3,0.3,0.6,0.7,0.8,1.2c0.2,0.5,0.3,0.9,0.4,1.5H6.8c0-0.3-0.1-0.7-0.2-1s-0.3-0.6-0.5-0.8s-0.4-0.4-0.7-0.5
		s-0.6-0.2-1-0.2c-0.3,0-0.6,0.1-0.9,0.2s-0.5,0.3-0.7,0.5s-0.4,0.4-0.5,0.7s-0.2,0.5-0.3,0.8s-0.1,0.6-0.2,0.9s-0.1,0.6-0.1,0.9
		v1.6c0,0.3,0,0.6,0.1,0.9s0.1,0.6,0.2,0.9c0.1,0.3,0.2,0.6,0.3,0.8s0.3,0.5,0.5,0.7s0.4,0.4,0.7,0.5s0.6,0.2,0.9,0.2
		c0.4,0,0.7-0.1,1-0.2s0.5-0.3,0.7-0.5s0.3-0.5,0.5-0.8s0.2-0.6,0.2-1h1.4C8.2,354.6,8.1,355.1,7.9,355.5z"/>
	<path class="st0" d="M14,351.8l2-5.7h1.8v11.4h-1.4V353l0.1-4.8l-2.1,6.1h-0.8l-1.9-6l0.1,4.6v4.5h-1.4V346h1.8L14,351.8z"/>
	<path class="st0" d="M26.1,346.1h1.6l-3.5,7.1v4.2h-1.3v-4.2l-3.5-7.1H21l2.6,5.7L26.1,346.1z"/>
	<path class="st0" d="M31.2,353.6v3.8h-1.5V346h1.5v5.6l1.1-1.4l3.3-4.2h1.8l-4,5l4.2,6.4h-1.8l-3.4-5.3L31.2,353.6z"/>
	<path class="st0" d="M42.1,355.8c0.2-0.2,0.5-0.3,0.9-0.3s0.7,0.1,0.9,0.3s0.3,0.5,0.3,0.8s-0.1,0.6-0.3,0.8s-0.5,0.3-0.9,0.3
		s-0.7-0.1-0.8-0.3s-0.3-0.5-0.3-0.8C41.8,356.2,41.9,356,42.1,355.8z"/>
	<path class="st0" d="M2.4,372.1v4.6H1v-11.4h3.3c0.5,0,1,0.1,1.5,0.2s0.9,0.4,1.2,0.6c0.3,0.3,0.6,0.6,0.8,1.1
		c0.2,0.5,0.3,0.9,0.3,1.5c0,0.4-0.1,0.7-0.2,1s-0.3,0.6-0.4,0.8s-0.4,0.5-0.7,0.7s-0.5,0.4-0.9,0.5l2.4,4.9v0.1H6.9l-2.2-4.6
		L2.4,372.1L2.4,372.1z M4.3,370.9c0.3,0,0.6-0.1,0.9-0.2s0.5-0.2,0.8-0.4c0.2-0.2,0.4-0.4,0.5-0.7s0.2-0.6,0.2-0.9
		c0-0.4-0.1-0.7-0.2-1S6.2,367.2,6,367s-0.5-0.3-0.8-0.4s-0.6-0.1-1-0.1H2.4v4.4L4.3,370.9L4.3,370.9z"/>
	<path class="st0" d="M17.3,375.8c-0.2,0.2-0.4,0.3-0.6,0.4c-0.4,0.2-0.8,0.4-1.2,0.5s-0.9,0.2-1.3,0.2c-0.5,0-0.9-0.1-1.3-0.2
		s-0.7-0.3-1.1-0.6c-0.3-0.2-0.6-0.5-0.8-0.9s-0.4-0.7-0.6-1.1c-0.2-0.4-0.3-0.8-0.4-1.2s-0.1-0.8-0.1-1.3v-1.3c0-0.4,0-0.8,0.1-1.3
		s0.2-0.8,0.3-1.2s0.3-0.7,0.5-1.1s0.5-0.6,0.8-0.9c0.3-0.2,0.6-0.4,1-0.6s0.8-0.2,1.3-0.2s1,0.1,1.5,0.2s0.8,0.4,1.2,0.7
		c0.3,0.3,0.6,0.7,0.8,1.1s0.3,0.9,0.4,1.4h-1.4c-0.1-0.3-0.1-0.6-0.3-0.9s-0.3-0.5-0.5-0.7s-0.4-0.4-0.7-0.5s-0.6-0.2-0.9-0.2
		c-0.3,0-0.6,0.1-0.9,0.2s-0.5,0.3-0.7,0.5s-0.4,0.4-0.5,0.7s-0.2,0.5-0.3,0.8s-0.1,0.6-0.2,0.9s-0.1,0.6-0.1,0.9v1.3
		c0,0.3,0,0.6,0.1,0.9s0.1,0.6,0.2,0.9s0.2,0.6,0.4,0.8s0.3,0.5,0.5,0.7s0.4,0.4,0.7,0.5s0.6,0.2,0.9,0.2c0.2,0,0.4,0,0.6,0
		s0.4-0.1,0.6-0.1s0.4-0.1,0.6-0.3s0.3-0.2,0.4-0.4V372H14v-1h3.7v4.2C17.7,375.4,17.5,375.6,17.3,375.8z"/>
	<path class="st0" d="M20.1,365.3h3.4c0.5,0,0.9,0.1,1.4,0.2s0.8,0.3,1.2,0.5s0.6,0.6,0.8,0.9s0.3,0.8,0.3,1.4
		c0,0.3-0.1,0.6-0.1,0.8s-0.2,0.5-0.4,0.7c-0.2,0.2-0.3,0.4-0.5,0.5s-0.4,0.3-0.7,0.4l0,0c0.3,0.1,0.6,0.2,0.8,0.4s0.5,0.4,0.7,0.6
		s0.3,0.5,0.4,0.8s0.2,0.6,0.2,0.9c0,0.5-0.1,1-0.3,1.4s-0.5,0.7-0.8,1s-0.8,0.5-1.2,0.6s-0.9,0.2-1.4,0.2h-3.6v-11.3H20.1z
		 M23.6,370.2c0.3,0,0.5,0,0.8-0.1s0.5-0.2,0.7-0.4c0.2-0.2,0.4-0.3,0.5-0.6s0.2-0.5,0.2-0.8s-0.1-0.6-0.2-0.8s-0.3-0.4-0.5-0.6
		c-0.2-0.1-0.4-0.2-0.7-0.3s-0.5-0.1-0.8-0.1h-2v3.6L23.6,370.2L23.6,370.2z M21.6,375.5h2.2c0.3,0,0.6-0.1,0.9-0.2s0.5-0.2,0.7-0.4
		s0.4-0.4,0.5-0.6s0.2-0.5,0.2-0.9c0-0.3,0-0.6-0.2-0.9s-0.3-0.5-0.5-0.6c-0.2-0.2-0.4-0.3-0.7-0.4s-0.6-0.1-0.9-0.2h-2.3
		L21.6,375.5L21.6,375.5z"/>
	<path class="st0" d="M32.5,375c0.2-0.2,0.5-0.3,0.9-0.3s0.7,0.1,0.9,0.3s0.3,0.5,0.3,0.8s-0.1,0.6-0.3,0.8s-0.5,0.3-0.9,0.3
		s-0.7-0.1-0.8-0.3s-0.3-0.5-0.3-0.8C32.2,375.4,32.3,375.2,32.5,375z"/>
	<path class="st0" d="M6.7,395.9v-5.3H2v5.3H0.7v-11.4H2v4.9h4.7v-4.9h1.4v11.4H6.7z"/>
	<path class="st0" d="M12,390.6v4h5.5v1.2h-7v-11.4h6.9v1.2H12v3.7h4.8v1.2L12,390.6L12,390.6z"/>
	<path class="st0" d="M26.1,384.5h1.7l-3.3,5.6l3.4,5.7h-1.7l-2.5-4.5l-2.5,4.5h-1.7l3.4-5.7l-3.3-5.6h1.7l2.4,4.5L26.1,384.5z"/>
	<path class="st0" d="M32.5,394.2c0.2-0.2,0.5-0.3,0.9-0.3s0.7,0.1,0.9,0.3s0.3,0.5,0.3,0.8s-0.1,0.6-0.3,0.8s-0.5,0.3-0.9,0.3
		s-0.7-0.1-0.8-0.3s-0.3-0.5-0.3-0.8C32.2,394.6,32.3,394.4,32.5,394.2z"/>
</g>
<g class="st1">
	<path class="st0" d="M89.5,328.1l-4.4,10.2h-2.3l4.4-9.6h-5.7v-1.8h8V328.1z"/>
	<path class="st0" d="M98.1,334.1h1.3v1.8h-1.3v2.5h-2.2v-2.5h-4.7l-0.1-1.4l4.8-7.5h2.2C98.1,327,98.1,334.1,98.1,334.1z
		 M93.2,334.1h2.7v-4.2l-0.2,0.4L93.2,334.1z"/>
	<path class="st0" d="M106.6,338.3h-2.2v-8.7l-2.9,1v-1.9l5-1.8h0.1V338.3z"/>
	<path class="st0" d="M116.7,326.8v1.8h-0.1c-0.6,0-1.1,0.1-1.5,0.2s-0.8,0.4-1.1,0.6s-0.6,0.6-0.7,1s-0.3,0.8-0.3,1.3
		c0.1-0.1,0.3-0.3,0.4-0.4s0.3-0.2,0.5-0.3s0.4-0.2,0.6-0.2s0.5-0.1,0.7-0.1c0.5,0,1,0.1,1.4,0.3s0.7,0.5,1,0.8s0.5,0.8,0.6,1.2
		s0.2,1,0.2,1.5c0,0.6-0.1,1.1-0.3,1.5s-0.4,0.9-0.8,1.2s-0.7,0.6-1.2,0.8s-1,0.3-1.6,0.3s-1.2-0.1-1.6-0.3s-0.9-0.5-1.2-0.9
		s-0.6-0.9-0.8-1.4s-0.3-1.1-0.3-1.8v-0.8c0-0.9,0.1-1.7,0.4-2.5s0.6-1.4,1.1-2s1.1-1,1.8-1.3s1.6-0.5,2.5-0.5L116.7,326.8
		L116.7,326.8z M114.5,332.5c-0.4,0-0.7,0.1-1,0.3s-0.5,0.5-0.7,0.8v0.6c0,0.4,0,0.8,0.1,1.1s0.2,0.6,0.4,0.8s0.3,0.4,0.6,0.5
		s0.4,0.2,0.7,0.2c0.3,0,0.5-0.1,0.7-0.2s0.4-0.3,0.5-0.4s0.3-0.4,0.3-0.7s0.1-0.5,0.1-0.8s0-0.6-0.1-0.9s-0.2-0.5-0.3-0.7
		s-0.3-0.3-0.5-0.4S114.8,332.5,114.5,332.5z"/>
	<path class="st0" d="M137.9,334.7c0,0.6-0.2,1.1-0.4,1.5s-0.5,0.8-0.8,1.2s-0.8,0.6-1.3,0.7s-1,0.3-1.6,0.3c-0.7,0-1.3-0.1-1.8-0.4
		s-1-0.6-1.3-1s-0.6-1-0.8-1.6s-0.3-1.3-0.3-2.1v-1.5c0-0.8,0.1-1.4,0.3-2.1s0.5-1.2,0.8-1.6s0.8-0.8,1.3-1s1.1-0.4,1.7-0.4
		c0.6,0,1.2,0.1,1.7,0.3s0.9,0.4,1.2,0.8s0.6,0.7,0.8,1.2s0.3,1,0.4,1.6h-2.2c0-0.3-0.1-0.6-0.2-0.9s-0.2-0.5-0.4-0.6
		s-0.3-0.3-0.6-0.4s-0.5-0.1-0.8-0.1s-0.6,0.1-0.9,0.2s-0.5,0.4-0.6,0.6s-0.3,0.6-0.4,1s-0.1,0.9-0.1,1.4v1.5c0,1.1,0.2,1.9,0.5,2.5
		s0.8,0.8,1.5,0.8c0.6,0,1-0.2,1.4-0.5s0.5-0.8,0.6-1.5h2.3V334.7z"/>
</g>
<g class="st1">
	<path class="st0" d="M89.5,353.3c0,0.7-0.1,1.4-0.3,1.9s-0.4,1-0.7,1.4s-0.7,0.7-1.2,0.9s-1,0.3-1.5,0.3c-0.6,0-1.1-0.1-1.5-0.3
		s-0.8-0.5-1.2-0.9s-0.6-0.8-0.7-1.4s-0.3-1.2-0.3-1.9v-2.7c0-0.7,0.1-1.4,0.3-1.9s0.4-1,0.7-1.4s0.7-0.7,1.2-0.9s1-0.3,1.5-0.3
		c0.6,0,1.1,0.1,1.5,0.3s0.8,0.5,1.2,0.9s0.6,0.8,0.7,1.4s0.3,1.2,0.3,1.9V353.3z M84.3,352.4l3-2.3c0-0.8-0.1-1.3-0.4-1.7
		s-0.6-0.6-1.1-0.6s-0.9,0.2-1.1,0.6s-0.4,1-0.4,1.8V352.4z M87.3,351.6l-3,2.2c0,0.8,0.2,1.3,0.4,1.7s0.6,0.5,1.1,0.5
		s0.9-0.2,1.1-0.6s0.4-1,0.4-1.8V351.6z"/>
	<path class="st0" d="M93.9,356.4c0-0.2,0-0.4,0.1-0.6s0.2-0.3,0.3-0.5s0.3-0.2,0.5-0.3s0.4-0.1,0.6-0.1s0.4,0,0.6,0.1
		s0.3,0.2,0.5,0.3s0.2,0.3,0.3,0.5s0.1,0.4,0.1,0.6s0,0.4-0.1,0.6s-0.2,0.3-0.3,0.4s-0.3,0.2-0.5,0.3s-0.4,0.1-0.6,0.1
		s-0.4,0-0.6-0.1s-0.3-0.2-0.5-0.3s-0.2-0.3-0.3-0.4S93.9,356.6,93.9,356.4z"/>
	<path class="st0" d="M116.7,346.2v1.8h-0.1c-0.6,0-1.1,0.1-1.5,0.2s-0.8,0.4-1.1,0.6s-0.6,0.6-0.7,1s-0.3,0.8-0.3,1.3
		c0.1-0.1,0.3-0.3,0.4-0.4s0.3-0.2,0.5-0.3s0.4-0.2,0.6-0.2s0.5-0.1,0.7-0.1c0.5,0,1,0.1,1.4,0.3s0.7,0.5,1,0.8s0.5,0.8,0.6,1.2
		s0.2,1,0.2,1.5c0,0.6-0.1,1.1-0.3,1.5s-0.4,0.9-0.8,1.2s-0.7,0.6-1.2,0.8s-1,0.3-1.6,0.3s-1.2-0.1-1.6-0.3s-0.9-0.5-1.2-0.9
		s-0.6-0.9-0.8-1.4s-0.3-1.1-0.3-1.8v-0.8c0-0.9,0.1-1.7,0.4-2.5s0.6-1.4,1.1-2s1.1-1,1.8-1.3s1.6-0.5,2.5-0.5L116.7,346.2
		L116.7,346.2z M114.5,351.8c-0.4,0-0.7,0.1-1,0.3s-0.5,0.5-0.7,0.8v0.6c0,0.4,0,0.8,0.1,1.1s0.2,0.6,0.4,0.8s0.3,0.4,0.6,0.5
		s0.4,0.2,0.7,0.2c0.3,0,0.5-0.1,0.7-0.2s0.4-0.3,0.5-0.4s0.3-0.4,0.3-0.7s0.1-0.5,0.1-0.8s0-0.6-0.1-0.9s-0.2-0.5-0.3-0.7
		s-0.3-0.3-0.5-0.4S114.8,351.8,114.5,351.8z"/>
	<path class="st0" d="M126.9,353.4h1.3v1.8h-1.3v2.5h-2.2v-2.5H120l-0.1-1.4l4.8-7.5h2.2V353.4z M122,353.4h2.7v-4.2l-0.2,0.4
		L122,353.4z"/>
	<path class="st0" d="M132.3,356.4c0-0.2,0-0.4,0.1-0.6s0.2-0.3,0.3-0.5s0.3-0.2,0.5-0.3s0.4-0.1,0.6-0.1s0.4,0,0.6,0.1
		s0.3,0.2,0.5,0.3s0.2,0.3,0.3,0.5s0.1,0.4,0.1,0.6s0,0.4-0.1,0.6s-0.2,0.3-0.3,0.4s-0.3,0.2-0.5,0.3s-0.4,0.1-0.6,0.1
		s-0.4,0-0.6-0.1s-0.3-0.2-0.5-0.3s-0.2-0.3-0.3-0.4S132.3,356.6,132.3,356.4z"/>
	<path class="st0" d="M149.4,352l0.6-5.8h6.3v1.8h-4.5l-0.3,2.5c0.2-0.1,0.4-0.2,0.7-0.3s0.6-0.1,1-0.1c0.5,0,1,0.1,1.5,0.3
		s0.8,0.4,1.1,0.8s0.5,0.7,0.7,1.2s0.2,1,0.2,1.6c0,0.5-0.1,1-0.2,1.5s-0.4,0.9-0.7,1.2s-0.7,0.6-1.2,0.8s-1,0.3-1.7,0.3
		c-0.5,0-1-0.1-1.4-0.2s-0.9-0.4-1.2-0.6s-0.6-0.6-0.9-1s-0.3-0.9-0.4-1.4h2.1c0.1,0.5,0.2,0.9,0.5,1.1s0.7,0.4,1.2,0.4
		c0.3,0,0.5-0.1,0.7-0.2s0.4-0.3,0.5-0.5s0.2-0.4,0.3-0.7s0.1-0.6,0.1-0.9s0-0.6-0.1-0.8s-0.2-0.5-0.3-0.7s-0.4-0.3-0.6-0.4
		s-0.5-0.1-0.8-0.1c-0.2,0-0.4,0-0.6,0.1s-0.3,0.1-0.4,0.1s-0.2,0.1-0.3,0.2s-0.2,0.2-0.3,0.2L149.4,352z"/>
	<path class="st0" d="M166.1,349.3c0,0.6-0.1,1-0.4,1.5s-0.7,0.8-1.1,1c0.6,0.3,1,0.6,1.3,1.1s0.5,1,0.5,1.6c0,0.5-0.1,1-0.3,1.4
		s-0.5,0.7-0.8,1s-0.7,0.5-1.2,0.6s-1,0.2-1.5,0.2s-1-0.1-1.5-0.2s-0.9-0.3-1.2-0.6s-0.6-0.6-0.8-1s-0.3-0.9-0.3-1.4
		c0-0.3,0-0.6,0.1-0.9s0.2-0.5,0.4-0.8s0.3-0.4,0.6-0.6s0.5-0.3,0.7-0.5c-0.5-0.2-0.9-0.6-1.1-1s-0.4-0.9-0.4-1.5
		c0-0.5,0.1-1,0.3-1.4s0.4-0.7,0.7-1s0.7-0.5,1.1-0.6s0.9-0.2,1.4-0.2s1,0.1,1.4,0.2s0.8,0.3,1.1,0.6s0.6,0.6,0.8,1
		S166.1,348.8,166.1,349.3z M164.1,354.4c0-0.3,0-0.5-0.1-0.7s-0.2-0.4-0.3-0.5s-0.3-0.3-0.5-0.3s-0.4-0.1-0.7-0.1s-0.5,0-0.7,0.1
		s-0.4,0.2-0.5,0.3s-0.2,0.3-0.3,0.5s-0.1,0.4-0.1,0.7c0,0.5,0.1,0.9,0.4,1.2s0.7,0.4,1.2,0.4c0.2,0,0.5,0,0.7-0.1s0.4-0.2,0.5-0.3
		s0.3-0.3,0.3-0.5S164.1,354.7,164.1,354.4z M163.9,349.4c0-0.2,0-0.4-0.1-0.6s-0.2-0.3-0.3-0.5s-0.3-0.2-0.4-0.3s-0.4-0.1-0.6-0.1
		c-0.4,0-0.8,0.1-1,0.4s-0.4,0.6-0.4,1.1c0,0.2,0,0.4,0.1,0.6s0.2,0.4,0.3,0.5s0.3,0.2,0.4,0.3s0.4,0.1,0.6,0.1s0.4,0,0.6-0.1
		s0.3-0.2,0.4-0.3s0.2-0.3,0.3-0.5S163.9,349.6,163.9,349.4z"/>
	<path class="st0" d="M170.7,356.4c0-0.2,0-0.4,0.1-0.6s0.2-0.3,0.3-0.5s0.3-0.2,0.5-0.3s0.4-0.1,0.6-0.1s0.4,0,0.6,0.1
		s0.3,0.2,0.5,0.3s0.2,0.3,0.3,0.5s0.1,0.4,0.1,0.6s0,0.4-0.1,0.6s-0.2,0.3-0.3,0.4s-0.3,0.2-0.5,0.3s-0.4,0.1-0.6,0.1
		s-0.4,0-0.6-0.1s-0.3-0.2-0.5-0.3s-0.2-0.3-0.3-0.4S170.7,356.6,170.7,356.4z"/>
	<path class="st0" d="M195.1,353.3c0,0.7-0.1,1.4-0.3,1.9s-0.4,1-0.7,1.4s-0.7,0.7-1.2,0.9s-1,0.3-1.5,0.3c-0.6,0-1.1-0.1-1.5-0.3
		s-0.8-0.5-1.2-0.9s-0.6-0.8-0.7-1.4s-0.3-1.2-0.3-1.9v-2.7c0-0.7,0.1-1.4,0.3-1.9s0.4-1,0.7-1.4s0.7-0.7,1.2-0.9s1-0.3,1.5-0.3
		c0.6,0,1.1,0.1,1.5,0.3s0.8,0.5,1.2,0.9s0.6,0.8,0.7,1.4s0.3,1.2,0.3,1.9V353.3z M189.9,352.4l3-2.3c0-0.8-0.1-1.3-0.4-1.7
		s-0.6-0.6-1.1-0.6s-0.9,0.2-1.1,0.6s-0.4,1-0.4,1.8V352.4z M192.9,351.6l-3,2.2c0,0.8,0.2,1.3,0.4,1.7s0.6,0.5,1.1,0.5
		s0.9-0.2,1.1-0.6s0.4-1,0.4-1.8V351.6z"/>
</g>
<g class="st1">
	<path class="st0" d="M89.5,376.8h-7.8v-1.5l3.7-4c0.3-0.3,0.5-0.6,0.7-0.9s0.4-0.5,0.5-0.7s0.2-0.4,0.3-0.6s0.1-0.4,0.1-0.5
		c0-0.3,0-0.5-0.1-0.7s-0.2-0.4-0.3-0.5s-0.3-0.2-0.5-0.3s-0.4-0.1-0.6-0.1c-0.6,0-1,0.2-1.3,0.5s-0.4,0.8-0.4,1.4h-2.2
		c0-0.5,0.1-1,0.3-1.4s0.5-0.8,0.8-1.2s0.8-0.6,1.3-0.8s1-0.3,1.7-0.3c0.6,0,1.1,0.1,1.5,0.2s0.8,0.4,1.1,0.7s0.5,0.6,0.7,1.1
		s0.2,0.9,0.2,1.4c0,0.4-0.1,0.7-0.2,1.1s-0.3,0.7-0.5,1s-0.5,0.7-0.8,1s-0.6,0.7-1,1.1l-2.1,2.3h5L89.5,376.8L89.5,376.8z"/>
	<path class="st0" d="M93.9,370.2h1.2c0.6,0,1-0.1,1.3-0.4s0.4-0.7,0.4-1.2c0-0.2,0-0.4-0.1-0.6s-0.2-0.3-0.3-0.5s-0.3-0.2-0.5-0.3
		s-0.4-0.1-0.7-0.1c-0.2,0-0.4,0-0.6,0.1s-0.4,0.2-0.5,0.3s-0.3,0.3-0.3,0.4s-0.1,0.4-0.1,0.6h-2.2c0-0.5,0.1-0.9,0.3-1.3
		s0.5-0.7,0.8-1s0.7-0.5,1.2-0.6s0.9-0.2,1.5-0.2s1.1,0.1,1.5,0.2s0.9,0.3,1.2,0.6s0.6,0.6,0.8,1s0.3,0.9,0.3,1.4
		c0,0.2,0,0.5-0.1,0.7s-0.2,0.5-0.3,0.7s-0.3,0.4-0.5,0.6s-0.4,0.3-0.7,0.5c0.3,0.1,0.6,0.3,0.8,0.4s0.4,0.4,0.6,0.6
		s0.3,0.5,0.3,0.7s0.1,0.6,0.1,0.9c0,0.5-0.1,1-0.3,1.4s-0.5,0.8-0.8,1.1s-0.8,0.5-1.3,0.6s-1,0.2-1.6,0.2c-0.5,0-1-0.1-1.4-0.2
		s-0.9-0.3-1.2-0.6s-0.6-0.6-0.9-1s-0.3-0.9-0.3-1.4h2.2c0,0.2,0,0.4,0.1,0.6s0.2,0.3,0.4,0.5s0.3,0.2,0.5,0.3s0.4,0.1,0.7,0.1
		c0.6,0,1-0.1,1.3-0.4s0.5-0.7,0.5-1.2c0-0.3,0-0.6-0.1-0.8s-0.2-0.4-0.4-0.5s-0.4-0.2-0.6-0.3s-0.5-0.1-0.8-0.1h-1.2v-1.8H93.9z"/>
	<path class="st0" d="M107.7,372.6h1.3v1.8h-1.3v2.5h-2.2v-2.5h-4.7l-0.1-1.4l4.8-7.5h2.2C107.7,365.5,107.7,372.6,107.7,372.6z
		 M102.8,372.6h2.7v-4.2l-0.2,0.4L102.8,372.6z"/>
	<path class="st0" d="M113.1,375.6c0-0.2,0-0.4,0.1-0.6s0.2-0.3,0.3-0.5s0.3-0.2,0.5-0.3s0.4-0.1,0.6-0.1s0.4,0,0.6,0.1
		s0.3,0.2,0.5,0.3s0.2,0.3,0.3,0.5s0.1,0.4,0.1,0.6s0,0.4-0.1,0.6s-0.2,0.3-0.3,0.4s-0.3,0.2-0.5,0.3s-0.4,0.1-0.6,0.1
		s-0.4,0-0.6-0.1s-0.3-0.2-0.5-0.3s-0.2-0.3-0.3-0.4S113.1,375.8,113.1,375.6z"/>
	<path class="st0" d="M135.4,376.8h-2.2v-8.7l-2.9,1v-1.9l5-1.8h0.1L135.4,376.8L135.4,376.8z"/>
	<path class="st0" d="M147.1,372.5c0,0.7-0.1,1.4-0.3,1.9s-0.4,1-0.7,1.4s-0.7,0.7-1.2,0.9s-1,0.3-1.5,0.3c-0.6,0-1.1-0.1-1.5-0.3
		s-0.8-0.5-1.2-0.9s-0.6-0.8-0.7-1.4s-0.3-1.2-0.3-1.9v-2.7c0-0.7,0.1-1.4,0.3-1.9s0.4-1,0.7-1.4s0.7-0.7,1.2-0.9s1-0.3,1.5-0.3
		c0.6,0,1.1,0.1,1.5,0.3s0.8,0.5,1.2,0.9s0.6,0.8,0.7,1.4s0.3,1.2,0.3,1.9V372.5z M141.9,371.6l3-2.3c0-0.8-0.1-1.3-0.4-1.7
		s-0.6-0.6-1.1-0.6s-0.9,0.2-1.1,0.6s-0.4,1-0.4,1.8V371.6z M144.9,370.8l-3,2.2c0,0.8,0.2,1.3,0.4,1.7s0.6,0.5,1.1,0.5
		s0.9-0.2,1.1-0.6s0.4-1,0.4-1.8V370.8z"/>
	<path class="st0" d="M156.8,376.8H149v-1.5l3.7-4c0.3-0.3,0.5-0.6,0.7-0.9s0.4-0.5,0.5-0.7s0.2-0.4,0.3-0.6s0.1-0.4,0.1-0.5
		c0-0.3,0-0.5-0.1-0.7s-0.2-0.4-0.3-0.5s-0.3-0.2-0.5-0.3s-0.4-0.1-0.6-0.1c-0.6,0-1,0.2-1.3,0.5s-0.4,0.8-0.4,1.4h-2.2
		c0-0.5,0.1-1,0.3-1.4s0.5-0.8,0.8-1.2s0.8-0.6,1.3-0.8s1-0.3,1.7-0.3c0.6,0,1.1,0.1,1.5,0.2s0.8,0.4,1.1,0.7s0.5,0.6,0.7,1.1
		s0.2,0.9,0.2,1.4c0,0.4-0.1,0.7-0.2,1.1s-0.3,0.7-0.5,1s-0.5,0.7-0.8,1s-0.6,0.7-1,1.1l-2.1,2.3h5L156.8,376.8L156.8,376.8z"/>
	<path class="st0" d="M161.1,375.6c0-0.2,0-0.4,0.1-0.6s0.2-0.3,0.3-0.5s0.3-0.2,0.5-0.3s0.4-0.1,0.6-0.1s0.4,0,0.6,0.1
		s0.3,0.2,0.5,0.3s0.2,0.3,0.3,0.5s0.1,0.4,0.1,0.6s0,0.4-0.1,0.6s-0.2,0.3-0.3,0.4s-0.3,0.2-0.5,0.3s-0.4,0.1-0.6,0.1
		s-0.4,0-0.6-0.1s-0.3-0.2-0.5-0.3s-0.2-0.3-0.3-0.4S161.1,375.8,161.1,375.6z"/>
	<path class="st0" d="M185.3,368.5c0,0.6-0.1,1-0.4,1.5s-0.7,0.8-1.1,1c0.6,0.3,1,0.6,1.3,1.1s0.5,1,0.5,1.6c0,0.5-0.1,1-0.3,1.4
		s-0.5,0.7-0.8,1s-0.7,0.5-1.2,0.6s-1,0.2-1.5,0.2s-1-0.1-1.5-0.2s-0.9-0.3-1.2-0.6s-0.6-0.6-0.8-1s-0.3-0.9-0.3-1.4
		c0-0.3,0-0.6,0.1-0.9s0.2-0.5,0.4-0.8s0.3-0.4,0.6-0.6s0.5-0.3,0.7-0.5c-0.5-0.2-0.9-0.6-1.1-1s-0.4-0.9-0.4-1.5
		c0-0.5,0.1-1,0.3-1.4s0.4-0.7,0.7-1s0.7-0.5,1.1-0.6s0.9-0.2,1.4-0.2s1,0.1,1.4,0.2s0.8,0.3,1.1,0.6s0.6,0.6,0.8,1
		S185.3,368,185.3,368.5z M183.3,373.6c0-0.3,0-0.5-0.1-0.7s-0.2-0.4-0.3-0.5s-0.3-0.3-0.5-0.3s-0.4-0.1-0.7-0.1s-0.5,0-0.7,0.1
		s-0.4,0.2-0.5,0.3s-0.2,0.3-0.3,0.5s-0.1,0.4-0.1,0.7c0,0.5,0.1,0.9,0.4,1.2s0.7,0.4,1.2,0.4c0.2,0,0.5,0,0.7-0.1s0.4-0.2,0.5-0.3
		s0.3-0.3,0.3-0.5S183.3,373.9,183.3,373.6z M183.1,368.6c0-0.2,0-0.4-0.1-0.6s-0.2-0.3-0.3-0.5s-0.3-0.2-0.4-0.3s-0.4-0.1-0.6-0.1
		c-0.4,0-0.8,0.1-1,0.4s-0.4,0.6-0.4,1.1c0,0.2,0,0.4,0.1,0.6s0.2,0.4,0.3,0.5s0.3,0.2,0.4,0.3s0.4,0.1,0.6,0.1s0.4,0,0.6-0.1
		s0.3-0.2,0.4-0.3s0.2-0.3,0.3-0.5S183.1,368.8,183.1,368.6z"/>
</g>
<g class="st1">
	<path class="st0" d="M89,390.9h-4.7v3.2h5.5v1.8h-7.7v-11.4h7.6v1.8h-5.4v2.9H89V390.9z"/>
	<path class="st0" d="M98.6,390.9H94v3.2h5.5v1.8h-7.7v-11.4h7.6v1.8H94v2.9h4.7L98.6,390.9L98.6,390.9z"/>
	<path class="st0" d="M108.7,385.7l-4.4,10.2H102l4.4-9.6h-5.7v-1.8h8C108.7,384.5,108.7,385.7,108.7,385.7z"/>
	<path class="st0" d="M118.1,387.5c0,0.6-0.1,1-0.4,1.5s-0.7,0.8-1.1,1c0.6,0.3,1,0.6,1.3,1.1s0.5,1,0.5,1.6c0,0.5-0.1,1-0.3,1.4
		s-0.5,0.7-0.8,1s-0.7,0.5-1.2,0.6s-1,0.2-1.5,0.2s-1-0.1-1.5-0.2s-0.9-0.3-1.2-0.6s-0.6-0.6-0.8-1s-0.3-0.9-0.3-1.4
		c0-0.3,0-0.6,0.1-0.9s0.2-0.5,0.4-0.8s0.3-0.4,0.6-0.6s0.5-0.3,0.7-0.5c-0.5-0.2-0.9-0.6-1.1-1s-0.4-0.9-0.4-1.5
		c0-0.5,0.1-1,0.3-1.4s0.4-0.7,0.7-1s0.7-0.5,1.1-0.6s0.9-0.2,1.4-0.2s1,0.1,1.4,0.2s0.8,0.3,1.1,0.6s0.6,0.6,0.8,1
		S118.1,387,118.1,387.5z M116.1,392.6c0-0.3,0-0.5-0.1-0.7s-0.2-0.4-0.3-0.5s-0.3-0.3-0.5-0.3s-0.4-0.1-0.7-0.1s-0.5,0-0.7,0.1
		s-0.4,0.2-0.5,0.3s-0.2,0.3-0.3,0.5s-0.1,0.4-0.1,0.7c0,0.5,0.1,0.9,0.4,1.2s0.7,0.4,1.2,0.4c0.2,0,0.5,0,0.7-0.1s0.4-0.2,0.5-0.3
		s0.3-0.3,0.3-0.5S116.1,392.9,116.1,392.6z M115.9,387.6c0-0.2,0-0.4-0.1-0.6s-0.2-0.3-0.3-0.5s-0.3-0.2-0.4-0.3s-0.4-0.1-0.6-0.1
		c-0.4,0-0.8,0.1-1,0.4s-0.4,0.6-0.4,1.1c0,0.2,0,0.4,0.1,0.6s0.2,0.4,0.3,0.5s0.3,0.2,0.4,0.3s0.4,0.1,0.6,0.1s0.4,0,0.6-0.1
		s0.3-0.2,0.4-0.3s0.2-0.3,0.3-0.5S115.9,387.9,115.9,387.6z"/>
	<path class="st0" d="M126.3,384.4v1.8h-0.1c-0.6,0-1.1,0.1-1.5,0.2s-0.8,0.4-1.1,0.6s-0.6,0.6-0.7,1s-0.3,0.8-0.3,1.3
		c0.1-0.1,0.3-0.3,0.4-0.4s0.3-0.2,0.5-0.3s0.4-0.2,0.6-0.2s0.5-0.1,0.7-0.1c0.5,0,1,0.1,1.4,0.3s0.7,0.5,1,0.8s0.5,0.8,0.6,1.2
		s0.2,1,0.2,1.5c0,0.6-0.1,1.1-0.3,1.5s-0.4,0.9-0.8,1.2s-0.7,0.6-1.2,0.8s-1,0.3-1.6,0.3s-1.2-0.1-1.6-0.3s-0.9-0.5-1.2-0.9
		s-0.6-0.9-0.8-1.4s-0.3-1.1-0.3-1.8v-0.8c0-0.9,0.1-1.7,0.4-2.5s0.6-1.4,1.1-2s1.1-1,1.8-1.3s1.6-0.5,2.5-0.5L126.3,384.4
		L126.3,384.4z M124.1,390.1c-0.4,0-0.7,0.1-1,0.3s-0.5,0.5-0.7,0.8v0.6c0,0.4,0,0.8,0.1,1.1s0.2,0.6,0.4,0.8s0.3,0.4,0.6,0.5
		s0.4,0.2,0.7,0.2c0.3,0,0.5-0.1,0.7-0.2s0.4-0.3,0.5-0.4s0.3-0.4,0.3-0.7s0.1-0.5,0.1-0.8s0-0.6-0.1-0.9s-0.2-0.5-0.3-0.7
		s-0.3-0.3-0.5-0.4S124.4,390.1,124.1,390.1z"/>
	<path class="st0" d="M137.6,395.9h-7.8v-1.5l3.7-4c0.3-0.3,0.5-0.6,0.7-0.9s0.4-0.5,0.5-0.7s0.2-0.4,0.3-0.6s0.1-0.4,0.1-0.5
		c0-0.3,0-0.5-0.1-0.7s-0.2-0.4-0.3-0.5s-0.3-0.2-0.5-0.3s-0.4-0.1-0.6-0.1c-0.6,0-1,0.2-1.3,0.5s-0.4,0.8-0.4,1.4h-2.2
		c0-0.5,0.1-1,0.3-1.4s0.5-0.8,0.8-1.2s0.8-0.6,1.3-0.8s1-0.3,1.7-0.3c0.6,0,1.1,0.1,1.5,0.2s0.8,0.4,1.1,0.7s0.5,0.6,0.7,1.1
		s0.2,0.9,0.2,1.4c0,0.4-0.1,0.7-0.2,1.1s-0.3,0.7-0.5,1s-0.5,0.7-0.8,1s-0.6,0.7-1,1.1l-2.1,2.3h5L137.6,395.9L137.6,395.9z"/>
</g>
<g class="st1">
	<path class="st0" d="M415.6,338.3h-1.4v-11.4h3.7c0.5,0,1,0.1,1.4,0.2s0.9,0.4,1.2,0.7s0.6,0.6,0.8,1.1s0.3,0.9,0.3,1.5
		s-0.1,1-0.3,1.4s-0.5,0.8-0.8,1.1s-0.7,0.5-1.2,0.7s-0.9,0.2-1.4,0.2h-2.2v4.5H415.6z M417.8,332.5c0.3,0,0.6-0.1,0.9-0.2
		s0.5-0.2,0.7-0.4s0.4-0.4,0.5-0.7s0.2-0.6,0.2-0.9s-0.1-0.7-0.2-0.9s-0.3-0.5-0.5-0.7s-0.5-0.3-0.7-0.4s-0.6-0.2-0.9-0.2h-2.2v4.4
		L417.8,332.5L417.8,332.5z"/>
	<path class="st0" d="M425.3,335.3l-0.9,2.9H423l3.7-11.4h1.2l3.6,11.4h-1.4l-0.9-2.9H425.3z M428.7,334.1l-1.5-4.9l-1.5,4.9H428.7z
		"/>
	<path class="st0" d="M438.9,338.3l-4.4-8.5v8.5H433v-11.4h1.5l4.4,8.5v-8.5h1.5v11.4H438.9z"/>
	<path class="st0" d="M447,328.2v10.1h-1.4v-10.1h-3.5V327h8.4v1.2H447z"/>
	<path class="st0" d="M459.7,334.5c-0.1,0.4-0.2,0.8-0.3,1.2s-0.3,0.7-0.5,1.1s-0.5,0.6-0.8,0.9s-0.6,0.4-1,0.6s-0.8,0.2-1.3,0.2
		s-0.9-0.1-1.3-0.2s-0.7-0.3-1-0.6s-0.5-0.5-0.8-0.9s-0.4-0.7-0.5-1.1s-0.2-0.8-0.3-1.2s-0.1-0.8-0.1-1.2V332c0-0.4,0-0.8,0.1-1.2
		s0.2-0.8,0.3-1.2c0.1-0.4,0.3-0.7,0.5-1.1s0.5-0.6,0.8-0.9c0.3-0.2,0.6-0.4,1-0.6s0.8-0.2,1.3-0.2s0.9,0.1,1.3,0.2s0.7,0.3,1,0.6
		s0.5,0.5,0.8,0.9s0.4,0.7,0.5,1.1s0.2,0.8,0.3,1.2s0.1,0.8,0.1,1.2v1.3C459.8,333.7,459.8,334.1,459.7,334.5z M458.3,331.1
		c0-0.3-0.1-0.6-0.2-0.9s-0.2-0.6-0.3-0.8s-0.3-0.5-0.5-0.7s-0.4-0.4-0.7-0.5s-0.6-0.2-0.9-0.2s-0.6,0.1-0.9,0.2s-0.5,0.3-0.7,0.5
		s-0.3,0.4-0.5,0.7s-0.2,0.5-0.3,0.8c-0.1,0.3-0.1,0.6-0.2,0.9s-0.1,0.6-0.1,0.8v1.3c0,0.3,0,0.5,0.1,0.8s0.1,0.6,0.2,0.9
		s0.2,0.6,0.3,0.8s0.3,0.5,0.5,0.7s0.4,0.4,0.7,0.5s0.6,0.2,0.9,0.2s0.6-0.1,0.9-0.2s0.5-0.3,0.7-0.5s0.3-0.4,0.5-0.7
		s0.2-0.5,0.3-0.8c0.1-0.3,0.1-0.6,0.2-0.9s0-0.6,0.1-0.9V332C458.4,331.7,458.4,331.4,458.3,331.1z"/>
	<path class="st0" d="M467.7,338.3l-4.4-8.5v8.5h-1.5v-11.4h1.5l4.4,8.5v-8.5h1.5v11.4H467.7z"/>
	<path class="st0" d="M473.1,333v4h5.5v1.2h-7v-11.4h6.9v1.2H473v3.7h4.8v1.2L473.1,333L473.1,333z"/>
	<path class="st0" d="M484,336.6c0.2-0.2,0.5-0.3,0.9-0.3s0.7,0.1,0.9,0.3s0.3,0.5,0.3,0.8s-0.1,0.6-0.3,0.8s-0.5,0.3-0.9,0.3
		s-0.7-0.1-0.8-0.3s-0.3-0.5-0.3-0.8C483.7,337,483.8,336.8,484,336.6z"/>
	<path class="st0" d="M421,355.5c-0.2,0.4-0.5,0.8-0.8,1.1c-0.3,0.3-0.7,0.6-1.2,0.7s-0.9,0.3-1.5,0.3c-0.5,0-0.9-0.1-1.3-0.2
		s-0.7-0.3-1-0.6c-0.3-0.2-0.6-0.5-0.8-0.8s-0.4-0.7-0.5-1c-0.1-0.4-0.3-0.8-0.3-1.2s-0.1-0.8-0.1-1.2V351c0-0.4,0-0.8,0.1-1.2
		s0.2-0.8,0.3-1.2c0.1-0.4,0.3-0.7,0.5-1s0.5-0.6,0.8-0.8c0.3-0.2,0.6-0.4,1-0.6s0.8-0.2,1.3-0.2c0.6,0,1.1,0.1,1.5,0.3
		s0.8,0.4,1.2,0.7c0.3,0.3,0.6,0.7,0.8,1.2s0.3,0.9,0.4,1.5H420c0-0.3-0.1-0.7-0.2-1s-0.3-0.6-0.5-0.8s-0.4-0.4-0.7-0.5
		s-0.6-0.2-1-0.2c-0.3,0-0.6,0.1-0.9,0.2s-0.5,0.3-0.7,0.5s-0.4,0.4-0.5,0.7s-0.2,0.5-0.3,0.8s-0.1,0.6-0.2,0.9s-0.1,0.6-0.1,0.9
		v1.6c0,0.3,0,0.6,0.1,0.9s0.1,0.6,0.2,0.9s0.2,0.6,0.3,0.8s0.3,0.5,0.5,0.7s0.4,0.4,0.7,0.5s0.6,0.2,0.9,0.2c0.4,0,0.7-0.1,1-0.2
		s0.5-0.3,0.7-0.5s0.3-0.5,0.5-0.8s0.2-0.6,0.2-1h1.4C421.3,354.6,421.2,355.1,421,355.5z"/>
	<path class="st0" d="M427.1,351.8l2-5.7h1.8v11.4h-1.4V353l0.1-4.8l-2.1,6.1h-0.8l-1.9-6l0.1,4.6v4.5h-1.4V346h1.8L427.1,351.8z"/>
	<path class="st0" d="M439.2,346.1h1.6l-3.5,7.1v4.2H436v-4.2l-3.5-7.1h1.6l2.6,5.7L439.2,346.1z"/>
	<path class="st0" d="M444.3,353.6v3.8h-1.5V346h1.5v5.6l1.1-1.4l3.3-4.2h1.8l-4,5l4.2,6.4H449l-3.4-5.3L444.3,353.6z"/>
	<path class="st0" d="M455.2,355.8c0.2-0.2,0.5-0.3,0.9-0.3s0.7,0.1,0.9,0.3s0.3,0.5,0.3,0.8s-0.1,0.6-0.3,0.8s-0.5,0.3-0.9,0.3
		s-0.7-0.1-0.8-0.3s-0.3-0.5-0.3-0.8C454.9,356.2,455,356,455.2,355.8z"/>
	<path class="st0" d="M415.5,372.1v4.6h-1.4v-11.4h3.3c0.5,0,1,0.1,1.5,0.2s0.9,0.4,1.2,0.6c0.3,0.3,0.6,0.6,0.8,1.1
		s0.3,0.9,0.3,1.5c0,0.4-0.1,0.7-0.2,1s-0.3,0.6-0.4,0.8s-0.4,0.5-0.7,0.7s-0.5,0.4-0.9,0.5l2.4,4.9v0.1H420l-2.2-4.6L415.5,372.1
		L415.5,372.1z M417.4,370.9c0.3,0,0.6-0.1,0.9-0.2s0.5-0.2,0.8-0.4c0.2-0.2,0.4-0.4,0.5-0.7s0.2-0.6,0.2-0.9c0-0.4-0.1-0.7-0.2-1
		s-0.3-0.5-0.5-0.7s-0.5-0.3-0.8-0.4s-0.6-0.1-1-0.1h-1.9v4.4L417.4,370.9L417.4,370.9z"/>
	<path class="st0" d="M430.4,375.8c-0.2,0.2-0.4,0.3-0.6,0.4c-0.4,0.2-0.8,0.4-1.2,0.5s-0.9,0.2-1.3,0.2c-0.5,0-0.9-0.1-1.3-0.2
		s-0.7-0.3-1.1-0.6c-0.3-0.2-0.6-0.5-0.8-0.9s-0.4-0.7-0.6-1.1s-0.3-0.8-0.4-1.2s-0.1-0.8-0.1-1.3v-1.3c0-0.4,0-0.8,0.1-1.3
		s0.2-0.8,0.3-1.2s0.3-0.7,0.5-1.1s0.5-0.6,0.8-0.9c0.3-0.2,0.6-0.4,1-0.6s0.8-0.2,1.3-0.2s1,0.1,1.5,0.2s0.8,0.4,1.2,0.7
		c0.3,0.3,0.6,0.7,0.8,1.1s0.3,0.9,0.4,1.4h-1.4c-0.1-0.3-0.1-0.6-0.3-0.9s-0.3-0.5-0.5-0.7s-0.4-0.4-0.7-0.5s-0.6-0.2-0.9-0.2
		s-0.6,0.1-0.9,0.2s-0.5,0.3-0.7,0.5s-0.4,0.4-0.5,0.7s-0.2,0.5-0.3,0.8s-0.1,0.6-0.2,0.9s-0.1,0.6-0.1,0.9v1.3c0,0.3,0,0.6,0.1,0.9
		s0.1,0.6,0.2,0.9s0.2,0.6,0.4,0.8s0.3,0.5,0.5,0.7s0.4,0.4,0.7,0.5s0.6,0.2,0.9,0.2c0.2,0,0.4,0,0.6,0s0.4-0.1,0.6-0.1
		s0.4-0.1,0.6-0.3s0.3-0.2,0.4-0.4V372h-2.3v-1h3.7v4.2C430.8,375.4,430.6,375.6,430.4,375.8z"/>
	<path class="st0" d="M433.2,365.3h3.4c0.5,0,0.9,0.1,1.4,0.2s0.8,0.3,1.2,0.5s0.6,0.6,0.8,0.9s0.3,0.8,0.3,1.4
		c0,0.3-0.1,0.6-0.1,0.8s-0.2,0.5-0.4,0.7c-0.2,0.2-0.3,0.4-0.5,0.5s-0.4,0.3-0.7,0.4l0,0c0.3,0.1,0.6,0.2,0.8,0.4s0.5,0.4,0.7,0.6
		s0.3,0.5,0.4,0.8s0.2,0.6,0.2,0.9c0,0.5-0.1,1-0.3,1.4s-0.5,0.7-0.8,1s-0.8,0.5-1.2,0.6s-0.9,0.2-1.4,0.2h-3.6v-11.3H433.2z
		 M436.7,370.2c0.3,0,0.5,0,0.8-0.1s0.5-0.2,0.7-0.4c0.2-0.2,0.4-0.3,0.5-0.6s0.2-0.5,0.2-0.8s-0.1-0.6-0.2-0.8s-0.3-0.4-0.5-0.6
		c-0.2-0.1-0.4-0.2-0.7-0.3s-0.5-0.1-0.8-0.1h-2v3.6L436.7,370.2L436.7,370.2z M434.7,375.5h2.2c0.3,0,0.6-0.1,0.9-0.2
		s0.5-0.2,0.7-0.4s0.4-0.4,0.5-0.6s0.2-0.5,0.2-0.9c0-0.3,0-0.6-0.2-0.9s-0.3-0.5-0.5-0.6c-0.2-0.2-0.4-0.3-0.7-0.4
		s-0.6-0.1-0.9-0.2h-2.3L434.7,375.5L434.7,375.5z"/>
	<path class="st0" d="M445.6,375c0.2-0.2,0.5-0.3,0.9-0.3s0.7,0.1,0.9,0.3s0.3,0.5,0.3,0.8s-0.1,0.6-0.3,0.8s-0.5,0.3-0.9,0.3
		s-0.7-0.1-0.8-0.3s-0.3-0.5-0.3-0.8C445.3,375.4,445.4,375.2,445.6,375z"/>
	<path class="st0" d="M419.8,395.9v-5.3h-4.7v5.3h-1.4v-11.4h1.4v4.9h4.7v-4.9h1.4v11.4H419.8z"/>
	<path class="st0" d="M425.1,390.6v4h5.5v1.2h-7v-11.4h6.9v1.2H425v3.7h4.8v1.2L425.1,390.6L425.1,390.6z"/>
	<path class="st0" d="M439.2,384.5h1.7l-3.3,5.6l3.4,5.7h-1.7l-2.5-4.5l-2.5,4.5h-1.7l3.4-5.7l-3.3-5.6h1.7l2.4,4.5L439.2,384.5z"/>
	<path class="st0" d="M445.6,394.2c0.2-0.2,0.5-0.3,0.9-0.3s0.7,0.1,0.9,0.3s0.3,0.5,0.3,0.8s-0.1,0.6-0.3,0.8s-0.5,0.3-0.9,0.3
		s-0.7-0.1-0.8-0.3s-0.3-0.5-0.3-0.8C445.3,394.6,445.4,394.4,445.6,394.2z"/>
</g>
<g class="st1">
	<path class="st0" d="M503,334.7c0,0.6-0.2,1.1-0.4,1.5s-0.5,0.8-0.8,1.2s-0.8,0.6-1.3,0.7s-1,0.3-1.6,0.3c-0.7,0-1.3-0.1-1.8-0.4
		s-1-0.6-1.3-1s-0.6-1-0.8-1.6s-0.3-1.3-0.3-2.1v-1.5c0-0.8,0.1-1.4,0.3-2.1s0.5-1.2,0.8-1.6s0.8-0.8,1.3-1s1.1-0.4,1.7-0.4
		s1.2,0.1,1.7,0.3s0.9,0.4,1.2,0.8s0.6,0.7,0.8,1.2s0.3,1,0.4,1.6h-2.2c0-0.3-0.1-0.6-0.2-0.9s-0.2-0.5-0.4-0.6s-0.3-0.3-0.6-0.4
		s-0.5-0.1-0.8-0.1s-0.6,0.1-0.9,0.2s-0.5,0.4-0.6,0.6s-0.3,0.6-0.4,1s-0.1,0.9-0.1,1.4v1.5c0,1.1,0.2,1.9,0.5,2.5s0.8,0.8,1.5,0.8
		c0.6,0,1-0.2,1.4-0.5s0.5-0.8,0.6-1.5h2.3V334.7z"/>
	<path class="st0" d="M512.7,333.4c0,0.7-0.1,1.4-0.3,2s-0.5,1.1-0.8,1.6s-0.8,0.8-1.3,1s-1.1,0.4-1.8,0.4s-1.2-0.1-1.8-0.4
		s-0.9-0.6-1.3-1s-0.6-1-0.8-1.6s-0.3-1.3-0.3-2v-1.7c0-0.7,0.1-1.4,0.3-2s0.4-1.1,0.8-1.6s0.8-0.8,1.3-1s1.1-0.4,1.7-0.4
		c0.7,0,1.3,0.1,1.8,0.4s1,0.6,1.3,1s0.6,1,0.8,1.6s0.3,1.3,0.3,2L512.7,333.4L512.7,333.4z M510.4,331.8c0-0.5,0-0.9-0.1-1.3
		s-0.2-0.7-0.4-1s-0.4-0.5-0.6-0.7s-0.6-0.2-0.9-0.2c-0.4,0-0.7,0.1-0.9,0.2s-0.4,0.4-0.6,0.7s-0.2,0.6-0.3,1s-0.1,0.8-0.1,1.3v1.7
		c0,0.5,0,0.9,0.1,1.3s0.2,0.7,0.3,1s0.3,0.5,0.6,0.7s0.5,0.2,0.9,0.2s0.7-0.1,0.9-0.2s0.5-0.4,0.6-0.7s0.3-0.6,0.4-1
		s0.1-0.8,0.1-1.3V331.8z"/>
	<path class="st0" d="M522.3,333.4c0,0.7-0.1,1.4-0.3,2s-0.5,1.1-0.8,1.6s-0.8,0.8-1.3,1s-1.1,0.4-1.8,0.4s-1.2-0.1-1.8-0.4
		s-0.9-0.6-1.3-1s-0.6-1-0.8-1.6s-0.3-1.3-0.3-2v-1.7c0-0.7,0.1-1.4,0.3-2s0.4-1.1,0.8-1.6s0.8-0.8,1.3-1s1.1-0.4,1.7-0.4
		c0.7,0,1.3,0.1,1.8,0.4s1,0.6,1.3,1s0.6,1,0.8,1.6s0.3,1.3,0.3,2L522.3,333.4L522.3,333.4z M520,331.8c0-0.5,0-0.9-0.1-1.3
		s-0.2-0.7-0.4-1s-0.4-0.5-0.6-0.7s-0.6-0.2-0.9-0.2c-0.4,0-0.7,0.1-0.9,0.2s-0.4,0.4-0.6,0.7s-0.2,0.6-0.3,1s-0.1,0.8-0.1,1.3v1.7
		c0,0.5,0,0.9,0.1,1.3s0.2,0.7,0.3,1s0.3,0.5,0.6,0.7s0.5,0.2,0.9,0.2s0.7-0.1,0.9-0.2s0.5-0.4,0.6-0.7s0.3-0.6,0.4-1
		s0.1-0.8,0.1-1.3V331.8z"/>
	<path class="st0" d="M526.3,336.5h5.3v1.8h-7.5v-11.4h2.2V336.5z"/>
	<path class="st0" d="M551,337c-0.1,0.2-0.3,0.3-0.6,0.5s-0.5,0.3-0.9,0.5s-0.7,0.3-1.1,0.3s-0.9,0.1-1.3,0.1
		c-0.6,0-1.2-0.1-1.8-0.3s-1-0.6-1.3-1s-0.7-1-0.9-1.6s-0.3-1.3-0.3-2.1v-1.5c0-0.8,0.1-1.5,0.3-2.1s0.5-1.2,0.9-1.6s0.8-0.8,1.3-1
		s1-0.3,1.6-0.3s1.2,0.1,1.7,0.2s0.9,0.4,1.2,0.7s0.6,0.7,0.8,1.1s0.3,0.9,0.4,1.5h-2.1c-0.1-0.6-0.2-1-0.5-1.3s-0.7-0.4-1.3-0.4
		c-0.3,0-0.5,0.1-0.8,0.2s-0.4,0.4-0.6,0.6s-0.3,0.6-0.4,1s-0.2,0.9-0.2,1.4v1.6c0,1.1,0.2,1.9,0.5,2.4s0.9,0.9,1.6,0.9
		c0.2,0,0.3,0,0.5,0s0.3-0.1,0.5-0.1s0.3-0.1,0.4-0.2s0.2-0.1,0.3-0.2v-2.1H547v-1.6h4.1L551,337z"/>
	<path class="st0" d="M556.6,334h-1.7v4.2h-2.2v-11.4h3.8c0.6,0,1.2,0.1,1.7,0.2s0.9,0.4,1.3,0.7s0.6,0.6,0.8,1.1s0.3,0.9,0.3,1.5
		c0,0.4,0,0.8-0.1,1.1s-0.2,0.6-0.4,0.9s-0.4,0.5-0.6,0.7s-0.5,0.4-0.8,0.5l2.4,4.7v0.1h-2.4L556.6,334z M554.9,332.3h1.6
		c0.6,0,1.1-0.2,1.4-0.5s0.5-0.7,0.5-1.3c0-0.6-0.2-1-0.5-1.3s-0.8-0.5-1.5-0.5h-1.6L554.9,332.3L554.9,332.3z"/>
	<path class="st0" d="M569.3,333.3h-4.7v3.2h5.5v1.8h-7.7v-11.4h7.6v1.8h-5.4v2.9h4.7L569.3,333.3L569.3,333.3z"/>
	<path class="st0" d="M575.8,332.2l2.2-5.2h2.4l-3.6,7.4v3.9h-2.2v-4l-3.5-7.3h2.4L575.8,332.2z"/>
	<path class="st0" d="M598.7,338.3h-7.8v-1.5l3.7-4c0.3-0.3,0.5-0.6,0.7-0.9s0.4-0.5,0.5-0.7s0.2-0.4,0.3-0.6s0.1-0.4,0.1-0.5
		c0-0.3,0-0.5-0.1-0.7s-0.2-0.4-0.3-0.5s-0.3-0.2-0.5-0.3s-0.4-0.1-0.6-0.1c-0.6,0-1,0.2-1.3,0.5s-0.4,0.8-0.4,1.4h-2.2
		c0-0.5,0.1-1,0.3-1.4s0.5-0.8,0.8-1.2s0.8-0.6,1.3-0.8s1-0.3,1.7-0.3c0.6,0,1.1,0.1,1.5,0.2s0.8,0.4,1.1,0.7s0.5,0.6,0.7,1.1
		s0.2,0.9,0.2,1.4c0,0.4-0.1,0.7-0.2,1.1s-0.3,0.7-0.5,1s-0.5,0.7-0.8,1s-0.6,0.7-1,1.1l-2.1,2.3h5v1.7H598.7z"/>
	<path class="st0" d="M608.3,326.9v7.5c0,0.6-0.1,1.2-0.3,1.7s-0.4,0.9-0.8,1.3s-0.7,0.6-1.2,0.8s-1,0.3-1.6,0.3s-1.1-0.1-1.6-0.3
		s-0.9-0.4-1.2-0.8s-0.6-0.8-0.8-1.3s-0.3-1.1-0.3-1.7v-7.5h2.2v7.5c0,0.7,0.1,1.3,0.4,1.7s0.6,0.6,1.2,0.6c0.5,0,0.9-0.2,1.2-0.6
		s0.4-0.9,0.4-1.7v-7.5H608.3z"/>
</g>
<g class="st1">
	<path class="st0" d="M502.6,357.6h-7.8v-1.5l3.7-4c0.3-0.3,0.5-0.6,0.7-0.9s0.4-0.5,0.5-0.7s0.2-0.4,0.3-0.6s0.1-0.4,0.1-0.5
		c0-0.3,0-0.5-0.1-0.7s-0.2-0.4-0.3-0.5s-0.3-0.2-0.5-0.3s-0.4-0.1-0.6-0.1c-0.6,0-1,0.2-1.3,0.5s-0.4,0.8-0.4,1.4h-2.2
		c0-0.5,0.1-1,0.3-1.4s0.5-0.8,0.8-1.2s0.8-0.6,1.3-0.8s1-0.3,1.7-0.3c0.6,0,1.1,0.1,1.5,0.2s0.8,0.4,1.1,0.7s0.5,0.6,0.7,1.1
		s0.2,0.9,0.2,1.4c0,0.4-0.1,0.7-0.2,1.1s-0.3,0.7-0.5,1s-0.5,0.7-0.8,1s-0.6,0.7-1,1.1l-2.1,2.3h5v1.7H502.6z"/>
	<path class="st0" d="M511.2,353.4h1.3v1.8h-1.3v2.5H509v-2.5h-4.7l-0.1-1.4l4.8-7.5h2.2L511.2,353.4L511.2,353.4z M506.3,353.4h2.7
		v-4.2l-0.2,0.4L506.3,353.4z"/>
	<path class="st0" d="M516.6,356.4c0-0.2,0-0.4,0.1-0.6s0.2-0.3,0.3-0.5s0.3-0.2,0.5-0.3s0.4-0.1,0.6-0.1s0.4,0,0.6,0.1
		s0.3,0.2,0.5,0.3s0.2,0.3,0.3,0.5s0.1,0.4,0.1,0.6s0,0.4-0.1,0.6s-0.2,0.3-0.3,0.4s-0.3,0.2-0.5,0.3s-0.4,0.1-0.6,0.1
		s-0.4,0-0.6-0.1s-0.3-0.2-0.5-0.3s-0.2-0.3-0.3-0.4S516.6,356.6,516.6,356.4z"/>
	<path class="st0" d="M538.9,357.6h-2.2v-8.7l-2.9,1V348l5-1.8h0.1L538.9,357.6L538.9,357.6z"/>
	<path class="st0" d="M550.4,349.3c0,0.6-0.1,1-0.4,1.5s-0.7,0.8-1.1,1c0.6,0.3,1,0.6,1.3,1.1s0.5,1,0.5,1.6c0,0.5-0.1,1-0.3,1.4
		s-0.5,0.7-0.8,1s-0.7,0.5-1.2,0.6s-1,0.2-1.5,0.2s-1-0.1-1.5-0.2s-0.9-0.3-1.2-0.6s-0.6-0.6-0.8-1s-0.3-0.9-0.3-1.4
		c0-0.3,0-0.6,0.1-0.9s0.2-0.5,0.4-0.8s0.3-0.4,0.6-0.6s0.5-0.3,0.7-0.5c-0.5-0.2-0.9-0.6-1.1-1s-0.4-0.9-0.4-1.5
		c0-0.5,0.1-1,0.3-1.4s0.4-0.7,0.7-1s0.7-0.5,1.1-0.6s0.9-0.2,1.4-0.2s1,0.1,1.4,0.2s0.8,0.3,1.1,0.6s0.6,0.6,0.8,1
		S550.4,348.8,550.4,349.3z M548.4,354.4c0-0.3,0-0.5-0.1-0.7s-0.2-0.4-0.3-0.5s-0.3-0.3-0.5-0.3s-0.4-0.1-0.7-0.1s-0.5,0-0.7,0.1
		s-0.4,0.2-0.5,0.3s-0.2,0.3-0.3,0.5s-0.1,0.4-0.1,0.7c0,0.5,0.1,0.9,0.4,1.2s0.7,0.4,1.2,0.4c0.2,0,0.5,0,0.7-0.1s0.4-0.2,0.5-0.3
		s0.3-0.3,0.3-0.5S548.4,354.7,548.4,354.4z M548.2,349.4c0-0.2,0-0.4-0.1-0.6s-0.2-0.3-0.3-0.5s-0.3-0.2-0.4-0.3s-0.4-0.1-0.6-0.1
		c-0.4,0-0.8,0.1-1,0.4s-0.4,0.6-0.4,1.1c0,0.2,0,0.4,0.1,0.6s0.2,0.4,0.3,0.5s0.3,0.2,0.4,0.3s0.4,0.1,0.6,0.1s0.4,0,0.6-0.1
		s0.3-0.2,0.4-0.3s0.2-0.3,0.3-0.5S548.2,349.6,548.2,349.4z"/>
	<path class="st0" d="M555,356.4c0-0.2,0-0.4,0.1-0.6s0.2-0.3,0.3-0.5s0.3-0.2,0.5-0.3s0.4-0.1,0.6-0.1s0.4,0,0.6,0.1
		s0.3,0.2,0.5,0.3s0.2,0.3,0.3,0.5s0.1,0.4,0.1,0.6s0,0.4-0.1,0.6s-0.2,0.3-0.3,0.4s-0.3,0.2-0.5,0.3s-0.4,0.1-0.6,0.1
		s-0.4,0-0.6-0.1s-0.3-0.2-0.5-0.3s-0.2-0.3-0.3-0.4S555,356.6,555,356.4z"/>
	<path class="st0" d="M579.5,357.6h-7.8v-1.5l3.7-4c0.3-0.3,0.5-0.6,0.7-0.9s0.4-0.5,0.5-0.7s0.2-0.4,0.3-0.6s0.1-0.4,0.1-0.5
		c0-0.3,0-0.5-0.1-0.7s-0.2-0.4-0.3-0.5s-0.3-0.2-0.5-0.3s-0.4-0.1-0.6-0.1c-0.6,0-1,0.2-1.3,0.5s-0.4,0.8-0.4,1.4h-2.2
		c0-0.5,0.1-1,0.3-1.4s0.5-0.8,0.8-1.2s0.8-0.6,1.3-0.8s1-0.3,1.7-0.3c0.6,0,1.1,0.1,1.5,0.2s0.8,0.4,1.1,0.7s0.5,0.6,0.7,1.1
		s0.2,0.9,0.2,1.4c0,0.4-0.1,0.7-0.2,1.1s-0.3,0.7-0.5,1s-0.5,0.7-0.8,1s-0.6,0.7-1,1.1l-2.1,2.3h5v1.7H579.5z"/>
	<path class="st0" d="M589,353.3c0,0.7-0.1,1.4-0.3,1.9s-0.4,1-0.7,1.4s-0.7,0.7-1.2,0.9s-1,0.3-1.5,0.3c-0.6,0-1.1-0.1-1.5-0.3
		s-0.8-0.5-1.2-0.9s-0.6-0.8-0.7-1.4s-0.3-1.2-0.3-1.9v-2.7c0-0.7,0.1-1.4,0.3-1.9s0.4-1,0.7-1.4s0.7-0.7,1.2-0.9s1-0.3,1.5-0.3
		c0.6,0,1.1,0.1,1.5,0.3s0.8,0.5,1.2,0.9s0.6,0.8,0.7,1.4s0.3,1.2,0.3,1.9V353.3z M583.8,352.4l3-2.3c0-0.8-0.1-1.3-0.4-1.7
		s-0.6-0.6-1.1-0.6s-0.9,0.2-1.1,0.6s-0.4,1-0.4,1.8V352.4z M586.8,351.6l-3,2.2c0,0.8,0.2,1.3,0.4,1.7s0.6,0.5,1.1,0.5
		s0.9-0.2,1.1-0.6s0.4-1,0.4-1.8V351.6z"/>
	<path class="st0" d="M593.4,356.4c0-0.2,0-0.4,0.1-0.6s0.2-0.3,0.3-0.5s0.3-0.2,0.5-0.3s0.4-0.1,0.6-0.1s0.4,0,0.6,0.1
		s0.3,0.2,0.5,0.3s0.2,0.3,0.3,0.5s0.1,0.4,0.1,0.6s0,0.4-0.1,0.6s-0.2,0.3-0.3,0.4s-0.3,0.2-0.5,0.3s-0.4,0.1-0.6,0.1
		s-0.4,0-0.6-0.1s-0.3-0.2-0.5-0.3s-0.2-0.3-0.3-0.4S593.4,356.6,593.4,356.4z"/>
	<path class="st0" d="M615.7,357.6h-2.2v-8.7l-2.9,1V348l5-1.8h0.1L615.7,357.6L615.7,357.6z"/>
</g>
<g class="st1">
	<path class="st0" d="M502.6,376.8h-7.8v-1.5l3.7-4c0.3-0.3,0.5-0.6,0.7-0.9s0.4-0.5,0.5-0.7s0.2-0.4,0.3-0.6s0.1-0.4,0.1-0.5
		c0-0.3,0-0.5-0.1-0.7s-0.2-0.4-0.3-0.5s-0.3-0.2-0.5-0.3s-0.4-0.1-0.6-0.1c-0.6,0-1,0.2-1.3,0.5s-0.4,0.8-0.4,1.4h-2.2
		c0-0.5,0.1-1,0.3-1.4s0.5-0.8,0.8-1.2s0.8-0.6,1.3-0.8s1-0.3,1.7-0.3c0.6,0,1.1,0.1,1.5,0.2s0.8,0.4,1.1,0.7s0.5,0.6,0.7,1.1
		s0.2,0.9,0.2,1.4c0,0.4-0.1,0.7-0.2,1.1s-0.3,0.7-0.5,1s-0.5,0.7-0.8,1s-0.6,0.7-1,1.1l-2.1,2.3h5v1.7H502.6z"/>
	<path class="st0" d="M512.2,372.5c0,0.7-0.1,1.4-0.3,1.9s-0.4,1-0.7,1.4s-0.7,0.7-1.2,0.9s-1,0.3-1.5,0.3c-0.6,0-1.1-0.1-1.5-0.3
		s-0.8-0.5-1.2-0.9s-0.6-0.8-0.7-1.4s-0.3-1.2-0.3-1.9v-2.7c0-0.7,0.1-1.4,0.3-1.9s0.4-1,0.7-1.4s0.7-0.7,1.2-0.9s1-0.3,1.5-0.3
		c0.6,0,1.1,0.1,1.5,0.3s0.8,0.5,1.2,0.9s0.6,0.8,0.7,1.4c0.1,0.6,0.3,1.2,0.3,1.9V372.5z M507,371.6l3-2.3c0-0.8-0.1-1.3-0.4-1.7
		s-0.6-0.6-1.1-0.6s-0.9,0.2-1.1,0.6s-0.4,1-0.4,1.8V371.6z M510,370.8l-3,2.2c0,0.8,0.2,1.3,0.4,1.7s0.6,0.5,1.1,0.5
		s0.9-0.2,1.1-0.6s0.4-1,0.4-1.8V370.8z"/>
	<path class="st0" d="M519.7,376.8h-2.2v-8.7l-2.9,1v-1.9l5-1.8h0.1L519.7,376.8L519.7,376.8z"/>
	<path class="st0" d="M526.2,375.6c0-0.2,0-0.4,0.1-0.6s0.2-0.3,0.3-0.5s0.3-0.2,0.5-0.3s0.4-0.1,0.6-0.1s0.4,0,0.6,0.1
		s0.3,0.2,0.5,0.3s0.2,0.3,0.3,0.5s0.1,0.4,0.1,0.6s0,0.4-0.1,0.6s-0.2,0.3-0.3,0.4s-0.3,0.2-0.5,0.3s-0.4,0.1-0.6,0.1
		s-0.4,0-0.6-0.1s-0.3-0.2-0.5-0.3s-0.2-0.3-0.3-0.4S526.2,375.8,526.2,375.6z"/>
	<path class="st0" d="M550.7,376.8h-7.8v-1.5l3.7-4c0.3-0.3,0.5-0.6,0.7-0.9s0.4-0.5,0.5-0.7s0.2-0.4,0.3-0.6s0.1-0.4,0.1-0.5
		c0-0.3,0-0.5-0.1-0.7s-0.2-0.4-0.3-0.5s-0.3-0.2-0.5-0.3s-0.4-0.1-0.6-0.1c-0.6,0-1,0.2-1.3,0.5s-0.4,0.8-0.4,1.4h-2.2
		c0-0.5,0.1-1,0.3-1.4s0.5-0.8,0.8-1.2s0.8-0.6,1.3-0.8s1-0.3,1.7-0.3c0.6,0,1.1,0.1,1.5,0.2s0.8,0.4,1.1,0.7s0.5,0.6,0.7,1.1
		s0.2,0.9,0.2,1.4c0,0.4-0.1,0.7-0.2,1.1s-0.3,0.7-0.5,1s-0.5,0.7-0.8,1s-0.6,0.7-1,1.1l-2.1,2.3h5v1.7H550.7z"/>
	<path class="st0" d="M560.2,372.5c0,0.7-0.1,1.4-0.3,1.9s-0.4,1-0.7,1.4s-0.7,0.7-1.2,0.9s-1,0.3-1.5,0.3c-0.6,0-1.1-0.1-1.5-0.3
		s-0.8-0.5-1.2-0.9s-0.6-0.8-0.7-1.4s-0.3-1.2-0.3-1.9v-2.7c0-0.7,0.1-1.4,0.3-1.9s0.4-1,0.7-1.4s0.7-0.7,1.2-0.9s1-0.3,1.5-0.3
		c0.6,0,1.1,0.1,1.5,0.3s0.8,0.5,1.2,0.9s0.6,0.8,0.7,1.4s0.3,1.2,0.3,1.9V372.5z M555,371.6l3-2.3c0-0.8-0.1-1.3-0.4-1.7
		s-0.6-0.6-1.1-0.6s-0.9,0.2-1.1,0.6s-0.4,1-0.4,1.8V371.6z M558,370.8l-3,2.2c0,0.8,0.2,1.3,0.4,1.7s0.6,0.5,1.1,0.5
		s0.9-0.2,1.1-0.6s0.4-1,0.4-1.8V370.8z"/>
	<path class="st0" d="M567.7,376.8h-2.2v-8.7l-2.9,1v-1.9l5-1.8h0.1L567.7,376.8L567.7,376.8z"/>
	<path class="st0" d="M574.2,375.6c0-0.2,0-0.4,0.1-0.6s0.2-0.3,0.3-0.5s0.3-0.2,0.5-0.3s0.4-0.1,0.6-0.1s0.4,0,0.6,0.1
		s0.3,0.2,0.5,0.3s0.2,0.3,0.3,0.5s0.1,0.4,0.1,0.6s0,0.4-0.1,0.6s-0.2,0.3-0.3,0.4s-0.3,0.2-0.5,0.3s-0.4,0.1-0.6,0.1
		s-0.4,0-0.6-0.1s-0.3-0.2-0.5-0.3s-0.2-0.3-0.3-0.4S574.2,375.8,574.2,375.6z"/>
	<path class="st0" d="M596.5,376.8h-2.2v-8.7l-2.9,1v-1.9l5-1.8h0.1L596.5,376.8L596.5,376.8z"/>
	<path class="st0" d="M602.3,375.1c0.6,0,1.1-0.1,1.5-0.2s0.8-0.3,1.1-0.5s0.5-0.5,0.7-0.9s0.3-0.7,0.3-1.2
		c-0.2,0.2-0.5,0.4-0.8,0.6s-0.8,0.2-1.2,0.2c-0.5,0-1-0.1-1.4-0.3s-0.8-0.5-1-0.8s-0.5-0.8-0.6-1.2s-0.2-1-0.2-1.5
		c0-0.6,0.1-1.1,0.3-1.6s0.4-0.9,0.8-1.3s0.7-0.7,1.2-0.9s1-0.3,1.6-0.3s1.1,0.1,1.6,0.3s0.9,0.6,1.2,1s0.6,0.9,0.8,1.5
		s0.3,1.2,0.3,1.9v0.8c0,0.9-0.1,1.7-0.3,2.5s-0.6,1.4-1,2s-1.1,1-1.8,1.3s-1.6,0.5-2.6,0.5h-0.2v-1.8h-0.3V375.1z M604.3,371.5
		c0.2,0,0.4,0,0.6-0.1s0.3-0.1,0.5-0.2s0.3-0.2,0.4-0.4s0.2-0.3,0.2-0.4v-0.8c0-0.4,0-0.8-0.1-1.1s-0.2-0.6-0.4-0.8
		s-0.3-0.4-0.5-0.5s-0.4-0.2-0.7-0.2s-0.5,0.1-0.7,0.2s-0.4,0.3-0.5,0.5s-0.2,0.4-0.3,0.7s-0.1,0.5-0.1,0.8s0,0.6,0.1,0.8
		s0.2,0.5,0.3,0.7s0.3,0.4,0.5,0.5S604,371.5,604.3,371.5z"/>
	<path class="st0" d="M611.9,375.1c0.6,0,1.1-0.1,1.5-0.2s0.8-0.3,1.1-0.5s0.5-0.5,0.7-0.9s0.3-0.7,0.3-1.2
		c-0.2,0.2-0.5,0.4-0.8,0.6s-0.8,0.2-1.2,0.2c-0.5,0-1-0.1-1.4-0.3s-0.8-0.5-1-0.8s-0.5-0.8-0.6-1.2s-0.2-1-0.2-1.5
		c0-0.6,0.1-1.1,0.3-1.6s0.4-0.9,0.8-1.3s0.7-0.7,1.2-0.9s1-0.3,1.6-0.3s1.1,0.1,1.6,0.3s0.9,0.6,1.2,1s0.6,0.9,0.8,1.5
		s0.3,1.2,0.3,1.9v0.8c0,0.9-0.1,1.7-0.3,2.5s-0.6,1.4-1,2s-1.1,1-1.8,1.3s-1.6,0.5-2.6,0.5h-0.2v-1.8h-0.3V375.1z M613.9,371.5
		c0.2,0,0.4,0,0.6-0.1s0.3-0.1,0.5-0.2s0.3-0.2,0.4-0.4s0.2-0.3,0.2-0.4v-0.8c0-0.4,0-0.8-0.1-1.1s-0.2-0.6-0.4-0.8
		s-0.3-0.4-0.5-0.5s-0.4-0.2-0.7-0.2s-0.5,0.1-0.7,0.2s-0.4,0.3-0.5,0.5s-0.2,0.4-0.3,0.7s-0.1,0.5-0.1,0.8s0,0.6,0.1,0.8
		s0.2,0.5,0.3,0.7s0.3,0.4,0.5,0.5S613.6,371.5,613.9,371.5z"/>
</g>
<g class="st1">
	<path class="st0" d="M503,392.3c0,0.6-0.2,1.1-0.4,1.5s-0.5,0.8-0.8,1.2s-0.8,0.6-1.3,0.7s-1,0.3-1.6,0.3c-0.7,0-1.3-0.1-1.8-0.4
		s-1-0.6-1.3-1s-0.6-1-0.8-1.6s-0.3-1.3-0.3-2.1v-1.5c0-0.8,0.1-1.4,0.3-2.1s0.5-1.2,0.8-1.6s0.8-0.8,1.3-1s1.1-0.4,1.7-0.4
		s1.2,0.1,1.7,0.3s0.9,0.4,1.2,0.8s0.6,0.7,0.8,1.2s0.3,1,0.4,1.6h-2.2c0-0.3-0.1-0.6-0.2-0.9s-0.2-0.5-0.4-0.6s-0.3-0.3-0.6-0.4
		s-0.5-0.1-0.8-0.1s-0.6,0.1-0.9,0.2s-0.5,0.4-0.6,0.6s-0.3,0.6-0.4,1s-0.1,0.9-0.1,1.4v1.5c0,1.1,0.2,1.9,0.5,2.5s0.8,0.8,1.5,0.8
		c0.6,0,1-0.2,1.4-0.5s0.5-0.8,0.6-1.5h2.3V392.3z"/>
	<path class="st0" d="M506.3,394.2c0.6,0,1.1-0.1,1.5-0.2s0.8-0.3,1.1-0.5s0.5-0.5,0.7-0.9s0.3-0.7,0.3-1.2
		c-0.2,0.2-0.5,0.4-0.8,0.6s-0.8,0.2-1.2,0.2c-0.5,0-1-0.1-1.4-0.3s-0.8-0.5-1-0.8s-0.5-0.8-0.6-1.2s-0.2-1-0.2-1.5
		c0-0.6,0.1-1.1,0.3-1.6s0.4-0.9,0.8-1.3s0.7-0.7,1.2-0.9s1-0.3,1.6-0.3s1.1,0.1,1.6,0.3s0.9,0.6,1.2,1s0.6,0.9,0.8,1.5
		s0.3,1.2,0.3,1.9v0.8c0,0.9-0.1,1.7-0.3,2.5s-0.6,1.4-1,2s-1.1,1-1.8,1.3s-1.6,0.5-2.6,0.5h-0.2v-1.8h-0.3V394.2z M508.3,390.5
		c0.2,0,0.4,0,0.6-0.1s0.3-0.1,0.5-0.2s0.3-0.2,0.4-0.4s0.2-0.3,0.2-0.4v-0.8c0-0.4,0-0.8-0.1-1.1s-0.2-0.6-0.4-0.8
		s-0.3-0.4-0.5-0.5s-0.4-0.2-0.7-0.2c-0.3,0-0.5,0.1-0.7,0.2s-0.4,0.3-0.5,0.5s-0.2,0.4-0.3,0.7s-0.1,0.5-0.1,0.8s0,0.6,0.1,0.8
		s0.2,0.5,0.3,0.7s0.3,0.4,0.5,0.5S508,390.5,508.3,390.5z"/>
	<path class="st0" d="M522.2,392.3c0,0.6-0.2,1.1-0.4,1.5s-0.5,0.8-0.8,1.2s-0.8,0.6-1.3,0.7s-1,0.3-1.6,0.3c-0.7,0-1.3-0.1-1.8-0.4
		s-1-0.6-1.3-1s-0.6-1-0.8-1.6s-0.3-1.3-0.3-2.1v-1.5c0-0.8,0.1-1.4,0.3-2.1s0.5-1.2,0.8-1.6s0.8-0.8,1.3-1s1.1-0.4,1.7-0.4
		c0.6,0,1.2,0.1,1.7,0.3s0.9,0.4,1.2,0.8s0.6,0.7,0.8,1.2s0.3,1,0.4,1.6H520c0-0.3-0.1-0.6-0.2-0.9s-0.2-0.5-0.4-0.6
		s-0.3-0.3-0.6-0.4s-0.5-0.1-0.8-0.1s-0.6,0.1-0.9,0.2s-0.5,0.4-0.6,0.6s-0.3,0.6-0.4,1s-0.1,0.9-0.1,1.4v1.5c0,1.1,0.2,1.9,0.5,2.5
		s0.8,0.8,1.5,0.8c0.6,0,1-0.2,1.4-0.5s0.5-0.8,0.6-1.5h2.2V392.3z"/>
	<path class="st0" d="M525.5,394.2c0.6,0,1.1-0.1,1.5-0.2s0.8-0.3,1.1-0.5s0.5-0.5,0.7-0.9s0.3-0.7,0.3-1.2
		c-0.2,0.2-0.5,0.4-0.8,0.6s-0.8,0.2-1.2,0.2c-0.5,0-1-0.1-1.4-0.3s-0.8-0.5-1-0.8s-0.5-0.8-0.6-1.2s-0.2-1-0.2-1.5
		c0-0.6,0.1-1.1,0.3-1.6s0.4-0.9,0.8-1.3s0.7-0.7,1.2-0.9s1-0.3,1.6-0.3s1.1,0.1,1.6,0.3s0.9,0.6,1.2,1s0.6,0.9,0.8,1.5
		s0.3,1.2,0.3,1.9v0.8c0,0.9-0.1,1.7-0.3,2.5s-0.6,1.4-1,2s-1.1,1-1.8,1.3s-1.6,0.5-2.6,0.5h-0.2v-1.8h-0.3V394.2z M527.5,390.5
		c0.2,0,0.4,0,0.6-0.1s0.3-0.1,0.5-0.2s0.3-0.2,0.4-0.4s0.2-0.3,0.2-0.4v-0.8c0-0.4,0-0.8-0.1-1.1s-0.2-0.6-0.4-0.8
		s-0.3-0.4-0.5-0.5s-0.4-0.2-0.7-0.2s-0.5,0.1-0.7,0.2s-0.4,0.3-0.5,0.5s-0.2,0.4-0.3,0.7s-0.1,0.5-0.1,0.8s0,0.6,0.1,0.8
		s0.2,0.5,0.3,0.7s0.3,0.4,0.5,0.5S527.2,390.5,527.5,390.5z"/>
	<path class="st0" d="M541.4,392.3c0,0.6-0.2,1.1-0.4,1.5s-0.5,0.8-0.8,1.2s-0.8,0.6-1.3,0.7s-1,0.3-1.6,0.3c-0.7,0-1.3-0.1-1.8-0.4
		s-1-0.6-1.3-1s-0.6-1-0.8-1.6s-0.3-1.3-0.3-2.1v-1.5c0-0.8,0.1-1.4,0.3-2.1s0.5-1.2,0.8-1.6s0.8-0.8,1.3-1s1.1-0.4,1.7-0.4
		c0.6,0,1.2,0.1,1.7,0.3s0.9,0.4,1.2,0.8s0.6,0.7,0.8,1.2s0.3,1,0.4,1.6h-2.2c0-0.3-0.1-0.6-0.2-0.9s-0.2-0.5-0.4-0.6
		s-0.3-0.3-0.6-0.4s-0.5-0.1-0.8-0.1s-0.6,0.1-0.9,0.2s-0.5,0.4-0.6,0.6s-0.3,0.6-0.4,1s-0.1,0.9-0.1,1.4v1.5c0,1.1,0.2,1.9,0.5,2.5
		s0.8,0.8,1.5,0.8c0.6,0,1-0.2,1.4-0.5s0.5-0.8,0.6-1.5h2.3V392.3z"/>
	<path class="st0" d="M550.6,385.7l-4.4,10.2h-2.3l4.4-9.6h-5.7v-1.8h8V385.7z"/>
</g>
<g class="st1">
	<path class="st0" d="M828.7,338.3h-1.4v-11.4h3.7c0.5,0,1,0.1,1.4,0.2s0.9,0.4,1.2,0.7s0.6,0.6,0.8,1.1s0.3,0.9,0.3,1.5
		s-0.1,1-0.3,1.4s-0.5,0.8-0.8,1.1s-0.7,0.5-1.2,0.7s-0.9,0.2-1.4,0.2h-2.2L828.7,338.3L828.7,338.3z M830.9,332.5
		c0.3,0,0.6-0.1,0.9-0.2s0.5-0.2,0.7-0.4s0.4-0.4,0.5-0.7s0.2-0.6,0.2-0.9s-0.1-0.7-0.2-0.9s-0.3-0.5-0.5-0.7s-0.5-0.3-0.7-0.4
		s-0.6-0.2-0.9-0.2h-2.2v4.4L830.9,332.5L830.9,332.5z"/>
	<path class="st0" d="M838.4,335.3l-0.9,2.9H836l3.7-11.4h1.2l3.6,11.4H843l-0.9-2.9H838.4z M841.8,334.1l-1.5-4.9l-1.5,4.9H841.8z"
		/>
	<path class="st0" d="M852,338.3l-4.4-8.5v8.5h-1.5v-11.4h1.5l4.4,8.5v-8.5h1.5v11.4H852z"/>
	<path class="st0" d="M860.1,328.2v10.1h-1.4v-10.1h-3.5V327h8.4v1.2H860.1z"/>
	<path class="st0" d="M872.8,334.5c-0.1,0.4-0.2,0.8-0.3,1.2s-0.3,0.7-0.5,1.1s-0.5,0.6-0.8,0.9s-0.6,0.4-1,0.6s-0.8,0.2-1.3,0.2
		s-0.9-0.1-1.3-0.2s-0.7-0.3-1-0.6s-0.5-0.5-0.8-0.9s-0.4-0.7-0.5-1.1s-0.2-0.8-0.3-1.2s-0.1-0.8-0.1-1.2V332c0-0.4,0-0.8,0.1-1.2
		s0.2-0.8,0.3-1.2c0.1-0.4,0.3-0.7,0.5-1.1s0.5-0.6,0.8-0.9c0.3-0.2,0.6-0.4,1-0.6s0.8-0.2,1.3-0.2s0.9,0.1,1.3,0.2s0.7,0.3,1,0.6
		s0.5,0.5,0.8,0.9s0.4,0.7,0.5,1.1s0.2,0.8,0.3,1.2s0.1,0.8,0.1,1.2v1.3C872.9,333.7,872.9,334.1,872.8,334.5z M871.4,331.1
		c0-0.3-0.1-0.6-0.2-0.9c-0.1-0.3-0.2-0.6-0.3-0.8s-0.3-0.5-0.5-0.7s-0.4-0.4-0.7-0.5s-0.6-0.2-0.9-0.2c-0.3,0-0.6,0.1-0.9,0.2
		s-0.5,0.3-0.7,0.5s-0.3,0.4-0.5,0.7s-0.2,0.5-0.3,0.8s-0.1,0.6-0.2,0.9s-0.1,0.6-0.1,0.8v1.3c0,0.3,0,0.5,0.1,0.8s0.1,0.6,0.2,0.9
		c0.1,0.3,0.2,0.6,0.3,0.8s0.3,0.5,0.5,0.7s0.4,0.4,0.7,0.5s0.6,0.2,0.9,0.2s0.6-0.1,0.9-0.2s0.5-0.3,0.7-0.5s0.3-0.4,0.5-0.7
		s0.2-0.5,0.3-0.8s0.1-0.6,0.2-0.9s0-0.6,0.1-0.9V332C871.5,331.7,871.5,331.4,871.4,331.1z"/>
	<path class="st0" d="M880.8,338.3l-4.4-8.5v8.5h-1.5v-11.4h1.5l4.4,8.5v-8.5h1.5v11.4H880.8z"/>
	<path class="st0" d="M886.2,333v4h5.5v1.2h-7v-11.4h6.9v1.2h-5.5v3.7h4.8v1.2L886.2,333L886.2,333z"/>
	<path class="st0" d="M897.1,336.6c0.2-0.2,0.5-0.3,0.9-0.3s0.7,0.1,0.9,0.3s0.3,0.5,0.3,0.8s-0.1,0.6-0.3,0.8s-0.5,0.3-0.9,0.3
		s-0.7-0.1-0.8-0.3s-0.3-0.5-0.3-0.8C896.8,337,896.9,336.8,897.1,336.6z"/>
	<path class="st0" d="M834.1,355.5c-0.2,0.4-0.5,0.8-0.8,1.1c-0.3,0.3-0.7,0.6-1.2,0.7s-0.9,0.3-1.5,0.3c-0.5,0-0.9-0.1-1.3-0.2
		s-0.7-0.3-1-0.6c-0.3-0.2-0.6-0.5-0.8-0.8s-0.4-0.7-0.5-1c-0.1-0.4-0.3-0.8-0.3-1.2s-0.1-0.8-0.1-1.2V351c0-0.4,0-0.8,0.1-1.2
		s0.2-0.8,0.3-1.2c0.1-0.4,0.3-0.7,0.5-1s0.5-0.6,0.8-0.8c0.3-0.2,0.6-0.4,1-0.6s0.8-0.2,1.3-0.2c0.6,0,1.1,0.1,1.5,0.3
		s0.8,0.4,1.2,0.7c0.3,0.3,0.6,0.7,0.8,1.2s0.3,0.9,0.4,1.5H833c0-0.3-0.1-0.7-0.2-1s-0.3-0.6-0.5-0.8s-0.4-0.4-0.7-0.5
		s-0.6-0.2-1-0.2c-0.3,0-0.6,0.1-0.9,0.2s-0.5,0.3-0.7,0.5s-0.4,0.4-0.5,0.7s-0.2,0.5-0.3,0.8s-0.1,0.6-0.2,0.9s-0.1,0.6-0.1,0.9
		v1.6c0,0.3,0,0.6,0.1,0.9s0.1,0.6,0.2,0.9c0.1,0.3,0.2,0.6,0.3,0.8s0.3,0.5,0.5,0.7s0.4,0.4,0.7,0.5s0.6,0.2,0.9,0.2
		c0.4,0,0.7-0.1,1-0.2s0.5-0.3,0.7-0.5s0.3-0.5,0.5-0.8s0.2-0.6,0.2-1h1.4C834.4,354.6,834.3,355.1,834.1,355.5z"/>
	<path class="st0" d="M840.2,351.8l2-5.7h1.8v11.4h-1.4V353l0.1-4.8l-2.1,6.1h-0.8l-1.9-6l0.1,4.6v4.5h-1.4V346h1.8L840.2,351.8z"/>
	<path class="st0" d="M852.3,346.1h1.6l-3.5,7.1v4.2H849v-4.2l-3.5-7.1h1.6l2.6,5.7L852.3,346.1z"/>
	<path class="st0" d="M857.4,353.6v3.8h-1.5V346h1.5v5.6l1.1-1.4l3.3-4.2h1.8l-4,5l4.2,6.4H862l-3.4-5.3L857.4,353.6z"/>
	<path class="st0" d="M868.3,355.8c0.2-0.2,0.5-0.3,0.9-0.3s0.7,0.1,0.9,0.3s0.3,0.5,0.3,0.8s-0.1,0.6-0.3,0.8s-0.5,0.3-0.9,0.3
		s-0.7-0.1-0.8-0.3s-0.3-0.5-0.3-0.8C868,356.2,868.1,356,868.3,355.8z"/>
	<path class="st0" d="M828.6,372.1v4.6h-1.4v-11.4h3.3c0.5,0,1,0.1,1.5,0.2s0.9,0.4,1.2,0.6c0.3,0.3,0.6,0.6,0.8,1.1
		s0.3,0.9,0.3,1.5c0,0.4-0.1,0.7-0.2,1s-0.3,0.6-0.4,0.8s-0.4,0.5-0.7,0.7s-0.5,0.4-0.9,0.5l2.4,4.9v0.1H833l-2.2-4.6L828.6,372.1
		L828.6,372.1z M830.5,370.9c0.3,0,0.6-0.1,0.9-0.2s0.5-0.2,0.8-0.4c0.2-0.2,0.4-0.4,0.5-0.7s0.2-0.6,0.2-0.9c0-0.4-0.1-0.7-0.2-1
		s-0.3-0.5-0.5-0.7s-0.5-0.3-0.8-0.4s-0.6-0.1-1-0.1h-1.9v4.4L830.5,370.9L830.5,370.9z"/>
	<path class="st0" d="M843.5,375.8c-0.2,0.2-0.4,0.3-0.6,0.4c-0.4,0.2-0.8,0.4-1.2,0.5s-0.9,0.2-1.3,0.2c-0.5,0-0.9-0.1-1.3-0.2
		s-0.7-0.3-1.1-0.6c-0.3-0.2-0.6-0.5-0.8-0.9s-0.4-0.7-0.6-1.1c-0.2-0.4-0.3-0.8-0.4-1.2s-0.1-0.8-0.1-1.3v-1.3c0-0.4,0-0.8,0.1-1.3
		s0.2-0.8,0.3-1.2s0.3-0.7,0.5-1.1s0.5-0.6,0.8-0.9c0.3-0.2,0.6-0.4,1-0.6s0.8-0.2,1.3-0.2s1,0.1,1.5,0.2s0.8,0.4,1.2,0.7
		c0.3,0.3,0.6,0.7,0.8,1.1s0.3,0.9,0.4,1.4h-1.4c-0.1-0.3-0.1-0.6-0.3-0.9s-0.3-0.5-0.5-0.7s-0.4-0.4-0.7-0.5s-0.6-0.2-0.9-0.2
		c-0.3,0-0.6,0.1-0.9,0.2s-0.5,0.3-0.7,0.5s-0.4,0.4-0.5,0.7s-0.2,0.5-0.3,0.8s-0.1,0.6-0.2,0.9s-0.1,0.6-0.1,0.9v1.3
		c0,0.3,0,0.6,0.1,0.9s0.1,0.6,0.2,0.9s0.2,0.6,0.4,0.8s0.3,0.5,0.5,0.7s0.4,0.4,0.7,0.5s0.6,0.2,0.9,0.2c0.2,0,0.4,0,0.6,0
		s0.4-0.1,0.6-0.1s0.4-0.1,0.6-0.3s0.3-0.2,0.4-0.4V372h-2.3v-1h3.7v4.2C843.9,375.4,843.7,375.6,843.5,375.8z"/>
	<path class="st0" d="M846.3,365.3h3.4c0.5,0,0.9,0.1,1.4,0.2s0.8,0.3,1.2,0.5s0.6,0.6,0.8,0.9s0.3,0.8,0.3,1.4
		c0,0.3-0.1,0.6-0.1,0.8s-0.2,0.5-0.4,0.7s-0.3,0.4-0.5,0.5s-0.4,0.3-0.7,0.4l0,0c0.3,0.1,0.6,0.2,0.8,0.4s0.5,0.4,0.7,0.6
		s0.3,0.5,0.4,0.8s0.2,0.6,0.2,0.9c0,0.5-0.1,1-0.3,1.4s-0.5,0.7-0.8,1s-0.8,0.5-1.2,0.6s-0.9,0.2-1.4,0.2h-3.6v-11.3H846.3z
		 M849.8,370.2c0.3,0,0.5,0,0.8-0.1s0.5-0.2,0.7-0.4c0.2-0.2,0.4-0.3,0.5-0.6s0.2-0.5,0.2-0.8s-0.1-0.6-0.2-0.8s-0.3-0.4-0.5-0.6
		c-0.2-0.1-0.4-0.2-0.7-0.3s-0.5-0.1-0.8-0.1h-2v3.6L849.8,370.2L849.8,370.2z M847.8,375.5h2.2c0.3,0,0.6-0.1,0.9-0.2
		s0.5-0.2,0.7-0.4s0.4-0.4,0.5-0.6s0.2-0.5,0.2-0.9c0-0.3,0-0.6-0.2-0.9s-0.3-0.5-0.5-0.6c-0.2-0.2-0.4-0.3-0.7-0.4
		s-0.6-0.1-0.9-0.2h-2.3L847.8,375.5L847.8,375.5z"/>
	<path class="st0" d="M858.7,375c0.2-0.2,0.5-0.3,0.9-0.3s0.7,0.1,0.9,0.3s0.3,0.5,0.3,0.8s-0.1,0.6-0.3,0.8s-0.5,0.3-0.9,0.3
		s-0.7-0.1-0.8-0.3s-0.3-0.5-0.3-0.8C858.4,375.4,858.5,375.2,858.7,375z"/>
	<path class="st0" d="M832.9,395.9v-5.3h-4.7v5.3h-1.4v-11.4h1.4v4.9h4.7v-4.9h1.4v11.4H832.9z"/>
	<path class="st0" d="M838.2,390.6v4h5.5v1.2h-7v-11.4h6.9v1.2h-5.5v3.7h4.8v1.2L838.2,390.6L838.2,390.6z"/>
	<path class="st0" d="M852.3,384.5h1.7l-3.3,5.6l3.4,5.7h-1.7l-2.5-4.5l-2.5,4.5h-1.7l3.4-5.7l-3.3-5.6h1.7l2.4,4.5L852.3,384.5z"/>
	<path class="st0" d="M858.7,394.2c0.2-0.2,0.5-0.3,0.9-0.3s0.7,0.1,0.9,0.3s0.3,0.5,0.3,0.8s-0.1,0.6-0.3,0.8s-0.5,0.3-0.9,0.3
		s-0.7-0.1-0.8-0.3s-0.3-0.5-0.3-0.8C858.4,394.6,858.5,394.4,858.7,394.2z"/>
</g>
<g class="st1">
	<path class="st0" d="M915.7,338.3h-2.2l-3.2-7.3v7.3h-2.2v-11.4h2.2l3.1,7.3v-7.3h2.2v11.4H915.7z"/>
	<path class="st0" d="M924.8,333.3h-4.7v3.2h5.5v1.8H918v-11.4h7.6v1.8h-5.4v2.9h4.7L924.8,333.3L924.8,333.3z"/>
	<path class="st0" d="M935,326.9v7.5c0,0.6-0.1,1.2-0.3,1.7s-0.4,0.9-0.8,1.3s-0.7,0.6-1.2,0.8s-1,0.3-1.6,0.3s-1.1-0.1-1.6-0.3
		s-0.9-0.4-1.2-0.8s-0.6-0.8-0.8-1.3s-0.3-1.1-0.3-1.7v-7.5h2.2v7.5c0,0.7,0.1,1.3,0.4,1.7s0.6,0.6,1.2,0.6c0.5,0,0.9-0.2,1.2-0.6
		s0.4-0.9,0.4-1.7v-7.5H935z"/>
	<path class="st0" d="M945.4,328.7h-3.5v9.6h-2.2v-9.6h-3.5v-1.8h9.2V328.7z"/>
	<path class="st0" d="M950.5,334h-1.7v4.2h-2.2v-11.4h3.8c0.6,0,1.2,0.1,1.7,0.2s0.9,0.4,1.3,0.7s0.6,0.6,0.8,1.1s0.3,0.9,0.3,1.5
		c0,0.4,0,0.8-0.1,1.1s-0.2,0.6-0.4,0.9s-0.4,0.5-0.6,0.7s-0.5,0.4-0.8,0.5l2.4,4.7v0.1h-2.4L950.5,334z M948.8,332.3h1.6
		c0.6,0,1.1-0.2,1.4-0.5s0.5-0.7,0.5-1.3c0-0.6-0.2-1-0.5-1.3s-0.8-0.5-1.5-0.5h-1.6L948.8,332.3L948.8,332.3z"/>
	<path class="st0" d="M961.8,335.9h-3.4l-0.7,2.4h-2.3l3.7-11.4h2l3.7,11.4h-2.3L961.8,335.9z M959,334.1h2.4l-1.2-4.2L959,334.1z"
		/>
	<path class="st0" d="M968.2,336.5h5.3v1.8H966v-11.4h2.2V336.5z"/>
	<path class="st0" d="M985,338.3v-11.4h3.8c0.6,0,1.2,0.1,1.7,0.2s0.9,0.3,1.3,0.6s0.6,0.6,0.8,1s0.3,0.9,0.3,1.4s-0.1,1-0.4,1.4
		s-0.7,0.7-1.2,1c0.3,0.1,0.6,0.2,0.9,0.4s0.4,0.4,0.6,0.6s0.3,0.5,0.4,0.7s0.1,0.5,0.1,0.8c0,0.5-0.1,1-0.3,1.4s-0.5,0.8-0.8,1
		s-0.8,0.5-1.3,0.6s-1.1,0.2-1.7,0.2L985,338.3L985,338.3z M987.2,331.7h1.6c0.6,0,1.1-0.1,1.4-0.4s0.5-0.6,0.5-1.1
		s-0.2-0.9-0.5-1.1s-0.8-0.4-1.4-0.4h-1.6V331.7z M987.2,333.3v3.2h2c0.6,0,1.1-0.2,1.4-0.4s0.5-0.7,0.5-1.1c0-0.5-0.1-0.9-0.4-1.2
		s-0.7-0.4-1.3-0.4h-2.2V333.3z"/>
	<path class="st0" d="M997,336.5h5.3v1.8h-7.5v-11.4h2.2V336.5z"/>
	<path class="st0" d="M1009.8,335.9h-3.4l-0.7,2.4h-2.3l3.7-11.4h2l3.7,11.4h-2.3L1009.8,335.9z M1007,334.1h2.4l-1.2-4.2
		L1007,334.1z"/>
	<path class="st0" d="M1021.7,334.7c0,0.6-0.2,1.1-0.4,1.5s-0.5,0.8-0.8,1.2s-0.8,0.6-1.3,0.7s-1,0.3-1.6,0.3
		c-0.7,0-1.3-0.1-1.8-0.4s-1-0.6-1.3-1s-0.6-1-0.8-1.6s-0.3-1.3-0.3-2.1v-1.5c0-0.8,0.1-1.4,0.3-2.1s0.5-1.2,0.8-1.6s0.8-0.8,1.3-1
		s1.1-0.4,1.7-0.4c0.6,0,1.2,0.1,1.7,0.3s0.9,0.4,1.2,0.8s0.6,0.7,0.8,1.2s0.3,1,0.4,1.6h-2.2c0-0.3-0.1-0.6-0.2-0.9
		s-0.2-0.5-0.4-0.6s-0.3-0.3-0.6-0.4s-0.5-0.1-0.8-0.1s-0.6,0.1-0.9,0.2s-0.5,0.4-0.6,0.6s-0.3,0.6-0.4,1s-0.1,0.9-0.1,1.4v1.5
		c0,1.1,0.2,1.9,0.5,2.5s0.8,0.8,1.5,0.8c0.6,0,1-0.2,1.4-0.5s0.5-0.8,0.6-1.5h2.3V334.7z"/>
	<path class="st0" d="M1026.8,333.6l-1.2,1.3v3.4h-2.2v-11.4h2.2v5.2l1-1.4l2.8-3.8h2.7l-3.8,5l4,6.3h-2.6L1026.8,333.6z"/>
</g>
<g class="st1">
	<path class="st0" d="M913.6,357.6h-2.2v-8.7l-2.9,1V348l5-1.8h0.1L913.6,357.6L913.6,357.6z"/>
	<path class="st0" d="M925.3,353.3c0,0.7-0.1,1.4-0.3,1.9s-0.4,1-0.7,1.4s-0.7,0.7-1.2,0.9s-1,0.3-1.5,0.3c-0.6,0-1.1-0.1-1.5-0.3
		s-0.8-0.5-1.2-0.9s-0.6-0.8-0.7-1.4s-0.3-1.2-0.3-1.9v-2.7c0-0.7,0.1-1.4,0.3-1.9s0.4-1,0.7-1.4s0.7-0.7,1.2-0.9s1-0.3,1.5-0.3
		c0.6,0,1.1,0.1,1.5,0.3s0.8,0.5,1.2,0.9s0.6,0.8,0.7,1.4s0.3,1.2,0.3,1.9V353.3z M920.1,352.4l3-2.3c0-0.8-0.1-1.3-0.4-1.7
		s-0.6-0.6-1.1-0.6s-0.9,0.2-1.1,0.6s-0.4,1-0.4,1.8V352.4z M923.1,351.6l-3,2.2c0,0.8,0.2,1.3,0.4,1.7s0.6,0.5,1.1,0.5
		s0.9-0.2,1.1-0.6s0.4-1,0.4-1.8V351.6z"/>
	<path class="st0" d="M934.9,353.3c0,0.7-0.1,1.4-0.3,1.9s-0.4,1-0.7,1.4s-0.7,0.7-1.2,0.9s-1,0.3-1.5,0.3c-0.6,0-1.1-0.1-1.5-0.3
		s-0.8-0.5-1.2-0.9s-0.6-0.8-0.7-1.4s-0.3-1.2-0.3-1.9v-2.7c0-0.7,0.1-1.4,0.3-1.9s0.4-1,0.7-1.4s0.7-0.7,1.2-0.9s1-0.3,1.5-0.3
		c0.6,0,1.1,0.1,1.5,0.3s0.8,0.5,1.2,0.9s0.6,0.8,0.7,1.4s0.3,1.2,0.3,1.9V353.3z M929.7,352.4l3-2.3c0-0.8-0.1-1.3-0.4-1.7
		s-0.6-0.6-1.1-0.6s-0.9,0.2-1.1,0.6s-0.4,1-0.4,1.8V352.4z M932.7,351.6l-3,2.2c0,0.8,0.2,1.3,0.4,1.7s0.6,0.5,1.1,0.5
		s0.9-0.2,1.1-0.6s0.4-1,0.4-1.8V351.6z"/>
	<path class="st0" d="M939.3,356.4c0-0.2,0-0.4,0.1-0.6s0.2-0.3,0.3-0.5s0.3-0.2,0.5-0.3s0.4-0.1,0.6-0.1s0.4,0,0.6,0.1
		s0.3,0.2,0.5,0.3s0.2,0.3,0.3,0.5s0.1,0.4,0.1,0.6s0,0.4-0.1,0.6s-0.2,0.3-0.3,0.4s-0.3,0.2-0.5,0.3s-0.4,0.1-0.6,0.1
		s-0.4,0-0.6-0.1s-0.3-0.2-0.5-0.3s-0.2-0.3-0.3-0.4S939.3,356.6,939.3,356.4z"/>
	<path class="st0" d="M963.7,347.5l-4.4,10.2H957l4.4-9.6h-5.7v-1.8h8V347.5z"/>
	<path class="st0" d="M966,352l0.6-5.8h6.3v1.8h-4.5l-0.3,2.5c0.2-0.1,0.4-0.2,0.7-0.3s0.6-0.1,1-0.1c0.5,0,1,0.1,1.5,0.3
		s0.8,0.4,1.1,0.8s0.5,0.7,0.7,1.2s0.2,1,0.2,1.6c0,0.5-0.1,1-0.2,1.5s-0.4,0.9-0.7,1.2s-0.7,0.6-1.2,0.8s-1,0.3-1.7,0.3
		c-0.5,0-1-0.1-1.4-0.2s-0.9-0.4-1.2-0.6s-0.6-0.6-0.9-1s-0.3-0.9-0.4-1.4h2.1c0.1,0.5,0.2,0.9,0.5,1.1s0.7,0.4,1.2,0.4
		c0.3,0,0.5-0.1,0.7-0.2s0.4-0.3,0.5-0.5s0.2-0.4,0.3-0.7s0.1-0.6,0.1-0.9s0-0.6-0.1-0.8s-0.2-0.5-0.3-0.7s-0.4-0.3-0.6-0.4
		s-0.5-0.1-0.8-0.1c-0.2,0-0.4,0-0.6,0.1s-0.3,0.1-0.4,0.1s-0.2,0.1-0.3,0.2s-0.2,0.2-0.3,0.2L966,352z"/>
	<path class="st0" d="M977.7,356.4c0-0.2,0-0.4,0.1-0.6s0.2-0.3,0.3-0.5s0.3-0.2,0.5-0.3s0.4-0.1,0.6-0.1s0.4,0,0.6,0.1
		s0.3,0.2,0.5,0.3s0.2,0.3,0.3,0.5s0.1,0.4,0.1,0.6s0,0.4-0.1,0.6s-0.2,0.3-0.3,0.4s-0.3,0.2-0.5,0.3s-0.4,0.1-0.6,0.1
		s-0.4,0-0.6-0.1s-0.3-0.2-0.5-0.3s-0.2-0.3-0.3-0.4S977.7,356.6,977.7,356.4z"/>
	<path class="st0" d="M1002.2,347.5l-4.4,10.2h-2.3l4.4-9.6h-5.7v-1.8h8V347.5z"/>
	<path class="st0" d="M1004.4,352l0.6-5.8h6.3v1.8h-4.5l-0.3,2.5c0.2-0.1,0.4-0.2,0.7-0.3s0.6-0.1,1-0.1c0.5,0,1,0.1,1.5,0.3
		s0.8,0.4,1.1,0.8s0.5,0.7,0.7,1.2s0.2,1,0.2,1.6c0,0.5-0.1,1-0.2,1.5s-0.4,0.9-0.7,1.2s-0.7,0.6-1.2,0.8s-1,0.3-1.7,0.3
		c-0.5,0-1-0.1-1.4-0.2s-0.9-0.4-1.2-0.6s-0.6-0.6-0.9-1s-0.3-0.9-0.4-1.4h2.1c0.1,0.5,0.2,0.9,0.5,1.1s0.7,0.4,1.2,0.4
		c0.3,0,0.5-0.1,0.7-0.2s0.4-0.3,0.5-0.5s0.2-0.4,0.3-0.7s0.1-0.6,0.1-0.9s0-0.6-0.1-0.8s-0.2-0.5-0.3-0.7s-0.4-0.3-0.6-0.4
		s-0.5-0.1-0.8-0.1c-0.2,0-0.4,0-0.6,0.1s-0.3,0.1-0.4,0.1s-0.2,0.1-0.3,0.2s-0.2,0.2-0.3,0.2L1004.4,352z"/>
	<path class="st0" d="M1016.1,356.4c0-0.2,0-0.4,0.1-0.6s0.2-0.3,0.3-0.5s0.3-0.2,0.5-0.3s0.4-0.1,0.6-0.1s0.4,0,0.6,0.1
		s0.3,0.2,0.5,0.3s0.2,0.3,0.3,0.5s0.1,0.4,0.1,0.6s0,0.4-0.1,0.6s-0.2,0.3-0.3,0.4s-0.3,0.2-0.5,0.3s-0.4,0.1-0.6,0.1
		s-0.4,0-0.6-0.1s-0.3-0.2-0.5-0.3s-0.2-0.3-0.3-0.4S1016.1,356.6,1016.1,356.4z"/>
	<path class="st0" d="M1040.6,347.5l-4.4,10.2h-2.3l4.4-9.6h-5.7v-1.8h8V347.5z"/>
	<path class="st0" d="M1042.8,352l0.6-5.8h6.3v1.8h-4.5l-0.3,2.5c0.2-0.1,0.4-0.2,0.7-0.3s0.6-0.1,1-0.1c0.5,0,1,0.1,1.5,0.3
		s0.8,0.4,1.1,0.8s0.5,0.7,0.7,1.2s0.2,1,0.2,1.6c0,0.5-0.1,1-0.2,1.5s-0.4,0.9-0.7,1.2s-0.7,0.6-1.2,0.8s-1,0.3-1.7,0.3
		c-0.5,0-1-0.1-1.4-0.2s-0.9-0.4-1.2-0.6s-0.6-0.6-0.9-1s-0.3-0.9-0.4-1.4h2.1c0.1,0.5,0.2,0.9,0.5,1.1s0.7,0.4,1.2,0.4
		c0.3,0,0.5-0.1,0.7-0.2s0.4-0.3,0.5-0.5s0.2-0.4,0.3-0.7s0.1-0.6,0.1-0.9s0-0.6-0.1-0.8s-0.2-0.5-0.3-0.7s-0.4-0.3-0.6-0.4
		s-0.5-0.1-0.8-0.1c-0.2,0-0.4,0-0.6,0.1s-0.3,0.1-0.4,0.1s-0.2,0.1-0.3,0.2s-0.2,0.2-0.3,0.2L1042.8,352z"/>
</g>
<g class="st1">
	<path class="st0" d="M908.4,371.2l0.6-5.8h6.3v1.8h-4.5l-0.3,2.5c0.2-0.1,0.4-0.2,0.7-0.3s0.6-0.1,1-0.1c0.5,0,1,0.1,1.5,0.3
		s0.8,0.4,1.1,0.8s0.5,0.7,0.7,1.2s0.2,1,0.2,1.6c0,0.5-0.1,1-0.2,1.5s-0.4,0.9-0.7,1.2s-0.7,0.6-1.2,0.8s-1,0.3-1.7,0.3
		c-0.5,0-1-0.1-1.4-0.2s-0.9-0.4-1.2-0.6s-0.6-0.6-0.9-1s-0.3-0.9-0.4-1.4h2.1c0.1,0.5,0.2,0.9,0.5,1.1s0.7,0.4,1.2,0.4
		c0.3,0,0.5-0.1,0.7-0.2s0.4-0.3,0.5-0.5s0.2-0.4,0.3-0.7s0.1-0.6,0.1-0.9s0-0.6-0.1-0.8s-0.2-0.5-0.3-0.7s-0.4-0.3-0.6-0.4
		s-0.5-0.1-0.8-0.1c-0.2,0-0.4,0-0.6,0.1s-0.3,0.1-0.4,0.1s-0.2,0.1-0.3,0.2s-0.2,0.2-0.3,0.2L908.4,371.2z"/>
	<path class="st0" d="M920.1,375.6c0-0.2,0-0.4,0.1-0.6s0.2-0.3,0.3-0.5s0.3-0.2,0.5-0.3s0.4-0.1,0.6-0.1s0.4,0,0.6,0.1
		s0.3,0.2,0.5,0.3s0.2,0.3,0.3,0.5s0.1,0.4,0.1,0.6s0,0.4-0.1,0.6s-0.2,0.3-0.3,0.4s-0.3,0.2-0.5,0.3s-0.4,0.1-0.6,0.1
		s-0.4,0-0.6-0.1s-0.3-0.2-0.5-0.3s-0.2-0.3-0.3-0.4S920.1,375.8,920.1,375.6z"/>
	<path class="st0" d="M944.5,376.8h-7.8v-1.5l3.7-4c0.3-0.3,0.5-0.6,0.7-0.9s0.4-0.5,0.5-0.7s0.2-0.4,0.3-0.6s0.1-0.4,0.1-0.5
		c0-0.3,0-0.5-0.1-0.7s-0.2-0.4-0.3-0.5s-0.3-0.2-0.5-0.3s-0.4-0.1-0.6-0.1c-0.6,0-1,0.2-1.3,0.5s-0.4,0.8-0.4,1.4h-2.2
		c0-0.5,0.1-1,0.3-1.4s0.5-0.8,0.8-1.2s0.8-0.6,1.3-0.8s1-0.3,1.7-0.3c0.6,0,1.1,0.1,1.5,0.2s0.8,0.4,1.1,0.7s0.5,0.6,0.7,1.1
		s0.2,0.9,0.2,1.4c0,0.4-0.1,0.7-0.2,1.1s-0.3,0.7-0.5,1s-0.5,0.7-0.8,1s-0.6,0.7-1,1.1l-2.1,2.3h5v1.7H944.5z"/>
	<path class="st0" d="M953.9,368.5c0,0.6-0.1,1-0.4,1.5s-0.7,0.8-1.1,1c0.6,0.3,1,0.6,1.3,1.1s0.5,1,0.5,1.6c0,0.5-0.1,1-0.3,1.4
		s-0.5,0.7-0.8,1s-0.7,0.5-1.2,0.6s-1,0.2-1.5,0.2s-1-0.1-1.5-0.2s-0.9-0.3-1.2-0.6s-0.6-0.6-0.8-1s-0.3-0.9-0.3-1.4
		c0-0.3,0-0.6,0.1-0.9s0.2-0.5,0.4-0.8s0.3-0.4,0.6-0.6s0.5-0.3,0.7-0.5c-0.5-0.2-0.9-0.6-1.1-1s-0.4-0.9-0.4-1.5
		c0-0.5,0.1-1,0.3-1.4s0.4-0.7,0.7-1s0.7-0.5,1.1-0.6s0.9-0.2,1.4-0.2s1,0.1,1.4,0.2s0.8,0.3,1.1,0.6s0.6,0.6,0.8,1
		S953.9,368,953.9,368.5z M951.9,373.6c0-0.3,0-0.5-0.1-0.7s-0.2-0.4-0.3-0.5s-0.3-0.3-0.5-0.3s-0.4-0.1-0.7-0.1s-0.5,0-0.7,0.1
		s-0.4,0.2-0.5,0.3s-0.2,0.3-0.3,0.5s-0.1,0.4-0.1,0.7c0,0.5,0.1,0.9,0.4,1.2s0.7,0.4,1.2,0.4c0.2,0,0.5,0,0.7-0.1s0.4-0.2,0.5-0.3
		s0.3-0.3,0.3-0.5S951.9,373.9,951.9,373.6z M951.7,368.6c0-0.2,0-0.4-0.1-0.6s-0.2-0.3-0.3-0.5s-0.3-0.2-0.4-0.3s-0.4-0.1-0.6-0.1
		c-0.4,0-0.8,0.1-1,0.4s-0.4,0.6-0.4,1.1c0,0.2,0,0.4,0.1,0.6s0.2,0.4,0.3,0.5s0.3,0.2,0.4,0.3s0.4,0.1,0.6,0.1s0.4,0,0.6-0.1
		s0.3-0.2,0.4-0.3s0.2-0.3,0.3-0.5S951.7,368.8,951.7,368.6z"/>
	<path class="st0" d="M958.5,375.6c0-0.2,0-0.4,0.1-0.6s0.2-0.3,0.3-0.5s0.3-0.2,0.5-0.3s0.4-0.1,0.6-0.1s0.4,0,0.6,0.1
		s0.3,0.2,0.5,0.3s0.2,0.3,0.3,0.5s0.1,0.4,0.1,0.6s0,0.4-0.1,0.6s-0.2,0.3-0.3,0.4s-0.3,0.2-0.5,0.3s-0.4,0.1-0.6,0.1
		s-0.4,0-0.6-0.1s-0.3-0.2-0.5-0.3s-0.2-0.3-0.3-0.4S958.5,375.8,958.5,375.6z"/>
	<path class="st0" d="M983,376.8h-7.8v-1.5l3.7-4c0.3-0.3,0.5-0.6,0.7-0.9s0.4-0.5,0.5-0.7s0.2-0.4,0.3-0.6s0.1-0.4,0.1-0.5
		c0-0.3,0-0.5-0.1-0.7s-0.2-0.4-0.3-0.5s-0.3-0.2-0.5-0.3s-0.4-0.1-0.6-0.1c-0.6,0-1,0.2-1.3,0.5s-0.4,0.8-0.4,1.4H975
		c0-0.5,0.1-1,0.3-1.4s0.5-0.8,0.8-1.2s0.8-0.6,1.3-0.8s1-0.3,1.7-0.3c0.6,0,1.1,0.1,1.5,0.2s0.8,0.4,1.1,0.7s0.5,0.6,0.7,1.1
		s0.2,0.9,0.2,1.4c0,0.4-0.1,0.7-0.2,1.1s-0.3,0.7-0.5,1s-0.5,0.7-0.8,1s-0.6,0.7-1,1.1l-2.1,2.3h5V376.8z"/>
	<path class="st0" d="M990.9,365.4v1.8h-0.1c-0.6,0-1.1,0.1-1.5,0.2s-0.8,0.4-1.1,0.6s-0.6,0.6-0.7,1s-0.3,0.8-0.3,1.3
		c0.1-0.1,0.3-0.3,0.4-0.4s0.3-0.2,0.5-0.3s0.4-0.2,0.6-0.2s0.5-0.1,0.7-0.1c0.5,0,1,0.1,1.4,0.3s0.7,0.5,1,0.8s0.5,0.8,0.6,1.2
		s0.2,1,0.2,1.5c0,0.6-0.1,1.1-0.3,1.5s-0.4,0.9-0.8,1.2s-0.7,0.6-1.2,0.8s-1,0.3-1.6,0.3s-1.2-0.1-1.6-0.3s-0.9-0.5-1.2-0.9
		s-0.6-0.9-0.8-1.4s-0.3-1.1-0.3-1.8v-0.8c0-0.9,0.1-1.7,0.4-2.5s0.6-1.4,1.1-2s1.1-1,1.8-1.3s1.6-0.5,2.5-0.5L990.9,365.4
		L990.9,365.4z M988.7,371c-0.4,0-0.7,0.1-1,0.3s-0.5,0.5-0.7,0.8v0.6c0,0.4,0,0.8,0.1,1.1s0.2,0.6,0.4,0.8s0.3,0.4,0.6,0.5
		s0.4,0.2,0.7,0.2s0.5-0.1,0.7-0.2s0.4-0.3,0.5-0.4s0.3-0.4,0.3-0.7s0.1-0.5,0.1-0.8s0-0.6-0.1-0.9s-0.2-0.5-0.3-0.7
		s-0.3-0.3-0.5-0.4S989,371,988.7,371z"/>
</g>
<g class="st1">
	<path class="st0" d="M915.7,391.6c0,0.7-0.1,1.4-0.3,1.9s-0.4,1-0.7,1.4s-0.7,0.7-1.2,0.9s-1,0.3-1.5,0.3c-0.6,0-1.1-0.1-1.5-0.3
		s-0.8-0.5-1.2-0.9s-0.6-0.8-0.7-1.4s-0.3-1.2-0.3-1.9v-2.7c0-0.7,0.1-1.4,0.3-1.9s0.4-1,0.7-1.4s0.7-0.7,1.2-0.9s1-0.3,1.5-0.3
		c0.6,0,1.1,0.1,1.5,0.3s0.8,0.5,1.2,0.9s0.6,0.8,0.7,1.4s0.3,1.2,0.3,1.9V391.6z M910.5,390.6l3-2.3c0-0.8-0.1-1.3-0.4-1.7
		s-0.6-0.6-1.1-0.6s-0.9,0.2-1.1,0.6s-0.4,1-0.4,1.8V390.6z M913.5,389.8l-3,2.2c0,0.8,0.2,1.3,0.4,1.7s0.6,0.5,1.1,0.5
		s0.9-0.2,1.1-0.6s0.4-1,0.4-1.8V389.8z"/>
	<path class="st0" d="M918,390.3l0.6-5.8h6.3v1.8h-4.5l-0.3,2.5c0.2-0.1,0.4-0.2,0.7-0.3s0.6-0.1,1-0.1c0.5,0,1,0.1,1.5,0.3
		s0.8,0.4,1.1,0.8s0.5,0.7,0.7,1.2s0.2,1,0.2,1.6c0,0.5-0.1,1-0.2,1.5s-0.4,0.9-0.7,1.2s-0.7,0.6-1.2,0.8s-1,0.3-1.7,0.3
		c-0.5,0-1-0.1-1.4-0.2s-0.9-0.4-1.2-0.6s-0.6-0.6-0.9-1s-0.3-0.9-0.4-1.4h2.1c0.1,0.5,0.2,0.9,0.5,1.1s0.7,0.4,1.2,0.4
		c0.3,0,0.5-0.1,0.7-0.2s0.4-0.3,0.5-0.5s0.2-0.4,0.3-0.7s0.1-0.6,0.1-0.9s0-0.6-0.1-0.8s-0.2-0.5-0.3-0.7s-0.4-0.3-0.6-0.4
		s-0.5-0.1-0.8-0.1c-0.2,0-0.4,0-0.6,0.1s-0.3,0.1-0.4,0.1s-0.2,0.1-0.3,0.2s-0.2,0.2-0.3,0.2L918,390.3z"/>
	<path class="st0" d="M932.8,395.9h-2.2v-8.7l-2.9,1v-1.9l5-1.8h0.1L932.8,395.9L932.8,395.9z"/>
	<path class="st0" d="M944.9,392.3c0,0.6-0.2,1.1-0.4,1.5s-0.5,0.8-0.8,1.2s-0.8,0.6-1.3,0.7s-1,0.3-1.6,0.3c-0.7,0-1.3-0.1-1.8-0.4
		s-1-0.6-1.3-1s-0.6-1-0.8-1.6s-0.3-1.3-0.3-2.1v-1.5c0-0.8,0.1-1.4,0.3-2.1s0.5-1.2,0.8-1.6s0.8-0.8,1.3-1s1.1-0.4,1.7-0.4
		c0.6,0,1.2,0.1,1.7,0.3s0.9,0.4,1.2,0.8s0.6,0.7,0.8,1.2s0.3,1,0.4,1.6h-2.2c0-0.3-0.1-0.6-0.2-0.9s-0.2-0.5-0.4-0.6
		s-0.3-0.3-0.6-0.4s-0.5-0.1-0.8-0.1s-0.6,0.1-0.9,0.2s-0.5,0.4-0.6,0.6s-0.3,0.6-0.4,1s-0.1,0.9-0.1,1.4v1.5c0,1.1,0.2,1.9,0.5,2.5
		s0.8,0.8,1.5,0.8c0.6,0,1-0.2,1.4-0.5s0.5-0.8,0.6-1.5h2.3V392.3z"/>
	<path class="st0" d="M952,395.9h-2.2v-8.7l-2.9,1v-1.9l5-1.8h0.1L952,395.9L952,395.9z"/>
	<path class="st0" d="M961.8,393.5h-3.4l-0.7,2.4h-2.3l3.7-11.4h2l3.7,11.4h-2.3L961.8,393.5z M959,391.7h2.4l-1.2-4.2L959,391.7z"
		/>
</g>
<rect class="st2" width="210.7" height="105.3"/>
<rect x="825.3" class="st0" width="210.7" height="105.3"/>
<rect x="412.7" class="st3" width="210.7" height="105.3"/>
<rect y="105.3" class="st4" width="210.7" height="52.7"/>
<rect x="825.3" y="105.3" class="st5" width="210.7" height="52.7"/>
<rect x="412.7" y="105.3" class="st6" width="210.7" height="52.7"/>
<rect y="158" class="st7" width="210.7" height="52.7"/>
<rect x="825.3" y="158" class="st8" width="210.7" height="52.7"/>
<rect x="412.7" y="158" class="st9" width="210.7" height="52.7"/>
</svg>
