<?xml version="1.0" encoding="utf-8"?>
<!-- Generator: Adobe Illustrator 26.0.1, SVG Export Plug-In . SVG Version: 6.00 Build 0)  -->
<svg version="1.1" id="Layer_1" xmlns="http://www.w3.org/2000/svg" xmlns:xlink="http://www.w3.org/1999/xlink" x="0px" y="0px"
	 viewBox="0 0 1046.5 261.5" style="enable-background:new 0 0 1046.5 261.5;" xml:space="preserve">
<style type="text/css">
	.st0{fill:#EF7A64;}
</style>
<g>
	<path d="M75.8,78.9v21.3h-7.3v-47h7.3v19.1h15.1V53.3H98v47h-7.1V78.9H75.8z"/>
	<path d="M113.3,53.3h24.6v6.4h-17.3v13.3h14.6v6h-14.6v14.9h17.7v6.4h-24.9V53.3z"/>
	<path d="M161,53.3h6.9l14.7,47H175l-3.5-11.6h-14.7l-3.3,11.6h-7.1L161,53.3z M170.1,83.3l-5.8-20l-5.8,20H170.1z"/>
	<path d="M193.2,53.3h14c9.6,0,15.5,5.6,15.5,16V84c0,10.4-6,16.2-15.7,16.2h-13.8V53.3z M207,93.8c5.6,0,8.6-3.5,8.6-9.6V69.5
		c0-6.2-3.1-9.6-8.6-9.6h-6.6V94h6.6V93.8z"/>
	<path d="M245.2,53.3v47h-7.5v-47H245.2z"/>
	<path d="M260.9,53.3h7.1l16.6,33.1V53.3h6.6v47h-6.7l-16.9-33.9v33.9h-6.6L260.9,53.3L260.9,53.3z"/>
	<path d="M305.6,85.5V68c0-9.6,6.2-15.5,15.3-15.5s14.9,5.6,14.9,15.3v0.9h-7.1V68c0-5.6-2.9-8.9-7.8-8.9s-7.8,3.3-7.8,8.9v17.3
		c0,6,3.1,9.3,8,9.3c5.1,0,8-3.3,8-9.3v-4.4h-7.8v-5.3H336v9.8c0,9.6-6.2,15.5-15.1,15.5C311.7,100.9,305.6,95.1,305.6,85.5z"/>
	<path d="M371.5,85.5V68c0-9.6,6.2-15.5,15.3-15.5c9.1,0,14.9,5.6,14.9,15.3v17.5c0,9.6-6.2,15.5-15.1,15.5
		C377.5,100.9,371.5,95.1,371.5,85.5z M394.5,85.5V68c0-5.6-2.9-8.9-7.8-8.9c-4.9,0-7.8,3.3-7.8,8.9v17.5c0,5.6,2.9,8.9,7.8,8.9
		C391.6,94.4,394.5,91.1,394.5,85.5z"/>
	<path d="M416.3,53.3H430c9.3,0,15.5,6.2,15.5,14.4c0,5.6-3.1,10.4-8.2,12.6l9.1,20h-8.2l-7.6-18h-7.1v18h-7.3v-47H416.3z
		 M429.4,76.6c5.5,0,8.9-3.8,8.9-8.6c0-4.9-3.5-8.6-8.9-8.6h-5.8v17.1H429.4z"/>
	<path d="M495.5,100.2h-7.3V59.8h-10.7v-6.6H506v6.6h-10.6V100.2z"/>
	<path d="M525.9,53.3v47h-7.5v-47H525.9z"/>
	<path d="M556.1,100.2h-7.3V59.8h-10.7v-6.6h28.6v6.6h-10.6L556.1,100.2L556.1,100.2z"/>
	<path d="M578.6,53.3h7.3v40.4h16.2v6.6h-23.5V53.3z"/>
	<path d="M614,53.3h24.6v6.4h-17.3v13.3h14.6v6h-14.6v14.9h17.7v6.4h-24.8v-47H614z"/>
	<path d="M680.4,100.2h-7.3v-47h24.2v6.4h-16.9v15.5h14.2v6.2h-14.2V100.2z"/>
	<path d="M709,85.5V68c0-9.6,6.2-15.5,15.3-15.5c9.1,0,14.9,5.6,14.9,15.3v17.5c0,9.6-6.2,15.5-15.1,15.5
		C715,100.9,709,95.1,709,85.5z M731.9,85.5V68c0-5.6-2.9-8.9-7.8-8.9c-4.9,0-7.8,3.3-7.8,8.9v17.5c0,5.6,2.9,8.9,7.8,8.9
		C729,94.4,731.9,91.1,731.9,85.5z"/>
	<path d="M753.7,53.3h7.1l16.6,33.1V53.3h6.6v47h-6.6l-16.9-33.9v33.9h-6.6v-47H753.7z"/>
	<path d="M813.8,100.2h-7.3V59.8h-10.7v-6.6h28.6v6.6h-10.6L813.8,100.2L813.8,100.2z"/>
</g>
<g>
	<path d="M67.4,119.1v18h-1.1v-18H67.4z"/>
	<path d="M74.3,119.1h1.1l8.6,16.2v-16.2h0.9v18H84L75.4,121v16.2h-0.9v-18H74.3z"/>
	<path d="M99.6,132.1v-12.7h0.9v12.7c0,2.9,1.5,4.7,4.2,4.7c2.7,0,4.2-1.8,4.2-4.7v-12.7h1.1v12.7c0,3.5-2,5.6-5.3,5.6
		C101.4,137.5,99.6,135.5,99.6,132.1z"/>
	<path d="M116.7,119.1h1.1l8.6,16.2v-16.2h0.9v18h-0.9l-8.6-16.2v16.2h-0.9v-18H116.7z"/>
	<path d="M135.5,119.1v18h-1.1v-18H135.5z"/>
	<path d="M143.5,137.3h-1.1v-18h8.6v0.9h-7.5v8.2h6.4v0.9h-6.4V137.3z"/>
	<path d="M156.2,131.9v-7.3c0-3.6,2-5.6,5.3-5.6s5.3,2,5.3,5.6v7.3c0,3.6-2,5.6-5.3,5.6S156.2,135.5,156.2,131.9z M165.9,131.7v-6.9
		c0-3.1-1.6-4.9-4.2-4.9c-2.5,0-4.2,1.8-4.2,4.9v6.9c0,3.1,1.5,4.9,4.2,4.9C164.4,136.6,165.9,134.8,165.9,131.7z"/>
	<path d="M173.5,119.1h4.4c3.6,0,5.8,2.4,5.8,5.3c0,2.2-1.5,4.2-3.8,4.9l4.2,8h-1.3l-4-7.6h-4.4v7.6h-1.1v-18.2H173.5z M177.9,128.8
		c2.9,0,4.7-2,4.7-4.4s-1.8-4.4-4.7-4.4h-3.5v8.7H177.9z"/>
	<path d="M190.1,119.1h1.1l5.6,13.3l5.6-13.3h1.1v18h-1.1v-15.8l-5.5,12.7h-0.5l-5.5-12.7v15.8h-1.1v-18H190.1z"/>
	<path d="M218.1,119.1h4.2c3.6,0,6,2.4,6,5.3s-2.4,5.5-6,5.5h-3.1v7.3h-1.1C218.1,137.2,218.1,119.1,218.1,119.1z M222.5,129
		c2.9,0,4.9-1.8,4.9-4.4s-2-4.6-4.9-4.6h-3.3v8.9H222.5z"/>
	<path d="M233.9,119.1h4.4c3.6,0,5.8,2.4,5.8,5.3c0,2.2-1.5,4.2-3.8,4.9l4.2,8h-1.3l-4-7.6h-4.4v7.6h-1.1v-18.2H233.9z M238.3,128.8
		c2.9,0,4.7-2,4.7-4.4s-1.8-4.4-4.7-4.4h-3.5v8.7H238.3z"/>
	<path d="M250.1,131.9v-7.3c0-3.6,2-5.6,5.3-5.6s5.3,2,5.3,5.6v7.3c0,3.6-2,5.6-5.3,5.6S250.1,135.5,250.1,131.9z M259.8,131.7v-6.9
		c0-3.1-1.6-4.9-4.2-4.9s-4.2,1.8-4.2,4.9v6.9c0,3.1,1.5,4.9,4.2,4.9S259.8,134.8,259.8,131.7z"/>
	<path d="M274.9,132.1v-7.5c0-3.5,2-5.6,5.3-5.6c3.3,0,5.1,2,5.1,5.5v0.5h-0.9v-0.4c0-2.9-1.5-4.7-4.2-4.7c-2.7,0-4.2,1.8-4.2,4.7
		v7.3c0,2.9,1.5,4.7,4.2,4.7c2.5,0,4.2-1.8,4.2-4.7v-0.7h0.9v0.7c0,3.5-2,5.6-5.1,5.6C276.9,137.5,274.9,135.5,274.9,132.1z"/>
	<path d="M291.6,131.9v-7.3c0-3.6,2-5.6,5.3-5.6c3.3,0,5.3,2,5.3,5.6v7.3c0,3.6-2,5.6-5.3,5.6C293.6,137.5,291.6,135.5,291.6,131.9z
		 M301.1,131.7v-6.9c0-3.1-1.6-4.9-4.2-4.9c-2.5,0-4.2,1.8-4.2,4.9v6.9c0,3.1,1.5,4.9,4.2,4.9C299.6,136.6,301.1,134.8,301.1,131.7z
		"/>
	<path d="M308.9,119.1h1.1l8.6,16.2v-16.2h0.9v18h-0.9L310,121v16.2h-0.9v-18H308.9z"/>
	<path d="M326.4,119.1h4.7c3.6,0,5.5,2.2,5.5,6v6c0,3.8-2,6-5.6,6h-4.7v-18H326.4z M331.1,136.4c2.9,0,4.5-1.8,4.5-5.1v-6
		c0-3.3-1.6-5.1-4.5-5.1h-3.8v16.2C327.3,136.4,331.1,136.4,331.1,136.4z"/>
	<path d="M343.3,119.1h8.7v0.9h-7.6v7.3h6.6v0.9h-6.6v8.2h7.8v0.9h-8.7v-18.2H343.3z"/>
	<path d="M357.9,119.1h1.1l8.6,16.2v-16.2h0.9v18h-0.9L359,121v16.2h-0.9v-18H357.9z"/>
	<path d="M379.2,128.2c-2.5-1.5-4.2-3.3-4.2-5.3c0-2.5,1.8-4.2,4.4-4.2c3.8,0,4.9,3.5,4.9,3.5l-0.9,0.4c0,0-0.9-2.9-3.8-2.9
		c-2.2,0-3.5,1.3-3.5,2.9c0,2,1.5,3.3,3.8,4.6c2.5,1.5,4.2,3.1,4.2,5.5c0,2.9-2,4.6-4.7,4.6c-4.2,0-5.3-4.2-5.3-4.2l0.9-0.4
		c0,0,1.1,3.5,4.2,3.5c2.2,0,3.6-1.5,3.6-3.5C383,131,381.7,129.7,379.2,128.2z"/>
	<path d="M390.3,119.1h8.7v0.9h-7.6v7.3h6.6v0.9h-6.6v8.2h7.8v0.9h-8.7v-18.2H390.3z"/>
	<path d="M404.7,119.1h4.7c3.6,0,5.5,2.2,5.5,6v6c0,3.8-2,6-5.6,6h-4.7v-18H404.7z M409.4,136.4c2.9,0,4.6-1.8,4.6-5.1v-6
		c0-3.3-1.6-5.1-4.6-5.1h-3.8v16.2C405.6,136.4,409.4,136.4,409.4,136.4z"/>
	<path d="M435.2,139.2l-0.5,0.7c0,0-6-3.1-6-11.6c0-8.4,6-11.6,6-11.6l0.5,0.7c0,0-5.5,3.3-5.5,10.9S435.2,139.2,435.2,139.2z"/>
	<path d="M440.7,132.1v-7.5c0-3.5,2-5.6,5.3-5.6c3.3,0,5.1,2,5.1,5.5v0.5H450v-0.4c0-2.9-1.5-4.7-4.2-4.7c-2.7,0-4.2,1.8-4.2,4.7
		v7.3c0,2.9,1.5,4.7,4.2,4.7c2.5,0,4.2-1.8,4.2-4.7v-0.7h0.9v0.7c0,3.5-2,5.6-5.1,5.6C442.5,137.5,440.7,135.5,440.7,132.1z"/>
	<path d="M461.4,119.1h1.1l5.8,18h-1.1l-1.8-5.6h-6.9l-1.8,5.6h-1.3L461.4,119.1z M465.1,130.8l-3.3-10l-3.3,10H465.1z"/>
	<path d="M473.1,119.1h4.2c3.6,0,6,2.4,6,5.3s-2.4,5.5-6,5.5h-3.1v7.3h-1.1L473.1,119.1L473.1,119.1z M477.5,129
		c2.9,0,4.9-1.8,4.9-4.4s-2-4.6-4.9-4.6h-3.3v8.9H477.5z"/>
	<path d="M490.2,119.1v18h-1.1v-18H490.2z"/>
	<path d="M501.5,137.3h-1.1v-17.1h-4.7v-0.9H506v0.9h-4.7v17.1H501.5z"/>
	<path d="M515.3,119.1h1.1l5.8,18h-1.1l-1.8-5.6h-6.9l-1.8,5.6h-1.1L515.3,119.1z M519.1,130.8l-3.3-10l-3.3,10H519.1z"/>
	<path d="M527.1,119.1h1.1v17.1h7.3v0.9h-8.2v-18H527.1z"/>
	<path d="M542.1,119.1v18H541v-18H542.1z"/>
	<path d="M553,128.2c-2.5-1.5-4.2-3.3-4.2-5.3c0-2.5,1.8-4.2,4.4-4.2c3.8,0,4.9,3.5,4.9,3.5l-0.9,0.4c0,0-0.9-2.9-3.8-2.9
		c-2.2,0-3.5,1.3-3.5,2.9c0,2,1.5,3.3,3.8,4.6c2.5,1.5,4.2,3.1,4.2,5.5c0,2.9-2,4.6-4.7,4.6c-4.2,0-5.3-4.2-5.3-4.2l0.9-0.4
		c0,0,1.1,3.5,4.2,3.5c2.2,0,3.6-1.5,3.6-3.5C556.8,131,555.4,129.7,553,128.2z"/>
	<path d="M564.1,119.1h8.7v0.9h-7.6v7.3h6.6v0.9h-6.6v8.2h7.8v0.9h-8.7v-18.2H564.1z"/>
	<path d="M578.5,119.1h4.7c3.6,0,5.5,2.2,5.5,6v6c0,3.8-2,6-5.6,6h-4.7v-18H578.5z M583.2,136.4c2.9,0,4.5-1.8,4.5-5.1v-6
		c0-3.3-1.6-5.1-4.5-5.1h-3.8v16.2C579.4,136.4,583.2,136.4,583.2,136.4z"/>
	<path d="M594.1,117.3l0.5-0.7c0,0,6,3.1,6,11.6c0,8.6-6,11.6-6,11.6l-0.5-0.7c0,0,5.6-3.3,5.6-10.9
		C599.8,120.6,594.1,117.3,594.1,117.3z"/>
</g>
<g>
	<path d="M73.4,207.6v-20l-6.2,2.4v-2.7l9.1-3.5h0.2v23.8H73.4z"/>
	<path d="M85.8,207.6v-2.2l7.8-8.7c0.7-0.7,1.3-1.5,1.8-2s0.9-1.1,1.1-1.6c0.4-0.5,0.5-0.9,0.5-1.5c0.2-0.5,0.2-0.9,0.2-1.5
		s0-1.1-0.4-1.6c-0.2-0.5-0.5-0.9-0.9-1.3c-0.4-0.4-0.7-0.7-1.3-0.9c-0.5-0.2-1.1-0.4-1.8-0.4c-0.7,0-1.5,0.2-2,0.4
		c-0.5,0.2-1.1,0.5-1.5,0.9c-0.4,0.4-0.7,0.9-0.9,1.5c-0.2,0.5-0.4,1.3-0.4,2h-3.1c0-0.9,0.2-2,0.5-2.9c0.4-0.9,0.9-1.6,1.5-2.4
		c0.7-0.7,1.5-1.3,2.4-1.6c0.9-0.4,2-0.5,3.3-0.5c1.1,0,2.2,0.2,3.1,0.5c0.9,0.4,1.6,0.7,2.2,1.5c0.5,0.5,1.1,1.3,1.5,2
		c0.4,0.7,0.5,1.6,0.5,2.7c0,0.7-0.2,1.5-0.4,2.2c-0.2,0.7-0.5,1.5-0.9,2c-0.4,0.7-0.9,1.3-1.5,2c-0.5,0.7-1.1,1.3-1.6,2l-6.4,6.9
		h12v2.5C101.3,207.6,85.8,207.6,85.8,207.6z"/>
	<path d="M112.7,204.1c0.4-0.5,0.9-0.7,1.8-0.7c0.7,0,1.5,0.2,1.8,0.7c0.4,0.5,0.5,1.1,0.5,1.6c0,0.7-0.2,1.1-0.5,1.6
		c-0.4,0.4-1.1,0.7-1.8,0.7c-0.7,0-1.5-0.2-1.8-0.7c-0.4-0.4-0.5-0.9-0.5-1.6C112.2,205,112.4,204.5,112.7,204.1z"/>
</g>
<g>
	<path d="M154.2,201.4c0-0.4,0-0.9-0.2-1.3c-0.2-0.4-0.4-0.7-0.7-1.1c-0.4-0.4-0.7-0.5-1.5-0.9c-0.5-0.2-1.3-0.5-2.2-0.7
		c-1.1-0.4-2-0.7-2.9-1.1c-0.9-0.4-1.8-0.9-2.5-1.5c-0.7-0.5-1.3-1.3-1.6-2.2c-0.4-0.7-0.7-1.6-0.7-2.7s0.2-2,0.7-2.7
		c0.4-0.7,1.1-1.5,1.8-2.2c0.7-0.5,1.6-1.1,2.7-1.3c1.1-0.4,2.2-0.5,3.3-0.5c1.3,0,2.4,0.2,3.5,0.5c1.1,0.4,1.8,0.9,2.7,1.5
		c0.7,0.7,1.3,1.5,1.8,2.4c0.4,0.9,0.5,1.8,0.5,2.9h-4.6c0-0.5-0.2-1.1-0.4-1.5c-0.2-0.4-0.4-0.7-0.7-1.1c-0.4-0.4-0.7-0.5-1.3-0.7
		c-0.5-0.2-1.1-0.2-1.8-0.2c-0.5,0-1.1,0-1.6,0.2c-0.5,0.2-0.9,0.4-1.3,0.5c-0.4,0.2-0.5,0.5-0.7,0.9s-0.2,0.7-0.2,1.1
		c0,0.5,0.2,0.9,0.4,1.3c0.2,0.4,0.5,0.7,0.9,0.9c0.4,0.4,0.9,0.5,1.5,0.7s1.3,0.5,2,0.7c1.1,0.4,2.2,0.7,3.1,1.1
		c0.9,0.4,1.6,0.9,2.4,1.6c0.7,0.5,1.1,1.3,1.5,2.2c0.4,0.9,0.5,1.6,0.5,2.7s-0.2,2-0.5,2.7c-0.4,0.7-1.1,1.5-1.8,2
		c-0.7,0.5-1.6,0.9-2.7,1.3c-1.1,0.4-2.2,0.4-3.3,0.4c-0.7,0-1.5,0-2.2-0.2c-0.7-0.2-1.5-0.4-2.2-0.5c-0.7-0.2-1.3-0.7-1.8-1.1
		s-1.1-0.9-1.5-1.5c-0.4-0.5-0.7-1.3-1.1-2c-0.2-0.7-0.4-1.5-0.4-2.4h4.6c0,0.7,0.2,1.3,0.4,1.8s0.5,0.9,0.9,1.3
		c0.4,0.4,0.9,0.5,1.5,0.7c0.5,0.2,1.3,0.2,1.8,0.2s1.1,0,1.6-0.2c0.5-0.2,0.9-0.4,1.3-0.5c0.4-0.2,0.5-0.5,0.7-0.9
		C154.2,202.3,154.2,202,154.2,201.4z"/>
	<path d="M170.6,185.6v4.4h6.6v3.3h-6.6v7.6c0,0.7,0,1.1,0.2,1.6c0.2,0.4,0.4,0.7,0.5,1.1c0.4,0.2,0.5,0.4,0.9,0.5s0.9,0.2,1.3,0.2
		c0.4,0,0.7,0,1.1,0c0.4,0,0.7,0,1.1-0.2c0.4-0.2,0.7-0.2,0.9-0.2c0.2,0,0.5-0.2,0.7-0.2l0.4,3.1c-0.4,0.2-0.7,0.4-1.1,0.5
		c-0.4,0.2-0.9,0.2-1.3,0.4c-0.5,0-0.9,0.2-1.5,0.2s-1.1,0-1.5,0c-0.9,0-1.8-0.2-2.7-0.4s-1.5-0.7-2-1.3c-0.5-0.5-0.9-1.3-1.3-2
		c-0.4-0.7-0.4-1.8-0.4-3.1v-8h-4v-3.3h4v-4.4C166.1,185.6,170.6,185.6,170.6,185.6z"/>
	<path d="M195,189.6c0.7,0,1.3,0,1.8,0.2c0.5,0,1.1,0.2,1.5,0.4l-0.7,4.6c-0.5-0.2-1.3-0.2-1.8-0.4c-0.5,0-1.3-0.2-1.8-0.2
		c-1.3,0-2.4,0.2-3.1,0.7c-0.7,0.5-1.3,1.3-1.6,2.2v10.6h-4.6v-17.7h4.2l0.2,2.9c0.7-0.9,1.6-1.8,2.5-2.4
		C192.8,189.9,193.9,189.6,195,189.6z"/>
	<path d="M201.7,198.7c0-1.3,0.2-2.5,0.5-3.6s0.9-2,1.6-2.9c0.7-0.7,1.6-1.5,2.5-1.8c1.1-0.5,2.2-0.7,3.5-0.7c1.3,0,2.5,0.2,3.6,0.7
		c1.1,0.4,1.8,1.1,2.5,1.8c0.7,0.7,1.3,1.8,1.6,2.9c0.4,1.1,0.5,2.4,0.5,3.6v0.4c0,1.3-0.2,2.5-0.5,3.6c-0.4,1.1-0.9,2-1.6,2.9
		c-0.7,0.9-1.6,1.5-2.5,1.8c-1.1,0.5-2.2,0.7-3.5,0.7c-1.3,0-2.5-0.2-3.6-0.7c-1.1-0.4-2-1.1-2.7-1.8c-0.7-0.7-1.3-1.8-1.6-2.9
		c-0.4-1.1-0.5-2.4-0.5-3.6v-0.4H201.7z M206.3,199c0,0.7,0,1.5,0.2,2.2s0.4,1.3,0.7,1.6c0.4,0.5,0.7,0.9,1.1,1.1
		c0.5,0.4,1.1,0.4,1.8,0.4c0.7,0,1.3-0.2,1.6-0.4c0.4-0.2,0.9-0.7,1.1-1.1c0.4-0.5,0.5-1.1,0.7-1.6c0.2-0.7,0.2-1.3,0.2-2.2v-0.4
		c0-0.7,0-1.5-0.2-2c-0.2-0.7-0.4-1.3-0.7-1.6c-0.4-0.5-0.7-0.9-1.1-1.1c-0.4-0.2-1.1-0.4-1.8-0.4c-0.7,0-1.3,0.2-1.8,0.4
		c-0.5,0.2-0.9,0.7-1.1,1.1c-0.4,0.5-0.5,1.1-0.7,1.6c-0.2,0.5-0.2,1.3-0.2,2v0.4H206.3z"/>
	<path d="M226.7,189.9l0.4,2.4c0.5-0.9,1.5-1.6,2.4-2c0.9-0.4,1.8-0.7,3.1-0.7c0.9,0,1.6,0.2,2.4,0.4s1.5,0.7,2,1.3
		c0.5,0.5,0.9,1.3,1.3,2.2c0.4,0.9,0.4,2,0.4,3.3v10.9h-4.6v-10.7c0-0.7,0-1.3-0.2-1.6c-0.2-0.5-0.4-0.7-0.7-1.1
		c-0.4-0.2-0.7-0.4-1.1-0.5c-0.4-0.2-0.9-0.2-1.5-0.2c-0.7,0-1.5,0.2-2,0.5c-0.5,0.4-0.9,0.7-1.3,1.3v12.6h-4.7v-17.7h4.2V189.9z"/>
	<path d="M242.1,198.7c0-1.3,0.2-2.5,0.5-3.6s0.7-2,1.5-2.9s1.5-1.5,2.2-1.8c0.9-0.4,1.8-0.7,2.9-0.7s2,0.2,2.7,0.5s1.5,0.9,1.8,1.5
		l0.2-1.6h4.2V207c0,1.3-0.2,2.2-0.5,3.3c-0.4,0.9-0.9,1.8-1.6,2.4s-1.6,1.1-2.7,1.5c-1.1,0.4-2.2,0.5-3.5,0.5c-0.5,0-1.1,0-1.6-0.2
		c-0.5-0.2-1.3-0.4-1.8-0.5c-0.5-0.2-1.1-0.5-1.6-0.9c-0.5-0.4-0.9-0.7-1.5-1.3l2-2.7c0.5,0.7,1.3,1.1,2,1.5
		c0.7,0.4,1.5,0.5,2.4,0.5c1.3,0,2.2-0.4,2.9-1.1c0.7-0.7,1.1-1.6,1.1-2.9V206c-0.5,0.5-1.1,1.1-1.8,1.5s-1.5,0.5-2.5,0.5
		c-1.1,0-2-0.2-2.9-0.7c-0.9-0.4-1.6-1.1-2.2-1.8c-0.5-0.7-1.1-1.8-1.5-2.9c-0.4-1.1-0.5-2.2-0.5-3.6L242.1,198.7L242.1,198.7z
		 M246.7,199c0,0.7,0,1.5,0.2,2c0.2,0.7,0.4,1.3,0.7,1.6c0.4,0.5,0.7,0.9,1.1,1.1c0.5,0.2,1.1,0.4,1.6,0.4c0.7,0,1.5-0.2,2-0.5
		c0.5-0.4,0.9-0.7,1.3-1.3v-7.5c-0.4-0.5-0.7-0.9-1.3-1.3s-1.1-0.4-2-0.4c-0.7,0-1.3,0.2-1.6,0.4c-0.5,0.4-0.9,0.7-1.1,1.1
		c-0.2,0.4-0.5,1.1-0.7,1.6c-0.2,0.7-0.2,1.3-0.2,2V199z"/>
	<path d="M298.7,199c0,1.3-0.2,2.5-0.4,3.6c-0.2,1.1-0.7,2-1.3,2.9c-0.5,0.9-1.3,1.5-2.2,1.8c-0.9,0.4-1.8,0.7-2.9,0.7
		c-0.9,0-1.8-0.2-2.5-0.5c-0.7-0.4-1.3-0.7-1.8-1.5v8.4h-4.6v-24.6h4.2l0.2,1.8c0.5-0.7,1.3-1.1,2-1.5s1.6-0.5,2.5-0.5
		c1.1,0,2.2,0.2,2.9,0.7c0.9,0.4,1.6,1.1,2.2,1.8c0.5,0.7,1.1,1.8,1.3,2.9c0.4,1.1,0.4,2.4,0.4,3.6L298.7,199L298.7,199z
		 M294.2,198.7c0-0.7,0-1.5-0.2-2c-0.2-0.7-0.4-1.3-0.7-1.6c-0.4-0.5-0.7-0.9-1.1-1.1c-0.4-0.2-1.1-0.4-1.6-0.4
		c-0.7,0-1.5,0.2-2,0.5c-0.5,0.4-0.9,0.7-1.1,1.3v7.5c0.4,0.5,0.7,1.1,1.1,1.3c0.5,0.4,1.1,0.5,2,0.5c0.7,0,1.3-0.2,1.6-0.4
		c0.4-0.2,0.7-0.7,1.1-1.1c0.4-0.5,0.5-1.1,0.5-1.6c0.2-0.7,0.2-1.3,0.2-2v-0.9H294.2z"/>
	<path d="M314,207.6c-0.2-0.2-0.2-0.5-0.4-0.7c0-0.4-0.2-0.5-0.2-0.9c-0.2,0.4-0.5,0.5-0.9,0.7c-0.4,0.2-0.7,0.4-1.1,0.5
		s-0.9,0.4-1.3,0.4c-0.4,0-0.9,0.2-1.6,0.2c-0.9,0-1.8-0.2-2.5-0.4c-0.7-0.2-1.5-0.7-2-1.1c-0.5-0.5-0.9-1.1-1.3-1.6
		c-0.4-0.7-0.4-1.5-0.4-2.2c0-1.8,0.7-3.3,2-4.4c1.5-1.1,3.5-1.5,6.2-1.5h2.5v-1.1c0-0.9-0.4-1.5-0.9-2c-0.5-0.5-1.3-0.7-2.4-0.7
		c-0.9,0-1.6,0.2-2,0.5c-0.4,0.4-0.5,0.9-0.5,1.6h-4.6c0-0.7,0.2-1.5,0.5-2.2c0.4-0.7,0.7-1.3,1.5-1.8c0.7-0.5,1.5-0.9,2.4-1.3
		c0.9-0.4,2-0.4,3.1-0.4c1.1,0,2,0.2,2.9,0.4c0.9,0.2,1.6,0.7,2.4,1.1c0.7,0.5,1.3,1.1,1.6,2c0.4,0.7,0.5,1.6,0.5,2.7v7.6
		c0,0.9,0,1.6,0.2,2.4c0.2,0.5,0.4,1.1,0.5,1.6v0.2H314V207.6z M309.7,204.5c0.5,0,0.9,0,1.3-0.2c0.4-0.2,0.7-0.2,1.1-0.4
		s0.5-0.4,0.7-0.5c0.2-0.2,0.4-0.4,0.5-0.7v-3.1h-2.4c-0.7,0-1.3,0-1.8,0.2c-0.5,0.2-0.9,0.4-1.3,0.5c-0.4,0.2-0.5,0.5-0.7,0.9
		c-0.2,0.4-0.2,0.7-0.2,1.1c0,0.5,0.2,1.1,0.7,1.5C308.2,204.3,308.7,204.5,309.7,204.5z"/>
	<path d="M335.7,189.6c0.7,0,1.3,0,1.8,0.2c0.5,0,1.1,0.2,1.5,0.4l-0.7,4.6c-0.5-0.2-1.3-0.2-1.8-0.4c-0.5,0-1.3-0.2-1.8-0.2
		c-1.3,0-2.4,0.2-3.1,0.7s-1.3,1.3-1.6,2.2v10.6h-4.5v-17.7h4.2l0.2,2.9c0.7-0.9,1.6-1.8,2.5-2.4
		C333.5,189.9,334.6,189.6,335.7,189.6z"/>
	<path d="M354.2,207.6c-0.2-0.2-0.2-0.5-0.4-0.7c0-0.4-0.2-0.5-0.2-0.9c-0.2,0.4-0.5,0.5-0.9,0.7c-0.4,0.2-0.7,0.4-1.1,0.5
		s-0.9,0.4-1.3,0.4c-0.4,0-0.9,0.2-1.6,0.2c-0.9,0-1.8-0.2-2.5-0.4c-0.7-0.2-1.5-0.7-2-1.1c-0.5-0.5-0.9-1.1-1.3-1.6
		c-0.4-0.7-0.4-1.5-0.4-2.2c0-1.8,0.7-3.3,2-4.4c1.5-1.1,3.5-1.5,6.2-1.5h2.5v-1.1c0-0.9-0.4-1.5-0.9-2c-0.5-0.5-1.3-0.7-2.4-0.7
		c-0.9,0-1.6,0.2-2,0.5c-0.4,0.4-0.5,0.9-0.5,1.6H343c0-0.7,0.2-1.5,0.5-2.2c0.4-0.7,0.7-1.3,1.5-1.8c0.7-0.5,1.5-0.9,2.4-1.3
		c0.9-0.4,2-0.4,3.1-0.4c1.1,0,2,0.2,2.9,0.4c0.9,0.2,1.6,0.7,2.4,1.1c0.7,0.5,1.3,1.1,1.6,2c0.4,0.7,0.5,1.6,0.5,2.7v7.6
		c0,0.9,0,1.6,0.2,2.4c0.2,0.5,0.4,1.1,0.5,1.6v0.2h-4.4V207.6z M349.9,204.5c0.5,0,0.9,0,1.3-0.2c0.4-0.2,0.7-0.2,1.1-0.4
		c0.4-0.2,0.5-0.4,0.7-0.5c0.2-0.2,0.4-0.4,0.5-0.7v-3.1h-2.4c-0.7,0-1.3,0-1.8,0.2c-0.5,0.2-0.9,0.4-1.3,0.5
		c-0.4,0.2-0.5,0.5-0.7,0.9c-0.2,0.4-0.2,0.7-0.2,1.1c0,0.5,0.2,1.1,0.7,1.5C348.2,204.3,349,204.5,349.9,204.5z"/>
	<path d="M362.8,198.7c0-1.3,0.2-2.5,0.5-3.6c0.4-1.1,0.7-2,1.5-2.9c0.7-0.9,1.5-1.5,2.2-1.8c0.9-0.4,1.8-0.7,2.9-0.7s2,0.2,2.7,0.5
		s1.5,0.9,1.8,1.5l0.2-1.6h4.2V207c0,1.3-0.2,2.2-0.5,3.3c-0.4,0.9-0.9,1.8-1.6,2.4c-0.7,0.5-1.6,1.1-2.7,1.5
		c-1.1,0.4-2.2,0.5-3.5,0.5c-0.5,0-1.1,0-1.6-0.2c-0.5-0.2-1.3-0.4-1.8-0.5c-0.5-0.2-1.1-0.5-1.6-0.9c-0.5-0.4-0.9-0.7-1.5-1.3
		l2-2.7c0.5,0.7,1.3,1.1,2,1.5c0.7,0.4,1.5,0.5,2.4,0.5c1.3,0,2.2-0.4,2.9-1.1c0.7-0.7,1.1-1.6,1.1-2.9V206
		c-0.5,0.5-1.1,1.1-1.8,1.5c-0.7,0.4-1.5,0.5-2.5,0.5c-1.1,0-2-0.2-2.9-0.7c-0.9-0.4-1.6-1.1-2.2-1.8c-0.5-0.7-1.1-1.8-1.5-2.9
		c-0.4-1.1-0.5-2.2-0.5-3.6L362.8,198.7L362.8,198.7z M367.3,199c0,0.7,0,1.5,0.2,2c0.2,0.7,0.4,1.3,0.7,1.6
		c0.4,0.5,0.7,0.9,1.1,1.1c0.5,0.2,1.1,0.4,1.6,0.4c0.7,0,1.5-0.2,2-0.5c0.5-0.4,0.9-0.7,1.3-1.3v-7.5c-0.4-0.5-0.7-0.9-1.3-1.3
		c-0.5-0.4-1.1-0.4-2-0.4c-0.7,0-1.3,0.2-1.6,0.4c-0.5,0.4-0.9,0.7-1.1,1.1c-0.2,0.4-0.5,1.1-0.7,1.6c-0.2,0.7-0.2,1.3-0.2,2V199z"
		/>
	<path d="M396.1,189.6c0.7,0,1.3,0,1.8,0.2c0.5,0,1.1,0.2,1.5,0.4l-0.7,4.6c-0.5-0.2-1.3-0.2-1.8-0.4c-0.5,0-1.3-0.2-1.8-0.2
		c-1.3,0-2.4,0.2-3.1,0.7c-0.7,0.5-1.3,1.3-1.6,2.2v10.6h-4.6v-17.7h4.2l0.2,2.9c0.7-0.9,1.6-1.8,2.5-2.4
		C393.7,189.9,394.8,189.6,396.1,189.6z"/>
	<path d="M414.5,207.6c-0.2-0.2-0.2-0.5-0.4-0.7c0-0.4-0.2-0.5-0.2-0.9c-0.2,0.4-0.5,0.5-0.9,0.7c-0.4,0.2-0.7,0.4-1.1,0.5
		c-0.4,0.2-0.9,0.4-1.3,0.4c-0.4,0-0.9,0.2-1.6,0.2c-0.9,0-1.8-0.2-2.5-0.4c-0.7-0.2-1.5-0.7-2-1.1c-0.5-0.5-0.9-1.1-1.3-1.6
		c-0.4-0.7-0.4-1.5-0.4-2.2c0-1.8,0.7-3.3,2-4.4c1.5-1.1,3.5-1.5,6.2-1.5h2.5v-1.1c0-0.9-0.4-1.5-0.9-2c-0.5-0.5-1.3-0.7-2.4-0.7
		c-0.9,0-1.6,0.2-2,0.5c-0.4,0.4-0.5,0.9-0.5,1.6h-4.5c0-0.7,0.2-1.5,0.5-2.2c0.4-0.7,0.7-1.3,1.5-1.8c0.7-0.5,1.5-0.9,2.4-1.3
		c0.9-0.4,2-0.4,3.1-0.4c1.1,0,2,0.2,2.9,0.4c0.9,0.2,1.6,0.7,2.4,1.1c0.7,0.5,1.3,1.1,1.6,2c0.4,0.7,0.5,1.6,0.5,2.7v7.6
		c0,0.9,0,1.6,0.2,2.4c0.2,0.5,0.4,1.1,0.5,1.6v0.2h-4.4V207.6z M410.1,204.5c0.5,0,0.9,0,1.3-0.2c0.4-0.2,0.7-0.2,1.1-0.4
		s0.5-0.4,0.7-0.5c0.2-0.2,0.4-0.4,0.5-0.7v-3.1h-2.4c-0.7,0-1.3,0-1.8,0.2c-0.5,0.2-0.9,0.4-1.3,0.5c-0.4,0.2-0.5,0.5-0.7,0.9
		c-0.2,0.4-0.2,0.7-0.2,1.1c0,0.5,0.2,1.1,0.7,1.5C408.7,204.3,409.2,204.5,410.1,204.5z"/>
	<path d="M439.4,199c0,1.3-0.2,2.5-0.4,3.6c-0.2,1.1-0.7,2-1.3,2.9c-0.5,0.9-1.3,1.5-2.2,1.8c-0.9,0.4-1.8,0.7-2.9,0.7
		c-0.9,0-1.8-0.2-2.5-0.5c-0.7-0.4-1.3-0.7-1.8-1.5v8.4h-4.6v-24.6h4.2l0.2,1.8c0.5-0.7,1.3-1.1,2-1.5s1.6-0.5,2.5-0.5
		c1.1,0,2.2,0.2,2.9,0.7c0.9,0.4,1.6,1.1,2.2,1.8c0.5,0.7,1.1,1.8,1.3,2.9c0.4,1.1,0.4,2.4,0.4,3.6V199L439.4,199z M434.9,198.7
		c0-0.7,0-1.5-0.2-2c-0.2-0.7-0.4-1.3-0.7-1.6c-0.4-0.5-0.7-0.9-1.1-1.1c-0.4-0.2-1.1-0.4-1.6-0.4c-0.7,0-1.5,0.2-2,0.5
		c-0.5,0.4-0.9,0.7-1.1,1.3v7.5c0.4,0.5,0.7,1.1,1.1,1.3c0.5,0.4,1.1,0.5,2,0.5c0.7,0,1.3-0.2,1.6-0.4c0.4-0.2,0.7-0.7,1.1-1.1
		c0.4-0.5,0.5-1.1,0.5-1.6c0.2-0.7,0.2-1.3,0.2-2v-0.9H434.9z"/>
	<path d="M448.2,192.5c0.5-0.9,1.3-1.5,2.2-2c0.9-0.5,1.8-0.7,2.9-0.7c0.9,0,1.8,0.2,2.5,0.4c0.7,0.4,1.5,0.7,2,1.3
		c0.5,0.5,0.9,1.3,1.3,2.2c0.4,0.9,0.5,2,0.5,3.3v10.7h-4.5v-10.7c0-0.7,0-1.3-0.2-1.6c-0.2-0.5-0.4-0.9-0.7-1.1
		c-0.4-0.4-0.7-0.5-1.1-0.5c-0.4-0.2-0.9-0.2-1.5-0.2c-0.7,0-1.5,0.2-2,0.4c-0.5,0.2-1.1,0.7-1.5,1.1v12.7h-4.5v-25.1h4.5
		L448.2,192.5L448.2,192.5z"/>
	<path d="M492.2,185.6v4.4h6.6v3.3h-6.6v7.6c0,0.7,0,1.1,0.2,1.6c0.2,0.4,0.4,0.7,0.5,1.1c0.4,0.2,0.5,0.4,0.9,0.5s0.9,0.2,1.3,0.2
		c0.4,0,0.7,0,1.1,0c0.4,0,0.7,0,1.1-0.2c0.4-0.2,0.7-0.2,0.9-0.2s0.5-0.2,0.7-0.2l0.4,3.1c-0.4,0.2-0.7,0.4-1.1,0.5
		c-0.4,0.2-0.9,0.2-1.3,0.4c-0.5,0-0.9,0.2-1.5,0.2c-0.5,0-1.1,0-1.5,0c-0.9,0-1.8-0.2-2.7-0.4c-0.9-0.2-1.5-0.7-2-1.3
		c-0.5-0.5-0.9-1.3-1.3-2c-0.4-0.7-0.4-1.8-0.4-3.1v-8h-4v-3.3h4v-4.4C487.6,185.6,492.2,185.6,492.2,185.6z"/>
	<path d="M512.6,208c-1.5,0-2.5-0.2-3.6-0.7s-2-1.1-2.9-1.8c-0.7-0.7-1.5-1.6-1.8-2.7c-0.4-1.1-0.7-2.2-0.7-3.3v-0.7
		c0-1.3,0.2-2.5,0.7-3.6c0.5-1.1,1.1-2,1.8-2.9c0.7-0.7,1.6-1.5,2.7-1.8c1.1-0.4,2.2-0.7,3.5-0.7s2.4,0.2,3.5,0.5
		c0.9,0.4,1.8,1.1,2.5,1.8c0.7,0.7,1.3,1.6,1.6,2.7c0.4,1.1,0.5,2.2,0.5,3.6v2h-12c0,0.5,0.2,1.1,0.5,1.6c0.4,0.5,0.5,0.9,1.1,1.3
		c0.5,0.4,0.9,0.7,1.5,0.9c0.5,0.2,1.1,0.4,1.8,0.4c0.4,0,0.9,0,1.3-0.2c0.4,0,0.9-0.2,1.3-0.4c0.4-0.2,0.7-0.4,1.1-0.5
		s0.7-0.5,0.9-0.9l2.2,2.4c-0.4,0.4-0.7,0.7-1.1,1.3c-0.4,0.4-0.9,0.7-1.6,1.1c-0.7,0.4-1.3,0.5-2,0.7
		C514.6,208.1,513.5,208,512.6,208z M512,193.4c-0.5,0-0.9,0-1.5,0.2c-0.5,0.2-0.7,0.4-1.1,0.7c-0.4,0.4-0.5,0.7-0.7,1.3
		c-0.2,0.5-0.4,0.9-0.5,1.6h7.5v-0.4c0-0.5-0.2-0.9-0.4-1.3c-0.2-0.4-0.4-0.7-0.7-1.1c-0.4-0.4-0.7-0.5-1.1-0.7
		C513.1,193.4,512.6,193.4,512,193.4z"/>
	<path d="M532.2,195.6l3.8-5.5h4.9l-6,8.7l6.2,9.1h-4.9l-4-5.8l-4,5.8h-4.9l6.2-9.1l-6-8.7h4.9L532.2,195.6z"/>
	<path d="M552.4,185.6v4.4h6.6v3.3h-6.6v7.6c0,0.7,0,1.1,0.2,1.6c0.2,0.4,0.4,0.7,0.5,1.1c0.4,0.2,0.5,0.4,0.9,0.5s0.9,0.2,1.3,0.2
		c0.4,0,0.7,0,1.1,0s0.7,0,1.1-0.2c0.4-0.2,0.7-0.2,0.9-0.2s0.5-0.2,0.7-0.2l0.4,3.1c-0.4,0.2-0.7,0.4-1.1,0.5
		c-0.4,0.2-0.9,0.2-1.3,0.4c-0.5,0-0.9,0.2-1.5,0.2c-0.5,0-1.1,0-1.5,0c-0.9,0-1.8-0.2-2.7-0.4c-0.9-0.2-1.5-0.7-2-1.3
		s-0.9-1.3-1.3-2c-0.4-0.7-0.4-1.8-0.4-3.1v-8h-4v-3.3h4v-4.4C547.9,185.6,552.4,185.6,552.4,185.6z"/>
	<path d="M585.6,189.9h9.6v14h4.7v3.6h-14.4V204h5.1v-10.4h-5.1V189.9z M590.3,185.4c0-0.4,0-0.7,0.2-0.9c0.2-0.2,0.4-0.5,0.5-0.7
		s0.5-0.4,0.9-0.5c0.4-0.2,0.7-0.2,1.1-0.2c0.7,0,1.5,0.2,2,0.7c0.5,0.5,0.7,1.1,0.7,1.8c0,0.7-0.2,1.3-0.7,1.8
		c-0.5,0.4-1.1,0.7-2,0.7c-0.4,0-0.7,0-1.1-0.2s-0.5-0.4-0.9-0.5c-0.2-0.2-0.4-0.5-0.5-0.7C590.3,186.5,590.3,185.8,590.3,185.4z"/>
	<path d="M608.7,189.9l0.4,2.4c0.5-0.9,1.5-1.6,2.4-2c0.9-0.4,1.8-0.7,3.1-0.7c0.9,0,1.6,0.2,2.4,0.4s1.5,0.7,2,1.3
		c0.5,0.5,0.9,1.3,1.3,2.2c0.4,0.9,0.4,2,0.4,3.3v10.9H616v-10.7c0-0.7,0-1.3-0.2-1.6c-0.2-0.5-0.4-0.7-0.7-1.1
		c-0.4-0.2-0.7-0.4-1.1-0.5c-0.4-0.2-0.9-0.2-1.5-0.2c-0.7,0-1.5,0.2-2,0.5c-0.5,0.4-0.9,0.7-1.3,1.3v12.6h-4.5v-17.7h4V189.9z"/>
	<path d="M652.7,206.7c0,0.5,0,1.1-0.2,1.6s-0.4,1.1-0.5,1.6c-0.2,0.5-0.5,1.1-0.9,1.6s-0.7,0.9-1.1,1.3l-2.2-1.3
		c0.4-0.7,0.7-1.5,0.9-2.2s0.4-1.8,0.4-2.7v-2.9h3.8L652.7,206.7z M658.2,206.7c0,0.5,0,1.1-0.2,1.6s-0.4,1.1-0.5,1.6
		c-0.2,0.5-0.5,1.1-0.9,1.6s-0.7,0.9-1.1,1.3l-2.2-1.3c0.4-0.7,0.7-1.5,1.1-2.2s0.4-1.8,0.4-2.7v-2.9h3.8L658.2,206.7z"/>
	<path d="M672.7,198.9h-3.5v8.9h-4.5v-23.8h8c1.3,0,2.5,0.2,3.6,0.5c1.1,0.4,2,0.7,2.7,1.5c0.7,0.5,1.3,1.3,1.8,2.2
		c0.4,0.9,0.5,2,0.5,3.1c0,0.9-0.2,1.6-0.4,2.4c-0.2,0.7-0.5,1.3-0.9,1.8s-0.9,1.1-1.3,1.5c-0.5,0.4-1.1,0.7-1.8,1.1l5.1,9.8v0.2
		h-4.9L672.7,198.9z M669.3,195h3.5c1.3,0,2.4-0.4,3.1-0.9c0.7-0.5,1.1-1.6,1.1-2.7c0-1.3-0.4-2.2-1.1-2.7c-0.7-0.7-1.6-0.9-3.1-0.9
		h-3.5V195z"/>
	<path d="M684.2,198.7c0-1.3,0.2-2.5,0.5-3.6s0.9-2,1.6-2.9c0.7-0.7,1.6-1.5,2.5-1.8c1.1-0.5,2.2-0.7,3.5-0.7s2.5,0.2,3.6,0.7
		c1.1,0.4,1.8,1.1,2.5,1.8c0.7,0.7,1.3,1.8,1.6,2.9s0.5,2.4,0.5,3.6v0.4c0,1.3-0.2,2.5-0.5,3.6c-0.4,1.1-0.9,2-1.6,2.9
		c-0.7,0.9-1.6,1.5-2.5,1.8c-1.1,0.5-2.2,0.7-3.5,0.7c-1.3,0-2.5-0.2-3.6-0.7c-1.1-0.4-2-1.1-2.7-1.8c-0.7-0.7-1.3-1.8-1.6-2.9
		c-0.4-1.1-0.5-2.4-0.5-3.6v-0.4H684.2z M688.8,199c0,0.7,0,1.5,0.2,2.2s0.4,1.3,0.7,1.6c0.4,0.5,0.7,0.9,1.1,1.1
		c0.5,0.4,1.1,0.4,1.8,0.4c0.7,0,1.3-0.2,1.6-0.4c0.4-0.2,0.9-0.7,1.1-1.1c0.4-0.5,0.5-1.1,0.7-1.6c0.2-0.7,0.2-1.3,0.2-2.2v-0.4
		c0-0.7,0-1.5-0.2-2c-0.2-0.7-0.4-1.3-0.7-1.6c-0.4-0.5-0.7-0.9-1.1-1.1c-0.4-0.2-1.1-0.4-1.8-0.4c-0.7,0-1.3,0.2-1.8,0.4
		c-0.5,0.2-0.9,0.7-1.1,1.1c-0.4,0.5-0.5,1.1-0.7,1.6s-0.2,1.3-0.2,2v0.4H688.8z"/>
	<path d="M721,199c0,1.3-0.2,2.5-0.4,3.6c-0.4,1.1-0.7,2-1.3,2.9s-1.3,1.5-2.2,1.8c-0.9,0.4-1.8,0.7-3.1,0.7c-1.1,0-2-0.2-2.7-0.5
		c-0.7-0.4-1.5-0.9-2-1.6l-0.2,1.8h-4v-25.1h4.5v9.1c0.5-0.5,1.1-1.1,1.8-1.5c0.7-0.4,1.6-0.5,2.5-0.5c1.1,0,2.2,0.2,3.1,0.7
		c0.9,0.4,1.6,1.1,2.2,1.8c0.5,0.7,1.1,1.8,1.3,2.9c0.4,1.1,0.4,2.4,0.4,3.6L721,199L721,199z M716.4,198.7c0-0.7,0-1.5-0.2-2
		s-0.4-1.3-0.5-1.6c-0.2-0.4-0.5-0.9-1.1-1.1c-0.4-0.4-1.1-0.4-1.6-0.4c-0.9,0-1.5,0.2-2,0.5c-0.5,0.4-0.9,0.9-1.3,1.5v7.1
		c0.4,0.5,0.7,1.1,1.3,1.5c0.5,0.4,1.3,0.5,2,0.5c0.7,0,1.3-0.2,1.6-0.4c0.4-0.2,0.7-0.7,1.1-1.1c0.2-0.5,0.4-1.1,0.5-1.6
		c0.2-0.7,0.2-1.5,0.2-2.2V198.7z"/>
	<path d="M724.4,198.7c0-1.3,0.2-2.5,0.5-3.6c0.4-1.1,0.9-2,1.6-2.9c0.7-0.7,1.6-1.5,2.5-1.8c1.1-0.5,2.2-0.7,3.5-0.7
		c1.3,0,2.5,0.2,3.6,0.7c1.1,0.4,1.8,1.1,2.5,1.8c0.7,0.7,1.3,1.8,1.6,2.9c0.4,1.1,0.5,2.4,0.5,3.6v0.4c0,1.3-0.2,2.5-0.5,3.6
		c-0.4,1.1-0.9,2-1.6,2.9c-0.7,0.9-1.6,1.5-2.5,1.8c-1.1,0.5-2.2,0.7-3.5,0.7s-2.5-0.2-3.6-0.7c-1.1-0.4-2-1.1-2.7-1.8
		c-0.7-0.7-1.3-1.8-1.6-2.9c-0.4-1.1-0.5-2.4-0.5-3.6v-0.4H724.4z M729,199c0,0.7,0,1.5,0.2,2.2c0.2,0.7,0.4,1.3,0.7,1.6
		c0.4,0.5,0.7,0.9,1.1,1.1c0.5,0.4,1.1,0.4,1.8,0.4c0.7,0,1.3-0.2,1.6-0.4s0.9-0.7,1.1-1.1c0.4-0.5,0.5-1.1,0.7-1.6
		c0.2-0.7,0.2-1.3,0.2-2.2v-0.4c0-0.7,0-1.5-0.2-2c-0.2-0.7-0.4-1.3-0.7-1.6c-0.4-0.5-0.7-0.9-1.1-1.1c-0.4-0.2-1.1-0.4-1.8-0.4
		c-0.7,0-1.3,0.2-1.8,0.4c-0.5,0.2-0.9,0.7-1.1,1.1c-0.4,0.5-0.5,1.1-0.7,1.6s-0.2,1.3-0.2,2v0.4H729z"/>
	<path d="M753.5,185.6v4.4h6.6v3.3h-6.6v7.6c0,0.7,0,1.1,0.2,1.6c0.2,0.4,0.4,0.7,0.5,1.1c0.4,0.2,0.5,0.4,0.9,0.5s0.9,0.2,1.3,0.2
		s0.7,0,1.1,0s0.7,0,1.1-0.2c0.4-0.2,0.7-0.2,0.9-0.2s0.5-0.2,0.7-0.2l0.4,3.1c-0.4,0.2-0.7,0.4-1.1,0.5c-0.4,0.2-0.9,0.2-1.3,0.4
		c-0.5,0-0.9,0.2-1.5,0.2s-1.1,0-1.5,0c-0.9,0-1.8-0.2-2.7-0.4c-0.9-0.2-1.5-0.7-2-1.3c-0.5-0.5-0.9-1.3-1.3-2
		c-0.4-0.7-0.4-1.8-0.4-3.1v-8h-4v-3.3h4v-4.4C749,185.6,753.5,185.6,753.5,185.6z"/>
	<path d="M764.7,198.7c0-1.3,0.2-2.5,0.5-3.6s0.9-2,1.6-2.9c0.7-0.7,1.6-1.5,2.5-1.8c1.1-0.5,2.2-0.7,3.5-0.7s2.5,0.2,3.6,0.7
		c1.1,0.4,1.8,1.1,2.5,1.8c0.7,0.7,1.3,1.8,1.6,2.9s0.5,2.4,0.5,3.6v0.4c0,1.3-0.2,2.5-0.5,3.6c-0.4,1.1-0.9,2-1.6,2.9
		c-0.7,0.9-1.6,1.5-2.5,1.8c-1.1,0.5-2.2,0.7-3.5,0.7c-1.3,0-2.5-0.2-3.6-0.7c-1.1-0.4-2-1.1-2.7-1.8c-0.7-0.7-1.3-1.8-1.6-2.9
		c-0.4-1.1-0.5-2.4-0.5-3.6v-0.4H764.7z M769.2,199c0,0.7,0,1.5,0.2,2.2s0.4,1.3,0.7,1.6c0.4,0.5,0.7,0.9,1.1,1.1
		c0.5,0.4,1.1,0.4,1.8,0.4c0.7,0,1.3-0.2,1.6-0.4c0.4-0.2,0.9-0.7,1.1-1.1c0.4-0.5,0.5-1.1,0.7-1.6c0.2-0.7,0.2-1.3,0.2-2.2v-0.4
		c0-0.7,0-1.5-0.2-2c-0.2-0.7-0.4-1.3-0.7-1.6c-0.4-0.5-0.7-0.9-1.1-1.1c-0.4-0.2-1.1-0.4-1.8-0.4c-0.7,0-1.3,0.2-1.8,0.4
		c-0.5,0.2-0.9,0.7-1.1,1.1c-0.4,0.5-0.5,1.1-0.7,1.6s-0.2,1.3-0.2,2v0.4H769.2z"/>
	<path d="M811.1,183.9l2.2,8.9l2.5-8.9h5.6v23.8h-4.2v-7.1l0.2-11.1l-3.1,10.4h-2.2l-2.7-9.8l0.2,10.7v7.1h-4.2v-23.8h5.6V183.9z"/>
	<path d="M825.1,198.7c0-1.3,0.2-2.5,0.5-3.6s0.9-2,1.6-2.9c0.7-0.7,1.6-1.5,2.5-1.8c1.1-0.5,2.2-0.7,3.5-0.7c1.3,0,2.5,0.2,3.6,0.7
		c1.1,0.4,1.8,1.1,2.5,1.8s1.3,1.8,1.6,2.9c0.4,1.1,0.5,2.4,0.5,3.6v0.4c0,1.3-0.2,2.5-0.5,3.6c-0.4,1.1-0.9,2-1.6,2.9
		s-1.6,1.5-2.5,1.8c-1.1,0.5-2.2,0.7-3.5,0.7c-1.3,0-2.5-0.2-3.6-0.7c-1.1-0.4-2-1.1-2.7-1.8c-0.7-0.7-1.3-1.8-1.6-2.9
		c-0.4-1.1-0.5-2.4-0.5-3.6v-0.4H825.1z M829.4,199c0,0.7,0,1.5,0.2,2.2s0.4,1.3,0.7,1.6c0.4,0.5,0.7,0.9,1.1,1.1
		c0.5,0.4,1.1,0.4,1.8,0.4c0.7,0,1.3-0.2,1.6-0.4c0.4-0.2,0.9-0.7,1.1-1.1c0.4-0.5,0.5-1.1,0.7-1.6c0.2-0.7,0.2-1.3,0.2-2.2v-0.4
		c0-0.7,0-1.5-0.2-2c-0.2-0.7-0.4-1.3-0.7-1.6c-0.4-0.5-0.7-0.9-1.1-1.1c-0.4-0.2-1.1-0.4-1.8-0.4c-0.7,0-1.3,0.2-1.8,0.4
		c-0.5,0.2-0.9,0.7-1.1,1.1c-0.4,0.5-0.5,1.1-0.7,1.6s-0.2,1.3-0.2,2v0.4H829.4z"/>
	<path d="M849.8,189.9l0.4,2.4c0.5-0.9,1.5-1.6,2.4-2c0.9-0.4,1.8-0.7,3.1-0.7c0.9,0,1.6,0.2,2.4,0.4c0.7,0.2,1.5,0.7,2,1.3
		c0.5,0.5,0.9,1.3,1.3,2.2c0.4,0.9,0.4,2,0.4,3.3v10.9h-4.5v-10.7c0-0.7,0-1.3-0.2-1.6c-0.2-0.5-0.4-0.7-0.7-1.1
		c-0.4-0.2-0.7-0.4-1.1-0.5c-0.4-0.2-0.9-0.2-1.5-0.2c-0.7,0-1.5,0.2-2,0.5c-0.5,0.4-0.9,0.7-1.3,1.3v12.6h-4.5v-17.7h4V189.9z"/>
	<path d="M865.1,198.7c0-1.3,0.2-2.5,0.5-3.6c0.4-1.1,0.9-2,1.6-2.9c0.7-0.7,1.6-1.5,2.5-1.8c1.1-0.5,2.2-0.7,3.5-0.7
		c1.3,0,2.5,0.2,3.6,0.7c1.1,0.4,1.8,1.1,2.5,1.8c0.7,0.7,1.3,1.8,1.6,2.9c0.4,1.1,0.5,2.4,0.5,3.6v0.4c0,1.3-0.2,2.5-0.5,3.6
		c-0.4,1.1-0.9,2-1.6,2.9c-0.7,0.9-1.6,1.5-2.5,1.8c-1.1,0.5-2.2,0.7-3.5,0.7s-2.5-0.2-3.6-0.7c-1.1-0.4-2-1.1-2.7-1.8
		c-0.7-0.7-1.3-1.8-1.6-2.9c-0.4-1.1-0.5-2.4-0.5-3.6v-0.4H865.1z M869.7,199c0,0.7,0,1.5,0.2,2.2c0.2,0.7,0.4,1.3,0.7,1.6
		c0.4,0.5,0.7,0.9,1.1,1.1c0.5,0.4,1.1,0.4,1.8,0.4c0.7,0,1.3-0.2,1.6-0.4s0.9-0.7,1.1-1.1c0.4-0.5,0.5-1.1,0.7-1.6
		c0.2-0.7,0.2-1.3,0.2-2.2v-0.4c0-0.7,0-1.5-0.2-2c-0.2-0.7-0.4-1.3-0.7-1.6c-0.4-0.5-0.7-0.9-1.1-1.1c-0.4-0.2-1.1-0.4-1.8-0.4
		c-0.7,0-1.3,0.2-1.8,0.4c-0.5,0.2-0.9,0.7-1.1,1.1c-0.4,0.5-0.5,1.1-0.7,1.6c-0.2,0.5-0.2,1.3-0.2,2v0.4H869.7z"/>
	<path d="M905.9,207.6v-23.8h8c1.3,0,2.5,0.2,3.5,0.4c1.1,0.2,2,0.7,2.7,1.3c0.7,0.5,1.3,1.3,1.8,2c0.5,0.7,0.5,1.8,0.5,2.9
		s-0.4,2.2-0.9,2.9c-0.5,0.9-1.5,1.5-2.5,2c0.7,0.2,1.3,0.4,1.8,0.7c0.5,0.4,0.9,0.7,1.3,1.3c0.4,0.5,0.5,0.9,0.7,1.5
		s0.2,1.1,0.2,1.8c0,1.1-0.2,2.2-0.5,3.1c-0.4,0.9-0.9,1.6-1.6,2.2c-0.7,0.5-1.6,1.1-2.7,1.3c-1.1,0.4-2.2,0.4-3.5,0.4h-8.7V207.6z
		 M910.4,193.9h3.5c1.3,0,2.2-0.4,2.9-0.7c0.7-0.5,1.1-1.3,1.1-2.4c0-1.1-0.4-2-1.1-2.4c-0.7-0.5-1.6-0.7-2.9-0.7h-3.5V193.9z
		 M910.4,197.2v6.7h4c1.3,0,2.2-0.4,2.9-0.9c0.7-0.5,0.9-1.5,0.9-2.4c0-1.1-0.4-2-0.9-2.5c-0.5-0.5-1.5-0.9-2.7-0.9
		C914.6,197.2,910.4,197.2,910.4,197.2z"/>
	<path d="M925.5,198.7c0-1.3,0.2-2.5,0.5-3.6s0.9-2,1.6-2.9c0.7-0.7,1.6-1.5,2.5-1.8c1.1-0.5,2.2-0.7,3.5-0.7c1.3,0,2.5,0.2,3.6,0.7
		c1.1,0.4,1.8,1.1,2.5,1.8c0.7,0.7,1.3,1.8,1.6,2.9s0.5,2.4,0.5,3.6v0.4c0,1.3-0.2,2.5-0.5,3.6c-0.4,1.1-0.9,2-1.6,2.9
		c-0.7,0.9-1.6,1.5-2.5,1.8c-1.1,0.5-2.2,0.7-3.5,0.7c-1.3,0-2.5-0.2-3.6-0.7c-1.1-0.4-2-1.1-2.7-1.8c-0.7-0.7-1.3-1.8-1.6-2.9
		c-0.4-1.1-0.5-2.4-0.5-3.6v-0.4H925.5z M930.1,199c0,0.7,0,1.5,0.2,2.2s0.4,1.3,0.7,1.6c0.4,0.5,0.7,0.9,1.1,1.1
		c0.5,0.4,1.1,0.4,1.8,0.4c0.7,0,1.3-0.2,1.6-0.4s0.9-0.7,1.1-1.1c0.4-0.5,0.5-1.1,0.7-1.6c0.2-0.7,0.2-1.3,0.2-2.2v-0.4
		c0-0.7,0-1.5-0.2-2c-0.2-0.7-0.4-1.3-0.7-1.6c-0.4-0.5-0.7-0.9-1.1-1.1c-0.4-0.2-1.1-0.4-1.8-0.4c-0.7,0-1.3,0.2-1.8,0.4
		c-0.5,0.2-0.9,0.7-1.1,1.1c-0.4,0.5-0.5,1.1-0.7,1.6c-0.2,0.5-0.2,1.3-0.2,2v0.4H930.1z"/>
	<path d="M947.2,182.5h9.8V204h5.1v3.6h-14.9V204h5.3v-17.7h-5.3V182.5z"/>
	<path d="M965.8,198.7c0-1.3,0.2-2.5,0.5-3.6s0.7-2,1.3-2.9c0.5-0.7,1.3-1.5,2.2-1.8c0.9-0.4,1.8-0.7,2.9-0.7c0.9,0,1.8,0.2,2.4,0.5
		c0.7,0.4,1.3,0.7,1.8,1.5v-9.1h4.6v25.1h-4.2l-0.2-1.8c-0.5,0.7-1.3,1.3-2,1.6c-0.7,0.4-1.6,0.5-2.5,0.5c-1.1,0-2-0.2-2.9-0.7
		c-0.9-0.4-1.6-1.1-2.2-1.8c-0.5-0.7-1.1-1.8-1.3-2.9c-0.4-1.1-0.5-2.2-0.5-3.6v-0.2H965.8z M970.3,199c0,0.7,0,1.5,0.2,2
		c0.2,0.5,0.4,1.3,0.5,1.6c0.4,0.5,0.7,0.9,1.1,1.1c0.4,0.2,0.9,0.4,1.6,0.4s1.5-0.2,2-0.5c0.5-0.4,0.9-0.7,1.3-1.5V195
		c-0.4-0.5-0.7-1.1-1.3-1.5c-0.5-0.4-1.1-0.5-2-0.5c-0.7,0-1.3,0.2-1.6,0.4c-0.4,0.4-0.7,0.7-1.1,1.1c-0.4,0.4-0.5,1.1-0.5,1.6
		c-0.2,0.7-0.2,1.3-0.2,2V199z"/>
	<path d="M989.4,188.3c0-0.5,0-1.1,0.2-1.6c0.2-0.5,0.4-1.1,0.7-1.8c0.2-0.5,0.5-1.1,0.9-1.6s0.7-0.9,1.1-1.3l2.2,1.3
		c-0.4,0.7-0.7,1.5-1.1,2.2c-0.4,0.7-0.4,1.8-0.4,2.7v2.9h-3.6V188.3z M995.1,188.3c0-0.5,0-1.1,0.2-1.6c0.2-0.5,0.4-1.1,0.5-1.8
		c0.4-0.5,0.5-1.1,0.9-1.6s0.7-0.9,1.1-1.3l2,1.3c-0.4,0.7-0.7,1.5-1.1,2.2c-0.2,0.7-0.4,1.8-0.4,2.7v2.9h-3.6v-2.7H995.1z"/>
</g>
<g>
	<path d="M79.4,247.8l-10.9-20v20h-2V224h2l10.9,20v-20h2v23.8H79.4z"/>
	<path d="M86.5,235.3c0.4-1.1,0.9-2,1.6-2.9c0.7-0.7,1.5-1.5,2.5-2c0.9-0.5,2-0.7,3.3-0.7s2.4,0.2,3.3,0.7c0.9,0.5,1.8,1.1,2.5,2
		s1.3,1.8,1.6,2.9c0.4,1.1,0.5,2.2,0.5,3.5v0.5c0,1.3-0.2,2.4-0.5,3.5c-0.4,1.1-0.9,2-1.5,2.9c-0.7,0.7-1.5,1.5-2.5,2
		c-0.9,0.5-2,0.7-3.3,0.7s-2.4-0.2-3.3-0.7c-0.9-0.5-1.8-1.1-2.5-2c-0.7-0.7-1.3-1.8-1.6-2.9c-0.4-1.1-0.5-2.2-0.5-3.5v-0.5
		C86.2,237.6,86.2,236.4,86.5,235.3z M88.3,242c0.2,0.9,0.7,1.6,1.1,2.4c0.5,0.7,1.1,1.3,1.8,1.6c0.7,0.4,1.6,0.5,2.5,0.5
		s1.8-0.2,2.5-0.5c0.7-0.4,1.3-0.9,1.8-1.6c0.5-0.7,0.9-1.5,1.1-2.4c0.2-0.9,0.4-1.8,0.4-2.7v-0.5c0-0.9-0.2-1.8-0.4-2.7
		c-0.2-0.9-0.7-1.6-1.1-2.4c-0.5-0.7-1.1-1.3-1.8-1.6s-1.6-0.5-2.5-0.5s-1.8,0.2-2.5,0.5s-1.3,0.9-1.8,1.6c-0.5,0.7-0.9,1.5-1.1,2.4
		s-0.4,1.8-0.4,2.7v0.5C88,240.2,88.2,241.1,88.3,242z"/>
	<path d="M120.4,230c0.5,0,0.9,0.2,1.3,0.2l-0.2,1.8c-0.4,0-0.9-0.2-1.3-0.2c-0.5,0-0.9,0-1.5,0c-0.9,0-1.6,0-2.4,0.4
		c-0.7,0.2-1.5,0.5-2,0.9c-0.5,0.4-1.1,0.9-1.5,1.5s-0.7,1.3-0.9,2.2V248h-2v-17.7h1.8l0.2,2.7v0.7c0.7-1.3,1.6-2.2,2.7-2.9
		c1.1-0.7,2.5-1.1,4.2-0.9C119.3,229.8,119.8,229.8,120.4,230z"/>
	<path d="M127.5,232.2c0.4-0.7,0.9-1.3,1.5-1.6c0.5-0.4,1.5-0.5,2.4-0.7c0.5,0,0.9,0,1.5,0.2c0.4,0.2,0.7,0.4,1.1,0.5
		c0.2,0.2,0.5,0.4,0.7,0.7c0.2,0.2,0.4,0.5,0.4,0.9c0.2-0.4,0.4-0.5,0.5-0.9c0.2-0.4,0.5-0.5,0.9-0.7c0.4-0.2,0.7-0.4,1.1-0.5
		c0.4-0.2,0.9-0.2,1.5-0.2c0.7,0,1.5,0.2,1.8,0.4c0.5,0.2,0.9,0.5,1.3,1.1c0.4,0.4,0.5,0.9,0.7,1.6c0.2,0.5,0.2,1.3,0.2,1.8v13.1
		h-1.8v-13.1c0-0.4,0-0.7-0.2-1.1c0-0.4-0.2-0.7-0.4-1.1c-0.2-0.4-0.5-0.5-0.7-0.7c-0.2-0.2-0.7-0.2-1.3-0.2s-1.1,0-1.5,0.2
		s-0.7,0.4-0.9,0.5s-0.4,0.5-0.5,0.9c-0.2,0.4-0.2,0.7-0.4,0.9c0,0,0,0,0,0.2c0,0,0,0,0,0.2v13.3h-1.8v-13.3c0-0.4,0-0.7-0.2-1.1
		c0-0.4-0.2-0.7-0.4-0.9c-0.2-0.2-0.4-0.5-0.7-0.7c-0.4-0.2-0.7-0.2-1.3-0.2c-0.5,0-1.1,0-1.5,0.2c-0.4,0.2-0.7,0.4-0.9,0.7
		c-0.2,0.2-0.4,0.5-0.5,0.9c-0.2,0.4-0.2,0.7-0.4,0.9v13.5h-1.8v-17.7h1.8L127.5,232.2z"/>
	<path d="M159.3,246.5c0-0.4-0.2-0.9-0.2-1.3c-0.4,0.4-0.7,0.9-1.3,1.3c-0.4,0.4-0.9,0.7-1.5,0.9s-1.1,0.4-1.8,0.5
		c-0.7,0.2-1.3,0.2-1.8,0.2c-0.7,0-1.6-0.2-2.4-0.4c-0.7-0.2-1.3-0.5-1.8-1.1c-0.5-0.4-0.9-0.9-1.3-1.6c-0.4-0.5-0.4-1.3-0.4-2
		c0-1.1,0.2-1.8,0.7-2.5c0.5-0.7,1.1-1.3,1.8-1.8c0.7-0.4,1.6-0.7,2.5-0.9c1.1-0.2,2-0.4,3.1-0.4h3.8v-2c0-0.7-0.2-1.3-0.4-1.8
		c-0.2-0.5-0.5-0.9-1.1-1.3c-0.4-0.4-0.9-0.5-1.5-0.7c-0.5-0.2-1.3-0.2-2-0.2c-0.5,0-1.3,0-1.8,0.2c-0.5,0.2-1.1,0.4-1.5,0.7
		c-0.4,0.4-0.7,0.7-1.1,1.1c-0.2,0.4-0.4,0.9-0.4,1.5h-2c0-0.7,0.2-1.5,0.5-2c0.4-0.7,0.9-1.3,1.5-1.6c0.5-0.4,1.3-0.7,2.2-1.1
		c0.9-0.2,1.6-0.4,2.7-0.4c0.9,0,1.8,0.2,2.5,0.4c0.7,0.2,1.5,0.5,2.2,1.1c0.5,0.5,1.1,1.1,1.5,1.8c0.4,0.7,0.5,1.6,0.5,2.5v8.6
		c0,0.5,0,1.3,0.2,1.8c0.2,0.5,0.2,1.1,0.4,1.6v0.2h-2C159.5,247.5,159.3,247.1,159.3,246.5z M155.1,246.2c0.5-0.2,1.3-0.4,1.6-0.7
		s0.9-0.7,1.5-1.1c0.4-0.4,0.7-0.9,0.9-1.5v-3.8h-3.6c-0.9,0-1.8,0-2.7,0.2c-0.9,0.2-1.6,0.4-2.2,0.7c-0.5,0.4-0.9,0.7-1.3,1.1
		c-0.4,0.4-0.4,1.1-0.4,1.6c0,0.5,0.2,0.9,0.4,1.5c0.2,0.4,0.5,0.7,0.9,1.1c0.4,0.4,0.7,0.5,1.3,0.7c0.5,0.2,1.1,0.2,1.6,0.2
		C153.9,246.4,154.4,246.4,155.1,246.2z"/>
	<path d="M176.2,222.7V246h6v1.8h-14.4V246h6.4v-21.7h-6.4v-1.8h8.4V222.7z"/>
	<path d="M207.7,230.2h1.8v2.4c0.2-0.4,0.5-0.7,0.9-1.1c0.4-0.4,0.7-0.5,1.1-0.9c0.5-0.2,0.9-0.5,1.6-0.5s1.1-0.2,1.8-0.2
		c1.1,0,2.2,0.2,3.1,0.7c0.9,0.5,1.6,1.1,2.2,1.8c0.5,0.9,1.1,1.8,1.5,2.9c0.4,1.1,0.5,2.4,0.5,3.6v0.4c0,1.1-0.2,2.4-0.4,3.5
		c-0.4,1.1-0.7,2-1.3,2.9c-0.5,0.9-1.3,1.5-2.2,2s-1.8,0.7-3.1,0.7c-0.5,0-1.3,0-1.8-0.2s-1.1-0.4-1.6-0.5c-0.4-0.2-0.7-0.4-1.1-0.7
		c-0.4-0.4-0.7-0.5-0.9-0.9v8.9h-2v-24.8H207.7z M219.7,236.2c-0.2-0.9-0.5-1.8-1.1-2.4c-0.4-0.5-1.1-1.1-1.6-1.5
		c-0.7-0.4-1.5-0.5-2.4-0.5c-0.5,0-1.1,0-1.6,0.2s-0.9,0.4-1.3,0.7c-0.4,0.4-0.7,0.7-1.1,1.1c-0.4,0.4-0.5,0.9-0.7,1.3v8.6
		c0.2,0.5,0.5,0.9,0.7,1.3c0.4,0.4,0.7,0.7,1.1,0.9c0.4,0.2,0.9,0.5,1.5,0.5c0.5,0.2,1.1,0.2,1.6,0.2c0.9,0,1.8-0.2,2.5-0.5
		c0.7-0.4,1.3-0.9,1.6-1.6c0.4-0.7,0.7-1.5,0.9-2.4c0.2-0.9,0.4-1.8,0.4-2.7v-0.4C220.1,238,219.9,237.1,219.7,236.2z"/>
	<path d="M239.8,246.5c0-0.4-0.2-0.9-0.2-1.3c-0.4,0.4-0.7,0.9-1.3,1.3c-0.4,0.4-0.9,0.7-1.5,0.9s-1.1,0.4-1.8,0.5
		c-0.7,0.2-1.3,0.2-1.8,0.2c-0.7,0-1.6-0.2-2.4-0.4c-0.7-0.2-1.3-0.5-1.8-1.1c-0.5-0.4-0.9-0.9-1.3-1.6c-0.4-0.5-0.4-1.3-0.4-2
		c0-1.1,0.2-1.8,0.7-2.5c0.5-0.7,1.1-1.3,1.8-1.8c0.7-0.4,1.6-0.7,2.5-0.9c1.1-0.2,2-0.4,3.1-0.4h3.8v-2c0-0.7-0.2-1.3-0.4-1.8
		c-0.2-0.5-0.5-0.9-1.1-1.3c-0.4-0.4-0.9-0.5-1.5-0.7c-0.5-0.2-1.3-0.2-2-0.2c-0.5,0-1.3,0-1.8,0.2c-0.5,0.2-1.1,0.4-1.5,0.7
		c-0.4,0.4-0.7,0.7-1.1,1.1c-0.2,0.4-0.4,0.9-0.4,1.5h-2c0-0.7,0.2-1.5,0.5-2c0.4-0.7,0.9-1.3,1.5-1.6c0.5-0.4,1.3-0.7,2.2-1.1
		c0.9-0.2,1.6-0.4,2.7-0.4c0.9,0,1.8,0.2,2.5,0.4c0.7,0.2,1.5,0.5,2.2,1.1c0.5,0.5,1.1,1.1,1.5,1.8c0.4,0.7,0.5,1.6,0.5,2.5v8.6
		c0,0.5,0,1.3,0.2,1.8s0.2,1.1,0.4,1.6v0.2h-2C239.8,247.5,239.8,247.1,239.8,246.5z M235.4,246.2c0.5-0.2,1.3-0.4,1.6-0.7
		c0.4-0.4,0.9-0.7,1.5-1.1c0.4-0.4,0.7-0.9,0.9-1.5v-3.8h-3.6c-0.9,0-1.8,0-2.7,0.2c-0.9,0.2-1.6,0.4-2.2,0.7
		c-0.5,0.4-0.9,0.7-1.3,1.1c-0.4,0.4-0.4,1.1-0.4,1.6c0,0.5,0.2,0.9,0.4,1.5c0.2,0.4,0.5,0.7,0.9,1.1c0.4,0.4,0.7,0.5,1.3,0.7
		c0.5,0.2,1.1,0.2,1.6,0.2C234.1,246.4,234.8,246.4,235.4,246.2z"/>
	<path d="M261.1,230c0.5,0,0.9,0.2,1.3,0.2l-0.2,1.8c-0.4,0-0.9-0.2-1.3-0.2c-0.5,0-0.9,0-1.5,0c-0.9,0-1.6,0-2.4,0.4
		c-0.7,0.2-1.5,0.5-2,0.9c-0.5,0.4-1.1,0.9-1.5,1.5c-0.4,0.5-0.7,1.3-0.9,2.2V248h-2v-17.7h1.8l0.2,2.7v0.7c0.7-1.3,1.6-2.2,2.7-2.9
		c1.1-0.7,2.5-1.1,4.2-0.9C260.1,229.8,260.5,229.8,261.1,230z"/>
	<path d="M280,246.5c0-0.4-0.2-0.9-0.2-1.3c-0.4,0.4-0.7,0.9-1.3,1.3c-0.4,0.4-0.9,0.7-1.5,0.9c-0.5,0.2-1.1,0.4-1.8,0.5
		c-0.7,0.2-1.3,0.2-1.8,0.2c-0.7,0-1.6-0.2-2.4-0.4c-0.7-0.2-1.3-0.5-1.8-1.1c-0.5-0.4-0.9-0.9-1.3-1.6c-0.4-0.5-0.4-1.3-0.4-2
		c0-1.1,0.2-1.8,0.7-2.5c0.5-0.7,1.1-1.3,1.8-1.8c0.7-0.4,1.6-0.7,2.5-0.9c1.1-0.2,2-0.4,3.1-0.4h3.8v-2c0-0.7-0.2-1.3-0.4-1.8
		c-0.2-0.5-0.5-0.9-1.1-1.3c-0.4-0.4-0.9-0.5-1.5-0.7c-0.5-0.2-1.3-0.2-2-0.2c-0.5,0-1.3,0-1.8,0.2c-0.5,0.2-1.1,0.4-1.5,0.7
		s-0.7,0.7-1.1,1.1c-0.2,0.4-0.4,0.9-0.4,1.5h-2c0-0.7,0.2-1.5,0.5-2c0.4-0.7,0.9-1.3,1.5-1.6c0.5-0.4,1.3-0.7,2.2-1.1
		c0.9-0.2,1.6-0.4,2.7-0.4c0.9,0,1.8,0.2,2.5,0.4c0.7,0.2,1.5,0.5,2.2,1.1c0.5,0.5,1.1,1.1,1.5,1.8c0.4,0.7,0.5,1.6,0.5,2.5v8.6
		c0,0.5,0,1.3,0.2,1.8s0.2,1.1,0.4,1.6v0.2h-2C280,247.5,280,247.1,280,246.5z M275.6,246.2c0.5-0.2,1.3-0.4,1.6-0.7
		c0.4-0.4,0.9-0.7,1.5-1.1c0.4-0.4,0.7-0.9,0.9-1.5v-3.8H276c-0.9,0-1.8,0-2.7,0.2c-0.9,0.2-1.6,0.4-2.2,0.7
		c-0.5,0.4-0.9,0.7-1.3,1.1c-0.4,0.4-0.4,1.1-0.4,1.6c0,0.5,0.2,0.9,0.4,1.5c0.2,0.4,0.5,0.7,0.9,1.1c0.4,0.4,0.7,0.5,1.3,0.7
		c0.5,0.2,1.1,0.2,1.6,0.2C274.3,246.4,275.1,246.4,275.6,246.2z"/>
	<path d="M288,235.6c0.2-1.1,0.7-2,1.3-2.9c0.5-0.9,1.3-1.5,2.2-2s2-0.7,3.1-0.7c0.7,0,1.3,0,1.8,0.2c0.5,0.2,1.1,0.4,1.6,0.7
		c0.4,0.2,0.7,0.5,1.1,0.9c0.4,0.4,0.5,0.7,0.9,1.1v-2.5h1.8v17.5c0,1.1-0.2,2-0.5,2.9c-0.4,0.9-0.7,1.6-1.5,2.4
		c-0.5,0.7-1.3,1.1-2.2,1.5c-0.9,0.4-1.8,0.5-2.9,0.5c-0.5,0-1.1,0-1.8-0.2c-0.5-0.2-1.3-0.4-1.8-0.7c-0.5-0.2-0.9-0.5-1.5-0.9
		c-0.5-0.4-0.9-0.7-1.3-1.3l1.1-1.3c0.4,0.4,0.7,0.7,0.9,1.1c0.4,0.4,0.7,0.5,1.1,0.7c0.4,0.2,0.9,0.5,1.5,0.5
		c0.5,0.2,0.9,0.2,1.5,0.2c0.9,0,1.6-0.2,2.2-0.4c0.5-0.2,1.3-0.7,1.6-1.1c0.4-0.5,0.7-1.1,1.1-1.8c0.2-0.7,0.4-1.5,0.4-2.4v-2
		c-0.2,0.4-0.5,0.7-0.9,0.9c-0.4,0.4-0.7,0.5-1.1,0.7c-0.5,0.2-0.9,0.4-1.5,0.5c-0.5,0.2-1.1,0.2-1.6,0.2c-1.1,0-2.2-0.2-3.1-0.7
		c-0.9-0.5-1.6-1.1-2.2-2c-0.5-0.9-1.1-1.8-1.3-2.9c-0.4-1.1-0.4-2.2-0.4-3.5v-0.4C287.6,237.6,287.6,236.5,288,235.6z M289.8,241.8
		c0.2,0.9,0.5,1.6,0.9,2.4c0.4,0.7,0.9,1.1,1.6,1.6s1.5,0.5,2.5,0.5c0.5,0,1.1,0,1.6-0.2c0.5-0.2,0.9-0.4,1.5-0.5
		c0.4-0.2,0.7-0.5,1.1-0.9c0.4-0.4,0.5-0.9,0.7-1.3v-8.4c-0.2-0.5-0.4-0.9-0.7-1.5c-0.4-0.4-0.7-0.7-1.1-1.1
		c-0.4-0.4-0.9-0.5-1.5-0.7c-0.5-0.2-1.1-0.2-1.6-0.2c-1.1,0-1.8,0.2-2.5,0.7c-0.7,0.4-1.3,1.1-1.6,1.6c-0.4,0.5-0.7,1.5-0.9,2.4
		s-0.4,1.6-0.4,2.5v0.4C289.4,240.2,289.6,241.1,289.8,241.8z"/>
	<path d="M321.3,230c0.5,0,0.9,0.2,1.3,0.2l-0.2,1.8c-0.4,0-0.9-0.2-1.3-0.2c-0.5,0-0.9,0-1.5,0c-0.9,0-1.6,0-2.4,0.4
		c-0.7,0.2-1.5,0.5-2,0.9c-0.5,0.4-1.1,0.9-1.5,1.5s-0.7,1.3-0.9,2.2V248h-2v-17.7h1.8l0.2,2.7v0.7c0.7-1.3,1.6-2.2,2.7-2.9
		c1.1-0.7,2.5-1.1,4.2-0.9C320.4,229.8,320.9,229.8,321.3,230z"/>
	<path d="M340.2,246.5c0-0.4-0.2-0.9-0.2-1.3c-0.4,0.4-0.7,0.9-1.3,1.3c-0.4,0.4-0.9,0.7-1.5,0.9c-0.5,0.2-1.1,0.4-1.8,0.5
		s-1.3,0.2-1.8,0.2c-0.7,0-1.6-0.2-2.4-0.4c-0.7-0.2-1.3-0.5-1.8-1.1c-0.5-0.4-0.9-0.9-1.3-1.6c-0.4-0.5-0.4-1.3-0.4-2
		c0-1.1,0.2-1.8,0.7-2.5c0.5-0.7,1.1-1.3,1.8-1.8c0.7-0.4,1.6-0.7,2.5-0.9c1.1-0.2,2-0.4,3.1-0.4h3.8v-2c0-0.7-0.2-1.3-0.4-1.8
		c-0.2-0.5-0.5-0.9-1.1-1.3c-0.4-0.4-0.9-0.5-1.5-0.7c-0.5-0.2-1.3-0.2-2-0.2c-0.5,0-1.3,0-1.8,0.2c-0.5,0.2-1.1,0.4-1.5,0.7
		c-0.4,0.4-0.7,0.7-1.1,1.1c-0.2,0.4-0.4,0.9-0.4,1.5h-2c0-0.7,0.2-1.5,0.5-2c0.4-0.7,0.9-1.3,1.5-1.6c0.5-0.4,1.3-0.7,2.2-1.1
		c0.9-0.2,1.6-0.4,2.7-0.4c0.9,0,1.8,0.2,2.5,0.4c0.7,0.2,1.5,0.5,2.2,1.1c0.5,0.5,1.1,1.1,1.5,1.8c0.4,0.7,0.5,1.6,0.5,2.5v8.6
		c0,0.5,0,1.3,0.2,1.8c0.2,0.5,0.2,1.1,0.4,1.6v0.2h-2C340.4,247.5,340.2,247.1,340.2,246.5z M336,246.2c0.5-0.2,1.3-0.4,1.6-0.7
		s0.9-0.7,1.5-1.1c0.4-0.4,0.7-0.9,0.9-1.5v-3.8h-3.6c-0.9,0-1.8,0-2.7,0.2c-0.9,0.2-1.6,0.4-2.2,0.7c-0.5,0.4-0.9,0.7-1.3,1.1
		c-0.4,0.4-0.4,1.1-0.4,1.6c0,0.5,0.2,0.9,0.4,1.5c0.2,0.4,0.5,0.7,0.9,1.1c0.4,0.4,0.7,0.5,1.3,0.7c0.5,0.2,1.1,0.2,1.6,0.2
		C334.8,246.4,335.3,246.4,336,246.2z"/>
	<path d="M348.4,230.2h1.8v2.4c0.2-0.4,0.5-0.7,0.9-1.1c0.4-0.4,0.7-0.5,1.1-0.9c0.5-0.2,0.9-0.5,1.6-0.5c0.7,0,1.1-0.2,1.8-0.2
		c1.1,0,2.2,0.2,3.1,0.7c0.9,0.5,1.6,1.1,2.2,1.8c0.5,0.9,1.1,1.8,1.5,2.9s0.5,2.4,0.5,3.6v0.4c0,1.1-0.2,2.4-0.4,3.5
		c-0.4,1.1-0.7,2-1.3,2.9c-0.5,0.9-1.3,1.5-2.2,2s-1.8,0.7-3.1,0.7c-0.5,0-1.3,0-1.8-0.2c-0.5-0.2-1.1-0.4-1.6-0.5
		c-0.4-0.2-0.7-0.4-1.1-0.7c-0.4-0.4-0.7-0.5-0.9-0.9v8.9h-2v-24.8H348.4z M360.4,236.2c-0.2-0.9-0.5-1.8-1.1-2.4
		c-0.4-0.5-1.1-1.1-1.6-1.5c-0.7-0.4-1.5-0.5-2.4-0.5c-0.5,0-1.1,0-1.6,0.2c-0.5,0.2-0.9,0.4-1.3,0.7c-0.4,0.4-0.7,0.7-1.1,1.1
		c-0.4,0.4-0.5,0.9-0.7,1.3v8.6c0.2,0.5,0.5,0.9,0.7,1.3c0.4,0.4,0.7,0.7,1.1,0.9s0.9,0.5,1.5,0.5c0.5,0.2,1.1,0.2,1.6,0.2
		c0.9,0,1.8-0.2,2.5-0.5c0.7-0.4,1.3-0.9,1.6-1.6c0.4-0.7,0.7-1.5,0.9-2.4c0.2-0.9,0.4-1.8,0.4-2.7v-0.4
		C360.8,238,360.6,237.1,360.4,236.2z"/>
	<path d="M371.3,232.2c0.4-0.4,0.7-0.7,1.3-1.1c0.5-0.4,1.1-0.7,1.8-0.9c0.7-0.2,1.3-0.4,2-0.4c0.9,0,1.8,0.2,2.5,0.4
		c0.7,0.4,1.5,0.7,1.8,1.3c0.5,0.5,0.9,1.3,1.1,2.2c0.2,0.9,0.4,1.8,0.4,2.9v11.3h-2v-11.3c0-0.7-0.2-1.5-0.4-2
		c-0.2-0.5-0.4-1.1-0.7-1.6c-0.4-0.4-0.9-0.7-1.5-1.1c-0.5-0.2-1.3-0.4-2-0.4c-0.7,0-1.3,0.2-2,0.4c-0.5,0.2-1.1,0.5-1.6,0.9
		s-0.9,0.7-1.3,1.3s-0.5,1.1-0.7,1.6v12.2h-2v-25.1h2v10.9C370.8,233.1,371,232.7,371.3,232.2z"/>
	<path d="M415.2,230.2h6.6v1.6h-6.6v11.1c0,0.7,0.2,1.3,0.4,1.6c0.2,0.4,0.5,0.7,0.9,1.1c0.4,0.4,0.7,0.5,1.3,0.5
		c0.5,0,0.9,0.2,1.5,0.2c0.4,0,0.5,0,0.9,0s0.5,0,0.9,0c0.2,0,0.5,0,0.7-0.2c0.2,0,0.4,0,0.5,0l0.4,1.5c-0.2,0-0.4,0.2-0.7,0.2
		c-0.4,0-0.5,0.2-0.7,0.2c-0.4,0-0.7,0.2-1.1,0.2c-0.4,0-0.7,0-1.1,0c-0.7,0-1.5-0.2-2.2-0.4c-0.7-0.2-1.3-0.5-1.8-0.9
		c-0.5-0.4-0.9-0.9-1.1-1.6c-0.4-0.7-0.4-1.5-0.4-2.4v-11.1h-4.9v-1.6h4.9v-4.5h2L415.2,230.2z"/>
	<path d="M433,247.5c-1.1-0.5-1.8-1.1-2.5-1.8c-0.7-0.7-1.3-1.6-1.6-2.7c-0.4-1.1-0.5-2.2-0.5-3.3v-0.7c0-1.3,0.2-2.4,0.5-3.5
		c0.4-1.1,0.9-2,1.6-2.9c0.7-0.7,1.5-1.5,2.5-1.8c0.9-0.5,2-0.7,3.1-0.7c1.1,0,2.2,0.2,3.1,0.5c0.9,0.4,1.6,0.9,2.4,1.8
		c0.5,0.7,1.1,1.6,1.5,2.5s0.5,2,0.5,3.1v1.3h-13.3v0.5c0,0.9,0.2,1.8,0.5,2.5c0.4,0.7,0.7,1.5,1.3,2.2c0.5,0.7,1.3,1.1,2,1.5
		c0.7,0.4,1.6,0.5,2.5,0.5c1.1,0,2-0.2,2.9-0.5c0.9-0.4,1.6-1.1,2.2-1.8l1.3,0.9c-0.7,0.9-1.6,1.6-2.7,2.2s-2.4,0.9-3.8,0.9
		C435.2,248.2,434,248,433,247.5z M433.8,232c-0.7,0.4-1.3,0.7-1.8,1.3c-0.5,0.5-0.9,1.1-1.3,1.8c-0.4,0.7-0.5,1.5-0.7,2.4h11.3
		v-0.2c0-0.7-0.2-1.5-0.4-2.2c-0.2-0.7-0.5-1.3-1.1-1.8c-0.4-0.5-1.1-0.9-1.6-1.3c-0.7-0.4-1.5-0.5-2.2-0.5
		C435.2,231.6,434.5,231.6,433.8,232z"/>
	<path d="M461.4,230.2h2.4l-6.7,8.7l7.1,9.1h-2.4l-5.8-7.5l-5.8,7.5h-2.4l7.1-9.1l-6.7-8.7h2.4l5.5,7.3L461.4,230.2z"/>
	<path d="M475.6,230.2h6.6v1.6h-6.6v11.1c0,0.7,0.2,1.3,0.4,1.6c0.2,0.4,0.5,0.7,0.9,1.1c0.4,0.4,0.7,0.5,1.3,0.5
		c0.5,0,0.9,0.2,1.5,0.2c0.4,0,0.5,0,0.9,0s0.5,0,0.9,0c0.2,0,0.5,0,0.7-0.2c0.2,0,0.4,0,0.5,0l0.4,1.5c-0.2,0-0.4,0.2-0.7,0.2
		s-0.5,0.2-0.7,0.2c-0.4,0-0.7,0.2-1.1,0.2s-0.7,0-1.1,0c-0.7,0-1.5-0.2-2.2-0.4c-0.7-0.2-1.3-0.5-1.8-0.9c-0.5-0.4-0.9-0.9-1.1-1.6
		c-0.4-0.7-0.4-1.5-0.4-2.4v-11.1h-4.9v-1.6h4.9v-4.5h2L475.6,230.2z"/>
	<path d="M517.9,230.2v16h6v1.8h-14.2v-1.8h6.2V232h-6.2v-1.8H517.9z M515.5,224.7c0-0.2,0.2-0.4,0.4-0.5s0.4-0.2,0.4-0.4
		c0.2,0,0.4-0.2,0.7-0.2c0.4,0,0.5,0,0.7,0.2c0.2,0,0.4,0.2,0.4,0.4c0.2,0.2,0.2,0.4,0.4,0.5c0,0.2,0.2,0.4,0.2,0.5
		c0,0.4-0.2,0.7-0.4,1.1c-0.2,0.4-0.5,0.4-1.1,0.4s-0.9-0.2-1.1-0.4c-0.2-0.2-0.4-0.5-0.4-1.1C515.3,225.1,515.5,224.9,515.5,224.7z
		"/>
	<path d="M529.3,230.2h1.8l0.2,3.5c0.2-0.5,0.5-0.9,0.9-1.5c0.4-0.4,0.7-0.7,1.3-1.1c0.5-0.4,1.1-0.7,1.8-0.9c0.7-0.2,1.3-0.4,2-0.4
		c0.9,0,1.8,0.2,2.5,0.4c0.7,0.4,1.5,0.7,1.8,1.3c0.5,0.5,0.9,1.3,1.1,2.2c0.2,0.9,0.4,1.8,0.4,2.9v11.3h-2v-11.3
		c0-0.7-0.2-1.5-0.4-2.2c-0.2-0.7-0.4-1.1-0.9-1.6c-0.4-0.4-0.9-0.7-1.5-0.9s-1.3-0.4-2-0.4s-1.3,0.2-1.8,0.4
		c-0.5,0.2-1.1,0.5-1.6,0.9c-0.4,0.4-0.9,0.7-1.3,1.3s-0.5,1.1-0.7,1.6v12h-2v-17.5H529.3z"/>
	<path d="M575.4,248c-0.2,0.5-0.2,1.1-0.5,1.5c-0.2,0.4-0.4,0.9-0.7,1.3c-0.4,0.4-0.5,0.7-0.9,1.1l-1.1-0.9c0.5-0.7,0.9-1.5,1.1-2.2
		c0.2-0.7,0.4-1.5,0.4-2.4V244h2v2.2C575.4,246.9,575.4,247.5,575.4,248z M579.4,248c-0.2,0.5-0.2,1.1-0.5,1.5
		c-0.2,0.4-0.4,0.9-0.7,1.3c-0.2,0.4-0.5,0.7-0.9,1.1l-1.1-0.9c0.5-0.7,0.9-1.5,1.1-2.2c0.2-0.7,0.4-1.5,0.4-2.4V244h2v2.2
		C579.6,246.9,579.6,247.5,579.4,248z"/>
	<path d="M591.8,238v10h-2v-23.8h6.7c1.1,0,2,0.2,2.9,0.5c0.9,0.4,1.8,0.7,2.4,1.5c0.7,0.5,1.3,1.3,1.6,2.2s0.5,1.8,0.5,2.9
		c0,0.7-0.2,1.5-0.4,2.2s-0.5,1.3-0.9,1.8c-0.4,0.5-0.9,0.9-1.5,1.5c-0.5,0.4-1.3,0.7-1.8,1.1l5.5,10.2v0.2h-2l-5.3-10h-5.8V238z
		 M597,236.2c0.7,0,1.5-0.2,2-0.4c0.5-0.2,1.3-0.5,1.6-1.1c0.5-0.4,0.9-0.9,1.1-1.6c0.2-0.7,0.4-1.3,0.4-2.2c0-0.7-0.2-1.6-0.4-2.2
		c-0.4-0.7-0.7-1.3-1.3-1.6c-0.5-0.4-1.1-0.7-1.8-1.1c-0.7-0.2-1.5-0.4-2.2-0.4h-4.7v10.6L597,236.2L597,236.2z"/>
	<path d="M609.2,235.3c0.4-1.1,0.9-2,1.6-2.9c0.7-0.7,1.5-1.5,2.5-2c0.9-0.5,2-0.7,3.3-0.7s2.4,0.2,3.3,0.7c0.9,0.5,1.8,1.1,2.5,2
		s1.3,1.8,1.6,2.9c0.4,1.1,0.5,2.2,0.5,3.5v0.5c0,1.3-0.2,2.4-0.5,3.5c-0.4,1.1-0.9,2-1.5,2.9c-0.7,0.7-1.5,1.5-2.5,2
		c-0.9,0.5-2,0.7-3.3,0.7s-2.4-0.2-3.3-0.7c-0.9-0.5-1.8-1.1-2.5-2c-0.7-0.7-1.3-1.8-1.6-2.9c-0.4-1.1-0.5-2.2-0.5-3.5v-0.5
		C608.7,237.6,608.9,236.4,609.2,235.3z M611,242c0.2,0.9,0.7,1.6,1.1,2.4c0.5,0.7,1.1,1.3,1.8,1.6c0.7,0.4,1.6,0.5,2.5,0.5
		s1.8-0.2,2.5-0.5c0.7-0.4,1.3-0.9,1.8-1.6c0.5-0.7,0.9-1.5,1.1-2.4c0.2-0.9,0.4-1.8,0.4-2.7v-0.5c0-0.9-0.2-1.8-0.4-2.7
		s-0.7-1.6-1.1-2.4c-0.5-0.7-1.1-1.3-1.8-1.6c-0.7-0.4-1.6-0.5-2.5-0.5s-1.8,0.2-2.5,0.5c-0.7,0.4-1.3,0.9-1.8,1.6
		c-0.5,0.7-0.9,1.5-1.1,2.4s-0.4,1.8-0.4,2.7v0.5C610.7,240.2,610.9,241.1,611,242z"/>
	<path d="M644,241.4c-0.2,0.7-0.4,1.5-0.5,2c-0.2,0.7-0.5,1.5-1.1,2c-0.4,0.5-0.9,1.1-1.5,1.6c-0.5,0.4-1.1,0.7-1.6,0.9
		s-1.3,0.4-2,0.4s-1.3,0-1.8-0.2c-0.5-0.2-1.1-0.4-1.6-0.7c-0.4-0.2-0.7-0.4-1.1-0.7c-0.4-0.4-0.5-0.5-0.9-0.9v2.4H630v-25.1h2v9.8
		c0.4-0.4,0.5-0.7,0.9-1.1c0.4-0.4,0.7-0.5,1.1-0.9c0.5-0.2,0.9-0.5,1.5-0.5c0.5-0.2,1.1-0.2,1.6-0.2c0.7,0,1.6,0.2,2.2,0.4
		c0.5,0.2,1.3,0.5,1.8,0.9c0.5,0.4,0.9,0.9,1.3,1.5s0.7,1.1,0.9,1.8c0.2,0.7,0.4,1.5,0.5,2.2c0.2,0.7,0.2,1.6,0.2,2.4v0.4
		C644.2,240,644.2,240.7,644,241.4z M642.2,237.1c0-0.5-0.2-1.1-0.4-1.6c-0.2-0.5-0.4-1.1-0.7-1.6c-0.4-0.5-0.7-0.9-1.1-1.3
		s-0.9-0.5-1.3-0.7c-0.5-0.2-1.1-0.2-1.6-0.2s-1.1,0-1.6,0.2c-0.5,0.2-0.9,0.4-1.5,0.7c-0.4,0.4-0.7,0.7-1.1,1.1
		c-0.4,0.4-0.5,0.9-0.7,1.5v8.2c0.2,0.5,0.5,0.9,0.7,1.3c0.4,0.4,0.7,0.7,1.1,1.1c0.4,0.4,0.9,0.5,1.5,0.7c0.5,0.2,1.1,0.2,1.6,0.2
		s1.3,0,1.6-0.2c0.4-0.2,0.9-0.4,1.3-0.7c0.4-0.4,0.7-0.7,1.1-1.3s0.5-1.1,0.7-1.6c0.2-0.5,0.4-1.1,0.4-1.6s0.2-1.1,0.2-1.6v-0.4
		C642.3,238.4,642.2,237.6,642.2,237.1z"/>
	<path d="M649.4,235.3c0.4-1.1,0.9-2,1.6-2.9c0.7-0.7,1.5-1.5,2.5-2c0.9-0.5,2-0.7,3.3-0.7c1.3,0,2.4,0.2,3.3,0.7
		c0.9,0.5,1.8,1.1,2.5,2c0.7,0.9,1.3,1.8,1.6,2.9c0.4,1.1,0.5,2.2,0.5,3.5v0.5c0,1.3-0.2,2.4-0.5,3.5c-0.4,1.1-0.9,2-1.5,2.9
		c-0.7,0.7-1.5,1.5-2.5,2c-0.9,0.5-2,0.7-3.3,0.7c-1.3,0-2.4-0.2-3.3-0.7c-0.9-0.5-1.8-1.1-2.5-2c-0.7-0.7-1.3-1.8-1.6-2.9
		c-0.4-1.1-0.5-2.2-0.5-3.5v-0.5C648.9,237.6,649.1,236.4,649.4,235.3z M651.3,242c0.2,0.9,0.7,1.6,1.1,2.4c0.5,0.7,1.1,1.3,1.8,1.6
		c0.7,0.4,1.6,0.5,2.5,0.5c0.9,0,1.8-0.2,2.5-0.5c0.7-0.4,1.3-0.9,1.8-1.6c0.5-0.7,0.9-1.5,1.1-2.4c0.2-0.9,0.4-1.8,0.4-2.7v-0.5
		c0-0.9-0.2-1.8-0.4-2.7s-0.7-1.6-1.1-2.4c-0.5-0.7-1.1-1.3-1.8-1.6c-0.7-0.4-1.6-0.5-2.5-0.5c-0.9,0-1.8,0.2-2.5,0.5
		c-0.7,0.4-1.3,0.9-1.8,1.6c-0.5,0.7-0.9,1.5-1.1,2.4s-0.4,1.8-0.4,2.7v0.5C650.9,240.2,651.1,241.1,651.3,242z"/>
	<path d="M676.6,230.2h6.6v1.6h-6.6v11.1c0,0.7,0.2,1.3,0.4,1.6c0.2,0.4,0.5,0.7,0.9,1.1c0.4,0.4,0.7,0.5,1.3,0.5s0.9,0.2,1.5,0.2
		c0.4,0,0.5,0,0.9,0c0.4,0,0.5,0,0.9,0c0.2,0,0.5,0,0.7-0.2c0.2,0,0.4,0,0.5,0l0.4,1.5c-0.2,0-0.4,0.2-0.7,0.2s-0.5,0.2-0.7,0.2
		c-0.4,0-0.7,0.2-1.1,0.2c-0.4,0-0.7,0-1.1,0c-0.7,0-1.5-0.2-2.2-0.4c-0.7-0.2-1.3-0.5-1.8-0.9s-0.9-0.9-1.1-1.6
		c-0.4-0.7-0.4-1.5-0.4-2.4v-11.1H670v-1.6h4.9v-4.5h2L676.6,230.2z"/>
	<path d="M689.7,235.3c0.4-1.1,0.9-2,1.6-2.9c0.7-0.7,1.5-1.5,2.5-2c0.9-0.5,2-0.7,3.3-0.7s2.4,0.2,3.3,0.7c0.9,0.5,1.8,1.1,2.5,2
		s1.3,1.8,1.6,2.9c0.4,1.1,0.5,2.2,0.5,3.5v0.5c0,1.3-0.2,2.4-0.5,3.5c-0.4,1.1-0.9,2-1.5,2.9c-0.7,0.7-1.5,1.5-2.5,2
		c-0.9,0.5-2,0.7-3.3,0.7c-1.3,0-2.4-0.2-3.3-0.7c-0.9-0.5-1.8-1.1-2.5-2c-0.7-0.7-1.3-1.8-1.6-2.9s-0.5-2.2-0.5-3.5v-0.5
		C689.1,237.6,689.3,236.4,689.7,235.3z M691.5,242c0.2,0.9,0.7,1.6,1.1,2.4c0.5,0.7,1.1,1.3,1.8,1.6c0.7,0.4,1.6,0.5,2.5,0.5
		c0.9,0,1.8-0.2,2.5-0.5c0.7-0.4,1.3-0.9,1.8-1.6c0.5-0.7,0.9-1.5,1.1-2.4c0.2-0.9,0.4-1.8,0.4-2.7v-0.5c0-0.9-0.2-1.8-0.4-2.7
		c-0.2-0.9-0.7-1.6-1.1-2.4c-0.5-0.7-1.1-1.3-1.8-1.6s-1.6-0.5-2.5-0.5c-0.9,0-1.8,0.2-2.5,0.5c-0.7,0.4-1.3,0.9-1.8,1.6
		c-0.5,0.7-0.9,1.5-1.1,2.4s-0.4,1.8-0.4,2.7v0.5C691.1,240.2,691.3,241.1,691.5,242z"/>
	<path d="M737.4,237.4l5.1-13.5h2.5v23.8h-1.8v-10.6l0.2-10.6l-5.3,13.8h-1.3l-4.9-13.7l0.2,10.2v10.6h-2v-23.8h2.5L737.4,237.4z"/>
	<path d="M750.1,235.3c0.4-1.1,0.9-2,1.6-2.9c0.7-0.7,1.5-1.5,2.5-2c0.9-0.5,2-0.7,3.3-0.7c1.3,0,2.4,0.2,3.3,0.7
		c0.9,0.5,1.8,1.1,2.5,2c0.7,0.9,1.3,1.8,1.6,2.9c0.4,1.1,0.5,2.2,0.5,3.5v0.5c0,1.3-0.2,2.4-0.5,3.5c-0.4,1.1-0.9,2-1.5,2.9
		c-0.7,0.7-1.5,1.5-2.5,2c-0.9,0.5-2,0.7-3.3,0.7s-2.4-0.2-3.3-0.7c-0.9-0.5-1.8-1.1-2.5-2c-0.7-0.7-1.3-1.8-1.6-2.9
		c-0.4-1.1-0.5-2.2-0.5-3.5v-0.5C749.5,237.6,749.7,236.4,750.1,235.3z M751.9,242c0.2,0.9,0.7,1.6,1.1,2.4c0.5,0.7,1.1,1.3,1.8,1.6
		c0.7,0.4,1.6,0.5,2.5,0.5c0.9,0,1.8-0.2,2.5-0.5c0.7-0.4,1.3-0.9,1.8-1.6c0.5-0.7,0.9-1.5,1.1-2.4c0.2-0.9,0.4-1.8,0.4-2.7v-0.5
		c0-0.9-0.2-1.8-0.4-2.7s-0.7-1.6-1.1-2.4c-0.5-0.7-1.1-1.3-1.8-1.6c-0.7-0.4-1.6-0.5-2.5-0.5c-0.9,0-1.8,0.2-2.5,0.5
		s-1.3,0.9-1.8,1.6c-0.5,0.7-0.9,1.5-1.1,2.4c-0.2,0.9-0.4,1.8-0.4,2.7v0.5C751.4,240.2,751.5,241.1,751.9,242z"/>
	<path d="M770.7,230.2h1.8l0.2,3.5c0.2-0.5,0.5-0.9,0.9-1.5c0.4-0.4,0.7-0.7,1.3-1.1c0.5-0.4,1.1-0.7,1.8-0.9c0.7-0.2,1.3-0.4,2-0.4
		c0.9,0,1.8,0.2,2.5,0.4c0.7,0.4,1.5,0.7,1.8,1.3c0.5,0.5,0.9,1.3,1.1,2.2c0.2,0.9,0.4,1.8,0.4,2.9v11.3h-2v-11.3
		c0-0.7-0.2-1.5-0.4-2.2c-0.2-0.7-0.4-1.1-0.9-1.6c-0.4-0.4-0.9-0.7-1.5-0.9s-1.3-0.4-2-0.4s-1.3,0.2-1.8,0.4
		c-0.5,0.2-1.1,0.5-1.6,0.9c-0.4,0.4-0.9,0.7-1.3,1.3c-0.4,0.5-0.5,1.1-0.7,1.6v12h-2v-17.5H770.7z"/>
	<path d="M790.3,235.3c0.4-1.1,0.9-2,1.6-2.9c0.7-0.7,1.5-1.5,2.5-2c0.9-0.5,2-0.7,3.3-0.7c1.3,0,2.4,0.2,3.3,0.7
		c0.9,0.5,1.8,1.1,2.5,2c0.7,0.9,1.3,1.8,1.6,2.9c0.4,1.1,0.5,2.2,0.5,3.5v0.5c0,1.3-0.2,2.4-0.5,3.5c-0.4,1.1-0.9,2-1.5,2.9
		c-0.7,0.7-1.5,1.5-2.5,2c-0.9,0.5-2,0.7-3.3,0.7c-1.3,0-2.4-0.2-3.3-0.7c-0.9-0.5-1.8-1.1-2.5-2c-0.7-0.7-1.3-1.8-1.6-2.9
		c-0.4-1.1-0.5-2.2-0.5-3.5v-0.5C789.8,237.6,789.9,236.4,790.3,235.3z M792,242c0.2,0.9,0.7,1.6,1.1,2.4c0.5,0.7,1.1,1.3,1.8,1.6
		c0.7,0.4,1.6,0.5,2.5,0.5c0.9,0,1.8-0.2,2.5-0.5c0.7-0.4,1.3-0.9,1.8-1.6c0.5-0.7,0.9-1.5,1.1-2.4c0.2-0.9,0.4-1.8,0.4-2.7v-0.5
		c0-0.9-0.2-1.8-0.4-2.7s-0.7-1.6-1.1-2.4c-0.5-0.7-1.1-1.3-1.8-1.6c-0.7-0.4-1.6-0.5-2.5-0.5c-0.9,0-1.8,0.2-2.5,0.5
		c-0.7,0.4-1.3,0.9-1.8,1.6c-0.5,0.7-0.9,1.5-1.1,2.4s-0.4,1.8-0.4,2.7v0.5C791.6,240.2,791.8,241.1,792,242z"/>
	<path d="M845.5,246.2v1.6h-14V224h2v22h12V246.2z"/>
	<path d="M859.7,230.2v16h6v1.8h-14.2v-1.8h6.2V232h-6.2v-1.8H859.7z M857.3,224.7c0-0.2,0.2-0.4,0.4-0.5s0.4-0.2,0.4-0.4
		c0.2,0,0.4-0.2,0.7-0.2s0.5,0,0.7,0.2c0.2,0,0.4,0.2,0.4,0.4c0.2,0.2,0.2,0.4,0.4,0.5c0,0.2,0.2,0.4,0.2,0.5c0,0.4-0.2,0.7-0.4,1.1
		c-0.2,0.4-0.5,0.4-1.1,0.4s-0.9-0.2-1.1-0.4c-0.2-0.2-0.4-0.5-0.4-1.1C857.1,225.1,857.1,224.9,857.3,224.7z"/>
	<path d="M870.9,235.6c0.2-1.1,0.7-2,1.3-2.9c0.5-0.9,1.3-1.5,2.2-2c0.9-0.5,2-0.7,3.1-0.7c0.7,0,1.3,0,1.8,0.2
		c0.5,0.2,1.1,0.4,1.6,0.7c0.4,0.2,0.7,0.5,1.1,0.9c0.4,0.4,0.5,0.7,0.9,1.1v-2.5h1.8v17.5c0,1.1-0.2,2-0.5,2.9
		c-0.4,0.9-0.7,1.6-1.5,2.4c-0.5,0.7-1.3,1.1-2.2,1.5c-0.9,0.4-1.8,0.5-2.9,0.5c-0.5,0-1.1,0-1.8-0.2c-0.5-0.2-1.3-0.4-1.8-0.7
		c-0.5-0.2-0.9-0.5-1.5-0.9c-0.5-0.4-0.9-0.7-1.3-1.3l1.1-1.3c0.4,0.4,0.7,0.7,0.9,1.1c0.4,0.4,0.7,0.5,1.1,0.7
		c0.4,0.2,0.9,0.5,1.5,0.5c0.5,0.2,0.9,0.2,1.5,0.2c0.9,0,1.6-0.2,2.2-0.4c0.5-0.2,1.3-0.7,1.6-1.1c0.4-0.5,0.7-1.1,1.1-1.8
		c0.2-0.7,0.4-1.5,0.4-2.4v-2c-0.2,0.4-0.5,0.7-0.9,0.9c-0.4,0.4-0.7,0.5-1.1,0.7c-0.5,0.2-0.9,0.4-1.5,0.5
		c-0.5,0.2-1.1,0.2-1.6,0.2c-1.1,0-2.2-0.2-3.1-0.7c-0.9-0.5-1.6-1.1-2.2-2c-0.5-0.9-1.1-1.8-1.3-2.9c-0.4-1.1-0.4-2.2-0.4-3.5v-0.4
		C870.6,237.6,870.8,236.5,870.9,235.6z M872.8,241.8c0.2,0.9,0.5,1.6,0.9,2.4c0.4,0.7,0.9,1.1,1.6,1.6c0.7,0.5,1.5,0.5,2.5,0.5
		c0.5,0,1.1,0,1.6-0.2c0.5-0.2,0.9-0.4,1.5-0.5c0.4-0.2,0.7-0.5,1.1-0.9c0.4-0.4,0.5-0.9,0.7-1.3v-8.4c-0.2-0.5-0.4-0.9-0.7-1.5
		c-0.4-0.4-0.7-0.7-1.1-1.1c-0.4-0.4-0.9-0.5-1.5-0.7c-0.5-0.2-1.1-0.2-1.6-0.2c-1.1,0-1.8,0.2-2.5,0.7c-0.7,0.4-1.3,1.1-1.6,1.6
		c-0.4,0.5-0.7,1.5-0.9,2.4s-0.4,1.6-0.4,2.5v0.4C872.6,240.2,872.6,241.1,872.8,241.8z"/>
	<path d="M894.1,232.2c0.4-0.4,0.7-0.7,1.3-1.1c0.5-0.4,1.1-0.7,1.8-0.9c0.7-0.2,1.3-0.4,2-0.4c0.9,0,1.8,0.2,2.5,0.4
		c0.7,0.4,1.5,0.7,1.8,1.3c0.5,0.5,0.9,1.3,1.1,2.2c0.2,0.9,0.4,1.8,0.4,2.9v11.3h-2v-11.3c0-0.7-0.2-1.5-0.4-2s-0.4-1.1-0.7-1.6
		c-0.4-0.4-0.9-0.7-1.5-1.1c-0.5-0.2-1.3-0.4-2-0.4c-0.7,0-1.3,0.2-2,0.4c-0.5,0.2-1.1,0.5-1.6,0.9c-0.5,0.4-0.9,0.7-1.3,1.3
		s-0.5,1.1-0.7,1.6v12.2h-2v-25.1h2v10.9C893.5,233.1,893.7,232.7,894.1,232.2z"/>
	<path d="M917.9,230.2h6.6v1.6h-6.6v11.1c0,0.7,0.2,1.3,0.4,1.6c0.2,0.4,0.5,0.7,0.9,1.1c0.4,0.4,0.7,0.5,1.3,0.5s0.9,0.2,1.5,0.2
		c0.4,0,0.5,0,0.9,0s0.5,0,0.9,0c0.2,0,0.5,0,0.7-0.2c0.2,0,0.4,0,0.5,0l0.4,1.5c-0.2,0-0.4,0.2-0.7,0.2s-0.5,0.2-0.7,0.2
		c-0.4,0-0.7,0.2-1.1,0.2s-0.7,0-1.1,0c-0.7,0-1.5-0.2-2.2-0.4c-0.7-0.2-1.3-0.5-1.8-0.9c-0.5-0.4-0.9-0.9-1.1-1.6
		c-0.4-0.7-0.4-1.5-0.4-2.4v-11.1h-4.9v-1.6h4.9v-4.5h2L917.9,230.2z"/>
	<path d="M934.5,226.3c0.2-0.5,0.2-0.9,0.4-1.5c0.2-0.5,0.4-0.9,0.7-1.3s0.5-0.7,0.9-1.1l1.1,0.9c-0.5,0.7-0.9,1.5-1.1,2.2
		c-0.2,0.7-0.4,1.5-0.4,2.4v2h-2v-2C934.3,227.3,934.3,226.9,934.5,226.3z M939.6,226.3c0-0.5,0.2-0.9,0.4-1.5
		c0.2-0.5,0.4-0.9,0.7-1.3s0.5-0.7,0.9-1.1l1.1,0.9c-0.5,0.7-0.9,1.5-1.1,2.2c-0.2,0.7-0.4,1.5-0.4,2.4v2h-2v-2
		C939.4,227.3,939.4,226.9,939.6,226.3z"/>
</g>
<rect x="1.2" y="52.7" class="st0" width="32.6" height="195.3"/>
</svg>
