<?xml version="1.0" encoding="utf-8"?>
<!-- Generator: Adobe Illustrator 26.0.1, SVG Export Plug-In . SVG Version: 6.00 Build 0)  -->
<svg version="1.1" xmlns="http://www.w3.org/2000/svg" xmlns:xlink="http://www.w3.org/1999/xlink" x="0px" y="0px"
	 viewBox="0 0 1000 531.1" style="enable-background:new 0 0 1000 531.1;" xml:space="preserve">
<style type="text/css">
	.st0{opacity:0.5;}
	.st1{fill:#071D1B;}
	.st2{fill:#EE7862;}
	.st3{fill:#020203;}
</style>
<g id="back-layer">
	<g class="st0">
		<path class="st1" d="M173.1,477.4h-2.1v5.5h-2.8v-14.6h4.9c0.8,0,1.5,0.1,2.2,0.3s1.2,0.5,1.7,0.8c0.5,0.4,0.8,0.8,1.1,1.4
			c0.3,0.6,0.4,1.2,0.4,1.9c0,0.5-0.1,1-0.2,1.4s-0.3,0.8-0.5,1.1s-0.5,0.6-0.8,0.9s-0.7,0.5-1.1,0.6l3.1,6v0.1h-3L173.1,477.4z
			 M170.9,475.1h2.1c0.8,0,1.4-0.2,1.8-0.6c0.4-0.4,0.6-1,0.6-1.7c0-0.7-0.2-1.3-0.6-1.7c-0.4-0.4-1-0.6-1.9-0.6h-2.1V475.1z"/>
		<path class="st1" d="M185.8,483.1c-0.8,0-1.6-0.1-2.3-0.4c-0.7-0.3-1.3-0.6-1.8-1.1s-0.9-1-1.1-1.7c-0.3-0.6-0.4-1.3-0.4-2.1v-0.4
			c0-0.8,0.1-1.6,0.4-2.3s0.6-1.3,1.1-1.8c0.5-0.5,1-0.9,1.7-1.2c0.6-0.3,1.3-0.4,2.1-0.4c0.8,0,1.5,0.1,2.1,0.4
			c0.6,0.3,1.1,0.6,1.6,1.1c0.4,0.5,0.7,1,1,1.7c0.2,0.7,0.3,1.4,0.3,2.2v1.2h-7.4c0.1,0.4,0.2,0.7,0.3,1c0.2,0.3,0.4,0.6,0.6,0.8
			c0.3,0.2,0.5,0.4,0.9,0.5c0.3,0.1,0.7,0.2,1.1,0.2c0.3,0,0.5,0,0.8-0.1c0.3-0.1,0.5-0.1,0.8-0.2c0.2-0.1,0.5-0.2,0.7-0.4
			c0.2-0.2,0.4-0.3,0.6-0.5l1.4,1.5c-0.2,0.2-0.4,0.5-0.7,0.7c-0.3,0.2-0.6,0.4-1,0.6c-0.4,0.2-0.8,0.3-1.3,0.4
			S186.4,483.1,185.8,483.1z M185.5,474.1c-0.3,0-0.6,0.1-0.9,0.2c-0.3,0.1-0.5,0.3-0.7,0.5s-0.4,0.5-0.5,0.7
			c-0.1,0.3-0.2,0.6-0.3,1h4.6v-0.2c0-0.3-0.1-0.6-0.2-0.8c-0.1-0.3-0.2-0.5-0.4-0.7c-0.2-0.2-0.4-0.3-0.7-0.5
			C186.2,474.1,185.9,474.1,185.5,474.1z"/>
		<path class="st1" d="M192.6,477.4c0-0.8,0.1-1.6,0.3-2.3c0.2-0.7,0.5-1.3,0.9-1.8s0.8-0.9,1.4-1.1c0.5-0.3,1.2-0.4,1.8-0.4
			c0.6,0,1.2,0.1,1.6,0.3c0.5,0.2,0.8,0.5,1.2,0.9l0.1-1h2.5v10.5c0,0.7-0.1,1.4-0.4,2c-0.3,0.6-0.6,1.1-1.1,1.5s-1,0.7-1.6,0.9
			c-0.6,0.2-1.3,0.3-2.1,0.3c-0.3,0-0.7,0-1.1-0.1c-0.4-0.1-0.7-0.2-1.1-0.3c-0.4-0.1-0.7-0.3-1-0.5s-0.6-0.5-0.8-0.8l1.3-1.7
			c0.4,0.4,0.8,0.7,1.2,0.9c0.4,0.2,0.9,0.3,1.5,0.3c0.8,0,1.4-0.2,1.8-0.6s0.7-1,0.7-1.8V482c-0.3,0.4-0.7,0.6-1.2,0.8
			c-0.4,0.2-0.9,0.3-1.5,0.3c-0.7,0-1.3-0.1-1.8-0.4c-0.5-0.3-1-0.7-1.4-1.2s-0.7-1.1-0.9-1.7s-0.3-1.4-0.3-2.2V477.4z M195.5,477.6
			c0,0.5,0,0.9,0.1,1.3c0.1,0.4,0.2,0.7,0.4,1c0.2,0.3,0.4,0.5,0.7,0.7c0.3,0.2,0.6,0.3,1,0.3c0.5,0,0.9-0.1,1.2-0.3
			c0.3-0.2,0.6-0.4,0.8-0.8v-4.6c-0.2-0.3-0.4-0.6-0.8-0.8c-0.3-0.2-0.7-0.3-1.2-0.3c-0.4,0-0.7,0.1-1,0.3c-0.3,0.2-0.5,0.4-0.7,0.7
			c-0.2,0.3-0.3,0.6-0.4,1c-0.1,0.4-0.1,0.8-0.1,1.3V477.6z"/>
		<path class="st1" d="M212.2,481.4c-0.4,0.5-0.8,1-1.3,1.3c-0.5,0.3-1.1,0.5-1.7,0.5c-0.6,0-1.1-0.1-1.5-0.3
			c-0.5-0.2-0.9-0.5-1.2-0.8c-0.3-0.4-0.6-0.9-0.8-1.4s-0.3-1.3-0.3-2.1V472h2.8v6.5c0,0.4,0,0.8,0.1,1.1c0.1,0.3,0.2,0.5,0.3,0.7
			s0.3,0.3,0.6,0.4c0.2,0.1,0.5,0.1,0.8,0.1c0.6,0,1-0.1,1.4-0.3c0.3-0.2,0.6-0.5,0.8-0.9V472h2.8v10.9h-2.5L212.2,481.4z"/>
		<path class="st1" d="M218.2,467.5h6.1v13.2h3.1v2.3h-9.2v-2.3h3.3v-10.9h-3.3V467.5z"/>
		<path class="st1" d="M236.8,482.9c-0.1-0.1-0.1-0.3-0.2-0.5c0-0.2-0.1-0.4-0.1-0.6c-0.2,0.2-0.3,0.3-0.5,0.5s-0.4,0.3-0.7,0.4
			c-0.2,0.1-0.5,0.2-0.8,0.3c-0.3,0.1-0.6,0.1-1,0.1c-0.6,0-1.1-0.1-1.5-0.2s-0.9-0.4-1.2-0.7c-0.3-0.3-0.6-0.6-0.8-1
			c-0.2-0.4-0.3-0.8-0.3-1.3c0-1.1,0.4-2,1.3-2.7s2.1-0.9,3.8-0.9h1.6v-0.6c0-0.5-0.2-0.9-0.5-1.2c-0.3-0.3-0.8-0.5-1.5-0.5
			c-0.6,0-1,0.1-1.2,0.4c-0.3,0.2-0.4,0.6-0.4,1H230c0-0.5,0.1-0.9,0.3-1.3c0.2-0.4,0.5-0.8,0.9-1.1c0.4-0.3,0.9-0.6,1.4-0.8
			c0.6-0.2,1.2-0.3,1.9-0.3c0.7,0,1.3,0.1,1.8,0.2c0.6,0.2,1.1,0.4,1.5,0.7c0.4,0.3,0.7,0.7,1,1.2s0.4,1,0.4,1.7v4.7
			c0,0.6,0,1.1,0.1,1.4c0.1,0.4,0.2,0.7,0.3,1v0.2H236.8z M234.2,480.9c0.3,0,0.5,0,0.8-0.1c0.2-0.1,0.5-0.2,0.7-0.3
			c0.2-0.1,0.4-0.2,0.5-0.4c0.1-0.1,0.3-0.3,0.3-0.4v-1.9H235c-0.4,0-0.8,0-1.1,0.1s-0.6,0.2-0.8,0.4c-0.2,0.2-0.3,0.3-0.4,0.5
			c-0.1,0.2-0.1,0.4-0.1,0.7c0,0.4,0.1,0.7,0.4,0.9C233.2,480.8,233.6,480.9,234.2,480.9z"/>
		<path class="st1" d="M250.2,471.8c0.4,0,0.8,0,1.2,0.1c0.4,0.1,0.6,0.1,0.9,0.2l-0.4,2.8c-0.4-0.1-0.7-0.2-1.1-0.2
			c-0.4,0-0.8-0.1-1.1-0.1c-0.8,0-1.4,0.2-1.9,0.5s-0.8,0.7-1.1,1.3v6.5h-2.8V472h2.6l0.1,1.8c0.4-0.6,1-1.1,1.6-1.5
			C248.8,472,249.5,471.8,250.2,471.8z"/>
		<path class="st1" d="M267.7,467.5h6.1v13.2h3.1v2.3h-9.2v-2.3h3.3v-10.9h-3.3V467.5z"/>
		<path class="st1" d="M279.1,477.4c0-0.8,0.1-1.5,0.3-2.2c0.2-0.7,0.6-1.3,1-1.8c0.4-0.5,1-0.9,1.6-1.2c0.6-0.3,1.4-0.4,2.2-0.4
			s1.5,0.1,2.2,0.4c0.6,0.3,1.2,0.7,1.6,1.2c0.4,0.5,0.8,1.1,1,1.8s0.3,1.4,0.3,2.2v0.2c0,0.8-0.1,1.5-0.3,2.2
			c-0.2,0.7-0.6,1.3-1,1.8s-1,0.9-1.6,1.2c-0.6,0.3-1.4,0.4-2.2,0.4c-0.8,0-1.5-0.1-2.2-0.4c-0.6-0.3-1.2-0.7-1.6-1.2
			c-0.4-0.5-0.8-1.1-1-1.8c-0.2-0.7-0.3-1.4-0.3-2.2V477.4z M281.9,477.6c0,0.5,0,0.9,0.1,1.3c0.1,0.4,0.2,0.7,0.4,1
			c0.2,0.3,0.4,0.5,0.7,0.7c0.3,0.2,0.7,0.3,1.1,0.3c0.4,0,0.8-0.1,1.1-0.3c0.3-0.2,0.5-0.4,0.7-0.7c0.2-0.3,0.3-0.6,0.4-1
			c0.1-0.4,0.1-0.8,0.1-1.3v-0.2c0-0.4,0-0.9-0.1-1.3c-0.1-0.4-0.2-0.7-0.4-1s-0.4-0.5-0.7-0.7c-0.3-0.2-0.7-0.3-1.1-0.3
			c-0.4,0-0.8,0.1-1.1,0.3c-0.3,0.2-0.5,0.4-0.7,0.7c-0.2,0.3-0.3,0.7-0.4,1c-0.1,0.4-0.1,0.8-0.1,1.3V477.6z"/>
		<path class="st1" d="M291.6,477.4c0-0.8,0.1-1.6,0.3-2.3c0.2-0.7,0.5-1.3,0.9-1.8s0.8-0.9,1.4-1.1c0.5-0.3,1.2-0.4,1.8-0.4
			c0.6,0,1.2,0.1,1.6,0.3c0.5,0.2,0.8,0.5,1.2,0.9l0.1-1h2.5v10.5c0,0.7-0.1,1.4-0.4,2c-0.3,0.6-0.6,1.1-1.1,1.5s-1,0.7-1.6,0.9
			c-0.6,0.2-1.3,0.3-2.1,0.3c-0.3,0-0.7,0-1.1-0.1c-0.4-0.1-0.7-0.2-1.1-0.3c-0.4-0.1-0.7-0.3-1-0.5s-0.6-0.5-0.8-0.8l1.3-1.7
			c0.4,0.4,0.8,0.7,1.2,0.9c0.4,0.2,0.9,0.3,1.5,0.3c0.8,0,1.4-0.2,1.8-0.6s0.7-1,0.7-1.8V482c-0.3,0.4-0.7,0.6-1.2,0.8
			c-0.4,0.2-0.9,0.3-1.5,0.3c-0.7,0-1.3-0.1-1.8-0.4c-0.5-0.3-1-0.7-1.4-1.2s-0.7-1.1-0.9-1.7s-0.3-1.4-0.3-2.2V477.4z M294.4,477.6
			c0,0.5,0,0.9,0.1,1.3c0.1,0.4,0.2,0.7,0.4,1c0.2,0.3,0.4,0.5,0.7,0.7c0.3,0.2,0.6,0.3,1,0.3c0.5,0,0.9-0.1,1.2-0.3
			c0.3-0.2,0.6-0.4,0.8-0.8v-4.6c-0.2-0.3-0.4-0.6-0.8-0.8c-0.3-0.2-0.7-0.3-1.2-0.3c-0.4,0-0.7,0.1-1,0.3c-0.3,0.2-0.5,0.4-0.7,0.7
			c-0.2,0.3-0.3,0.6-0.4,1c-0.1,0.4-0.1,0.8-0.1,1.3V477.6z"/>
		<path class="st1" d="M303.8,477.4c0-0.8,0.1-1.5,0.3-2.2c0.2-0.7,0.6-1.3,1-1.8c0.4-0.5,1-0.9,1.6-1.2c0.6-0.3,1.4-0.4,2.2-0.4
			s1.5,0.1,2.2,0.4c0.6,0.3,1.2,0.7,1.6,1.2c0.4,0.5,0.8,1.1,1,1.8s0.3,1.4,0.3,2.2v0.2c0,0.8-0.1,1.5-0.3,2.2
			c-0.2,0.7-0.6,1.3-1,1.8s-1,0.9-1.6,1.2c-0.6,0.3-1.4,0.4-2.2,0.4c-0.8,0-1.5-0.1-2.2-0.4c-0.6-0.3-1.2-0.7-1.6-1.2
			c-0.4-0.5-0.8-1.1-1-1.8c-0.2-0.7-0.3-1.4-0.3-2.2V477.4z M306.6,477.6c0,0.5,0,0.9,0.1,1.3c0.1,0.4,0.2,0.7,0.4,1
			c0.2,0.3,0.4,0.5,0.7,0.7c0.3,0.2,0.7,0.3,1.1,0.3c0.4,0,0.8-0.1,1.1-0.3c0.3-0.2,0.5-0.4,0.7-0.7c0.2-0.3,0.3-0.6,0.4-1
			c0.1-0.4,0.1-0.8,0.1-1.3v-0.2c0-0.4,0-0.9-0.1-1.3c-0.1-0.4-0.2-0.7-0.4-1s-0.4-0.5-0.7-0.7c-0.3-0.2-0.7-0.3-1.1-0.3
			c-0.4,0-0.8,0.1-1.1,0.3c-0.3,0.2-0.5,0.4-0.7,0.7c-0.2,0.3-0.3,0.7-0.4,1c-0.1,0.4-0.1,0.8-0.1,1.3V477.6z"/>
	</g>
	<g class="st0">
		<path class="st1" d="M683.2,468.3l1.4,5.5l1.6-5.5h3.5v14.6H687v-4.3l0.1-6.9l-1.9,6.4h-1.4l-1.7-6.1l0.1,6.6v4.3h-2.6v-14.6
			H683.2z"/>
		<path class="st1" d="M691.8,477.4c0-0.8,0.1-1.5,0.3-2.2c0.2-0.7,0.6-1.3,1-1.8c0.4-0.5,1-0.9,1.6-1.2c0.6-0.3,1.4-0.4,2.2-0.4
			s1.5,0.1,2.2,0.4c0.6,0.3,1.2,0.7,1.6,1.2c0.4,0.5,0.8,1.1,1,1.8s0.3,1.4,0.3,2.2v0.2c0,0.8-0.1,1.5-0.3,2.2
			c-0.2,0.7-0.6,1.3-1,1.8s-1,0.9-1.6,1.2c-0.6,0.3-1.4,0.4-2.2,0.4c-0.8,0-1.5-0.1-2.2-0.4c-0.6-0.3-1.2-0.7-1.6-1.2
			c-0.4-0.5-0.8-1.1-1-1.8c-0.2-0.7-0.3-1.4-0.3-2.2V477.4z M694.6,477.6c0,0.5,0,0.9,0.1,1.3c0.1,0.4,0.2,0.7,0.4,1
			c0.2,0.3,0.4,0.5,0.7,0.7c0.3,0.2,0.7,0.3,1.1,0.3c0.4,0,0.8-0.1,1.1-0.3c0.3-0.2,0.5-0.4,0.7-0.7c0.2-0.3,0.3-0.6,0.4-1
			c0.1-0.4,0.1-0.8,0.1-1.3v-0.2c0-0.4,0-0.9-0.1-1.3c-0.1-0.4-0.2-0.7-0.4-1s-0.4-0.5-0.7-0.7c-0.3-0.2-0.7-0.3-1.1-0.3
			c-0.4,0-0.8,0.1-1.1,0.3c-0.3,0.2-0.5,0.4-0.7,0.7c-0.2,0.3-0.3,0.7-0.4,1c-0.1,0.4-0.1,0.8-0.1,1.3V477.6z"/>
		<path class="st1" d="M707.1,472l0.2,1.5c0.4-0.5,0.9-1,1.4-1.3c0.6-0.3,1.2-0.4,1.9-0.4c0.5,0,1.1,0.1,1.5,0.2s0.9,0.4,1.2,0.8
			c0.3,0.4,0.6,0.8,0.8,1.4c0.2,0.6,0.3,1.2,0.3,2v6.7h-2.8v-6.7c0-0.4,0-0.8-0.1-1.1s-0.2-0.5-0.4-0.7s-0.4-0.3-0.7-0.3
			c-0.3-0.1-0.5-0.1-0.9-0.1c-0.5,0-0.9,0.1-1.2,0.3c-0.3,0.2-0.6,0.5-0.8,0.8v7.7h-2.8V472H707.1z"/>
		<path class="st1" d="M716.5,477.4c0-0.8,0.1-1.5,0.3-2.2c0.2-0.7,0.6-1.3,1-1.8c0.4-0.5,1-0.9,1.6-1.2c0.6-0.3,1.4-0.4,2.2-0.4
			s1.5,0.1,2.2,0.4c0.6,0.3,1.2,0.7,1.6,1.2c0.4,0.5,0.8,1.1,1,1.8s0.3,1.4,0.3,2.2v0.2c0,0.8-0.1,1.5-0.3,2.2
			c-0.2,0.7-0.6,1.3-1,1.8s-1,0.9-1.6,1.2c-0.6,0.3-1.4,0.4-2.2,0.4c-0.8,0-1.5-0.1-2.2-0.4c-0.6-0.3-1.2-0.7-1.6-1.2
			c-0.4-0.5-0.8-1.1-1-1.8c-0.2-0.7-0.3-1.4-0.3-2.2V477.4z M719.3,477.6c0,0.5,0,0.9,0.1,1.3c0.1,0.4,0.2,0.7,0.4,1
			c0.2,0.3,0.4,0.5,0.7,0.7c0.3,0.2,0.7,0.3,1.1,0.3c0.4,0,0.8-0.1,1.1-0.3c0.3-0.2,0.5-0.4,0.7-0.7c0.2-0.3,0.3-0.6,0.4-1
			c0.1-0.4,0.1-0.8,0.1-1.3v-0.2c0-0.4,0-0.9-0.1-1.3c-0.1-0.4-0.2-0.7-0.4-1s-0.4-0.5-0.7-0.7c-0.3-0.2-0.7-0.3-1.1-0.3
			c-0.4,0-0.8,0.1-1.1,0.3c-0.3,0.2-0.5,0.4-0.7,0.7c-0.2,0.3-0.3,0.7-0.4,1c-0.1,0.4-0.1,0.8-0.1,1.3V477.6z"/>
		<path class="st1" d="M734.1,480.9c0.3,0,0.5,0,0.8-0.1c0.2-0.1,0.5-0.2,0.7-0.3c0.2-0.1,0.3-0.3,0.4-0.5c0.1-0.2,0.1-0.4,0.1-0.7
			h2.6c0,0.6-0.1,1.1-0.3,1.6c-0.2,0.5-0.6,0.9-1,1.2c-0.4,0.3-0.9,0.6-1.5,0.8c-0.6,0.2-1.2,0.3-1.8,0.3c-0.8,0-1.6-0.1-2.2-0.4
			c-0.6-0.3-1.2-0.7-1.6-1.2c-0.4-0.5-0.7-1.1-1-1.7c-0.2-0.7-0.3-1.4-0.3-2.1v-0.3c0-0.8,0.1-1.5,0.3-2.1c0.2-0.7,0.5-1.2,1-1.7
			c0.4-0.5,1-0.9,1.6-1.2s1.4-0.4,2.2-0.4c0.7,0,1.3,0.1,1.9,0.3c0.6,0.2,1.1,0.5,1.5,0.8c0.4,0.4,0.7,0.8,1,1.3
			c0.2,0.5,0.3,1.1,0.3,1.7h-2.6c0-0.3,0-0.5-0.1-0.8c-0.1-0.2-0.2-0.4-0.4-0.6s-0.4-0.3-0.7-0.4c-0.3-0.1-0.5-0.2-0.8-0.2
			c-0.4,0-0.8,0.1-1.1,0.3c-0.3,0.2-0.5,0.4-0.7,0.7s-0.3,0.6-0.4,1c-0.1,0.4-0.1,0.8-0.1,1.2v0.3c0,0.4,0,0.8,0.1,1.2
			c0.1,0.4,0.2,0.7,0.4,1c0.2,0.3,0.4,0.5,0.7,0.7S733.6,480.9,734.1,480.9z"/>
		<path class="st1" d="M744.4,473.5c0.4-0.5,0.8-0.9,1.3-1.2c0.5-0.3,1.1-0.5,1.7-0.5c0.6,0,1.1,0.1,1.6,0.3s0.9,0.4,1.2,0.8
			c0.3,0.4,0.6,0.8,0.8,1.4c0.2,0.6,0.3,1.2,0.3,2v6.6h-2.8v-6.6c0-0.4,0-0.7-0.1-1c-0.1-0.3-0.2-0.5-0.4-0.7
			c-0.2-0.2-0.4-0.3-0.7-0.4s-0.5-0.1-0.9-0.1c-0.5,0-0.9,0.1-1.2,0.3c-0.3,0.2-0.6,0.4-0.9,0.7v7.9h-2.8v-15.5h2.8V473.5z"/>
		<path class="st1" d="M761.8,471.8c0.4,0,0.8,0,1.2,0.1c0.4,0.1,0.6,0.1,0.9,0.2l-0.4,2.8c-0.4-0.1-0.7-0.2-1.1-0.2
			c-0.4,0-0.8-0.1-1.1-0.1c-0.8,0-1.4,0.2-1.9,0.5s-0.8,0.7-1.1,1.3v6.5h-2.8V472h2.6l0.1,1.8c0.4-0.6,1-1.1,1.6-1.5
			C760.4,472,761.1,471.8,761.8,471.8z"/>
		<path class="st1" d="M766,477.4c0-0.8,0.1-1.5,0.3-2.2c0.2-0.7,0.6-1.3,1-1.8c0.4-0.5,1-0.9,1.6-1.2c0.6-0.3,1.4-0.4,2.2-0.4
			s1.5,0.1,2.2,0.4c0.6,0.3,1.2,0.7,1.6,1.2c0.4,0.5,0.8,1.1,1,1.8s0.3,1.4,0.3,2.2v0.2c0,0.8-0.1,1.5-0.3,2.2
			c-0.2,0.7-0.6,1.3-1,1.8s-1,0.9-1.6,1.2c-0.6,0.3-1.4,0.4-2.2,0.4c-0.8,0-1.5-0.1-2.2-0.4c-0.6-0.3-1.2-0.7-1.6-1.2
			c-0.4-0.5-0.8-1.1-1-1.8c-0.2-0.7-0.3-1.4-0.3-2.2V477.4z M768.8,477.6c0,0.5,0,0.9,0.1,1.3c0.1,0.4,0.2,0.7,0.4,1
			c0.2,0.3,0.4,0.5,0.7,0.7c0.3,0.2,0.7,0.3,1.1,0.3c0.4,0,0.8-0.1,1.1-0.3c0.3-0.2,0.5-0.4,0.7-0.7c0.2-0.3,0.3-0.6,0.4-1
			c0.1-0.4,0.1-0.8,0.1-1.3v-0.2c0-0.4,0-0.9-0.1-1.3c-0.1-0.4-0.2-0.7-0.4-1s-0.4-0.5-0.7-0.7c-0.3-0.2-0.7-0.3-1.1-0.3
			c-0.4,0-0.8,0.1-1.1,0.3c-0.3,0.2-0.5,0.4-0.7,0.7c-0.2,0.3-0.3,0.7-0.4,1c-0.1,0.4-0.1,0.8-0.1,1.3V477.6z"/>
		<path class="st1" d="M780.4,472l0.1,1.3c0.2-0.5,0.5-0.8,0.9-1.1c0.4-0.3,0.8-0.4,1.3-0.4c0.9,0,1.5,0.4,1.7,1.2
			c0.2-0.4,0.5-0.6,0.8-0.9c0.3-0.2,0.7-0.3,1.2-0.3c0.3,0,0.6,0.1,0.9,0.2c0.3,0.1,0.5,0.3,0.7,0.6c0.2,0.3,0.4,0.6,0.5,1
			c0.1,0.4,0.2,0.9,0.2,1.5v7.8h-2.5v-7.8c0-0.2,0-0.4-0.1-0.5c0-0.1-0.1-0.2-0.2-0.3s-0.2-0.1-0.3-0.2c-0.1,0-0.2,0-0.3,0
			c-0.2,0-0.4,0-0.5,0.1c-0.1,0.1-0.2,0.2-0.3,0.4v8.3h-2.5v-7.8c0-0.2,0-0.4-0.1-0.5c0-0.1-0.1-0.2-0.2-0.3
			c-0.1-0.1-0.2-0.1-0.2-0.2c-0.1,0-0.2,0-0.3,0c-0.2,0-0.4,0.1-0.5,0.2c-0.1,0.1-0.2,0.3-0.3,0.5v8.1H778V472H780.4z"/>
		<path class="st1" d="M796.3,483.1c-0.8,0-1.6-0.1-2.3-0.4c-0.7-0.3-1.3-0.6-1.8-1.1s-0.9-1-1.1-1.7c-0.3-0.6-0.4-1.3-0.4-2.1v-0.4
			c0-0.8,0.1-1.6,0.4-2.3s0.6-1.3,1.1-1.8c0.5-0.5,1-0.9,1.7-1.2c0.6-0.3,1.3-0.4,2.1-0.4c0.8,0,1.5,0.1,2.1,0.4
			c0.6,0.3,1.1,0.6,1.6,1.1c0.4,0.5,0.7,1,1,1.7c0.2,0.7,0.3,1.4,0.3,2.2v1.2h-7.4c0.1,0.4,0.2,0.7,0.3,1c0.2,0.3,0.4,0.6,0.6,0.8
			c0.3,0.2,0.5,0.4,0.9,0.5c0.3,0.1,0.7,0.2,1.1,0.2c0.3,0,0.5,0,0.8-0.1c0.3-0.1,0.5-0.1,0.8-0.2c0.2-0.1,0.5-0.2,0.7-0.4
			c0.2-0.2,0.4-0.3,0.6-0.5l1.4,1.5c-0.2,0.2-0.4,0.5-0.7,0.7c-0.3,0.2-0.6,0.4-1,0.6c-0.4,0.2-0.8,0.3-1.3,0.4
			S796.9,483.1,796.3,483.1z M796,474.1c-0.3,0-0.6,0.1-0.9,0.2c-0.3,0.1-0.5,0.3-0.7,0.5s-0.4,0.5-0.5,0.7c-0.1,0.3-0.2,0.6-0.3,1
			h4.6v-0.2c0-0.3-0.1-0.6-0.2-0.8c-0.1-0.3-0.2-0.5-0.4-0.7c-0.2-0.2-0.4-0.3-0.7-0.5C796.7,474.1,796.4,474.1,796,474.1z"/>
		<path class="st1" d="M816.4,467.5h6.1v13.2h3.1v2.3h-9.2v-2.3h3.3v-10.9h-3.3V467.5z"/>
		<path class="st1" d="M827.8,477.4c0-0.8,0.1-1.5,0.3-2.2c0.2-0.7,0.6-1.3,1-1.8c0.4-0.5,1-0.9,1.6-1.2c0.6-0.3,1.4-0.4,2.2-0.4
			s1.5,0.1,2.2,0.4c0.6,0.3,1.2,0.7,1.6,1.2c0.4,0.5,0.8,1.1,1,1.8s0.3,1.4,0.3,2.2v0.2c0,0.8-0.1,1.5-0.3,2.2
			c-0.2,0.7-0.6,1.3-1,1.8s-1,0.9-1.6,1.2c-0.6,0.3-1.4,0.4-2.2,0.4c-0.8,0-1.5-0.1-2.2-0.4c-0.6-0.3-1.2-0.7-1.6-1.2
			c-0.4-0.5-0.8-1.1-1-1.8c-0.2-0.7-0.3-1.4-0.3-2.2V477.4z M830.6,477.6c0,0.5,0,0.9,0.1,1.3c0.1,0.4,0.2,0.7,0.4,1
			c0.2,0.3,0.4,0.5,0.7,0.7c0.3,0.2,0.7,0.3,1.1,0.3c0.4,0,0.8-0.1,1.1-0.3c0.3-0.2,0.5-0.4,0.7-0.7c0.2-0.3,0.3-0.6,0.4-1
			c0.1-0.4,0.1-0.8,0.1-1.3v-0.2c0-0.4,0-0.9-0.1-1.3c-0.1-0.4-0.2-0.7-0.4-1s-0.4-0.5-0.7-0.7c-0.3-0.2-0.7-0.3-1.1-0.3
			c-0.4,0-0.8,0.1-1.1,0.3c-0.3,0.2-0.5,0.4-0.7,0.7c-0.2,0.3-0.3,0.7-0.4,1c-0.1,0.4-0.1,0.8-0.1,1.3V477.6z"/>
		<path class="st1" d="M840.2,477.4c0-0.8,0.1-1.6,0.3-2.3c0.2-0.7,0.5-1.3,0.9-1.8s0.8-0.9,1.4-1.1c0.5-0.3,1.2-0.4,1.8-0.4
			c0.6,0,1.2,0.1,1.6,0.3c0.5,0.2,0.8,0.5,1.2,0.9l0.1-1h2.5v10.5c0,0.7-0.1,1.4-0.4,2c-0.3,0.6-0.6,1.1-1.1,1.5s-1,0.7-1.6,0.9
			c-0.6,0.2-1.3,0.3-2.1,0.3c-0.3,0-0.7,0-1.1-0.1c-0.4-0.1-0.7-0.2-1.1-0.3c-0.4-0.1-0.7-0.3-1-0.5s-0.6-0.5-0.8-0.8l1.3-1.7
			c0.4,0.4,0.8,0.7,1.2,0.9c0.4,0.2,0.9,0.3,1.5,0.3c0.8,0,1.4-0.2,1.8-0.6s0.7-1,0.7-1.8V482c-0.3,0.4-0.7,0.6-1.2,0.8
			c-0.4,0.2-0.9,0.3-1.5,0.3c-0.7,0-1.3-0.1-1.8-0.4c-0.5-0.3-1-0.7-1.4-1.2s-0.7-1.1-0.9-1.7s-0.3-1.4-0.3-2.2V477.4z M843,477.6
			c0,0.5,0,0.9,0.1,1.3c0.1,0.4,0.2,0.7,0.4,1c0.2,0.3,0.4,0.5,0.7,0.7c0.3,0.2,0.6,0.3,1,0.3c0.5,0,0.9-0.1,1.2-0.3
			c0.3-0.2,0.6-0.4,0.8-0.8v-4.6c-0.2-0.3-0.4-0.6-0.8-0.8c-0.3-0.2-0.7-0.3-1.2-0.3c-0.4,0-0.7,0.1-1,0.3c-0.3,0.2-0.5,0.4-0.7,0.7
			c-0.2,0.3-0.3,0.6-0.4,1c-0.1,0.4-0.1,0.8-0.1,1.3V477.6z"/>
		<path class="st1" d="M852.5,477.4c0-0.8,0.1-1.5,0.3-2.2c0.2-0.7,0.6-1.3,1-1.8c0.4-0.5,1-0.9,1.6-1.2c0.6-0.3,1.4-0.4,2.2-0.4
			s1.5,0.1,2.2,0.4c0.6,0.3,1.2,0.7,1.6,1.2c0.4,0.5,0.8,1.1,1,1.8s0.3,1.4,0.3,2.2v0.2c0,0.8-0.1,1.5-0.3,2.2
			c-0.2,0.7-0.6,1.3-1,1.8s-1,0.9-1.6,1.2c-0.6,0.3-1.4,0.4-2.2,0.4c-0.8,0-1.5-0.1-2.2-0.4c-0.6-0.3-1.2-0.7-1.6-1.2
			c-0.4-0.5-0.8-1.1-1-1.8c-0.2-0.7-0.3-1.4-0.3-2.2V477.4z M855.3,477.6c0,0.5,0,0.9,0.1,1.3c0.1,0.4,0.2,0.7,0.4,1
			c0.2,0.3,0.4,0.5,0.7,0.7c0.3,0.2,0.7,0.3,1.1,0.3c0.4,0,0.8-0.1,1.1-0.3c0.3-0.2,0.5-0.4,0.7-0.7c0.2-0.3,0.3-0.6,0.4-1
			c0.1-0.4,0.1-0.8,0.1-1.3v-0.2c0-0.4,0-0.9-0.1-1.3c-0.1-0.4-0.2-0.7-0.4-1s-0.4-0.5-0.7-0.7c-0.3-0.2-0.7-0.3-1.1-0.3
			c-0.4,0-0.8,0.1-1.1,0.3c-0.3,0.2-0.5,0.4-0.7,0.7c-0.2,0.3-0.3,0.7-0.4,1c-0.1,0.4-0.1,0.8-0.1,1.3V477.6z"/>
	</g>
</g>
<g id="Layer_1">
	<g>
		<path class="st2" d="M127.5,134.8v121c8-6.5,11.5-15.3,11.2-24.4l0-105.5h52c13.1,0,41-11.2,41-11.2l-53.4,0
			C140.3,114.6,129.9,132.2,127.5,134.8z"/>
		<path class="st2" d="M127.5,280.6l0,56h0c2.1,0,11.1-5.6,11.1-19.6c0-0.4,0.2-63.9,0.2-63.9c-2.1,3.1-4.1,6.2-6.1,9.4
			C129.3,267.9,127.5,274.2,127.5,280.6z"/>
		<g>
			<path class="st2" d="M338.3,292.2c2.8-1.3,11.2-10.8,11.2-12.5v-39.6c-6.4,7.4-11.2,17.7-11.2,19.1V292.2z"/>
			<path class="st2" d="M349.5,336.6v-46c-3.2,1.2-11.2,11.2-11.2,12.4v22.3h-44.3c-7.1,0-13.4,4.6-15.8,11.2H349.5z"/>
			<path class="st2" d="M269.6,336.6c1.3-3.9,5-7.6,6.7-11.2h-34c-1.3,0-8.9,8.1-9.5,11.2H269.6z"/>
			<path class="st2" d="M349.5,165.5v-39.4l0,0c0,0-11.2,5.4-11.2,11.9v67.2C343.9,190.6,349.5,182,349.5,165.5z"/>
			<path class="st2" d="M147,114.7h-19.5v11C132.3,119,143.1,118.3,147,114.7z"/>
			<path class="st2" d="M338.3,246.8c2.8-0.8,11.2-18,11.2-19.6v-32.5c0-2-11.2,30.1-11.2,32V246.8z"/>
			<path class="st2" d="M323.5,125.9c21.4,0,26-11.2,26-11.2h-79.5c-35.5,0-53.6,11.1-53.6,11.1L323.5,125.9z"/>
			<path class="st2" d="M183.8,325.4h-20.2c-13.1,0-21.4,5.4-25.4,11.2l0,0h28.7C173.4,336.6,179.9,329.2,183.8,325.4z"/>
			<path class="st2" d="M224.1,336.6c0.7-3.8,5.7-7.8,9.3-11.2l-40.9,0c-5.4,6.8-5.4,6.8-11.1,11.2H224.1z"/>
		</g>
		<rect x="285.3" y="294.5" class="st2" width="33.4" height="11.2"/>
		<g>
			<g>
				<g>
					<path class="st2" d="M166.8,307.8c9.6,0,16.8-6.7,16.8-15.7V145.5h-11.2v145.8c0,3.3-3,5.2-5.6,5.2c-2.6,0-5.6-1.9-5.6-5.2
						v-37.9H150v38.7C150,301.1,157.2,307.8,166.8,307.8"/>
				</g>
			</g>
		</g>
		<g>
			<g>
				<polygon class="st2" points="251.5,233 262.7,233 262.7,305.7 273.9,305.7 273.9,145.5 262.7,145.5 262.7,221.8 251.5,221.8 
					251.5,145.5 240.3,145.5 240.3,305.7 251.5,305.7 				"/>
			</g>
		</g>
		<rect x="194.6" y="294.5" class="st2" width="34.5" height="11.2"/>
		<g>
			<g>
				<g>
					<path class="st2" d="M307.5,145.5V268c0,3.3-2.9,5.6-5.6,5.6c-2.7,0-5.6-2.3-5.6-5.6V145.5h-11.2v123.3c0,4.5,1.8,8.7,5.1,11.7
						c3.1,2.8,7.3,4.4,11.7,4.4c4.4,0,8.6-1.6,11.7-4.4c3.3-3,5.1-7.2,5.1-11.7V145.5H307.5z"/>
				</g>
			</g>
		</g>
		<g>
			<g>
				<path class="st2" d="M210.3,185.9l0.8-31.2l1.1,31.2l3.2,63.8h-7.5L210.3,185.9z M194.9,283.4h11.2l1.2-22.5h8.9l1.6,22.5H229
					l-9.9-137.9h-16.8L194.9,283.4z"/>
			</g>
		</g>
		<g>
			<g>
				<path class="st3" d="M162.7,391c0,6.6-6.1,11.1-17.8,11.1c-8.3,0-15.2-2.3-20.3-6.3l4.9-5.8c3.8,3.2,9.1,5,15.6,5
					c5.5,0,8.3-1,8.3-3.1c0-2.1-2.6-2.8-9.2-3.3c-9.6-0.8-18.3-2.9-18.3-10.1c0-6.9,7.5-10.7,17.7-10.7c6.9,0,13.3,1.7,17.7,4.8
					l-4.7,5.8c-3.6-2.5-7.9-3.5-12.9-3.6c-3.8,0-8.3,0.6-8.3,2.9c0,2.2,3.7,2.4,9.5,2.9C155.2,381.5,162.7,383.6,162.7,391z"/>
				<path class="st3" d="M265.5,391c0,6.6-6.1,11.1-17.8,11.1c-8.3,0-15.2-2.3-20.3-6.3l4.9-5.8c3.8,3.2,9.1,5,15.6,5
					c5.5,0,8.3-1,8.3-3.1c0-2.1-2.6-2.8-9.2-3.3c-9.6-0.8-18.3-2.9-18.3-10.1c0-6.9,7.5-10.7,17.7-10.7c6.9,0,13.3,1.7,17.7,4.8
					l-4.7,5.8c-3.6-2.5-7.9-3.5-12.9-3.6c-3.8,0-8.3,0.6-8.3,2.9c0,2.2,3.7,2.4,9.5,2.9C258.1,381.5,265.5,383.6,265.5,391z"/>
				<path class="st3" d="M319.6,368.9v32.2h-9.4v-12.5h-19.3v12.5h-9.4v-32.2h9.4v12h19.3v-12H319.6z"/>
				<path class="st3" d="M340.1,401.1v-32.2h9.4v32.2H340.1z"/>
			</g>
			<path class="st3" d="M213,368.9v17c0,9.8-6.7,16.2-18.7,16.2c-12,0-18.7-6.4-18.7-16.2v-17h9.4v16.3c0,5.6,3.1,9.3,9.3,9.3
				c6.2,0,9.3-3.6,9.3-9.3v-16.3H213z"/>
		</g>
	</g>
	<g>
		<g>
			<path class="st2" d="M865.8,292.2c2.8-1.3,11.2-10.8,11.2-12.5v-39.6c-6.4,7.4-11.2,17.7-11.2,19.1V292.2z"/>
			<path class="st2" d="M877,336.6v-46c-3.2,1.2-11.2,11.2-11.2,12.4v22.3h-44.3c-7.1,0-13.4,4.6-15.8,11.2H877z"/>
			<path class="st2" d="M655,134.8v121c8-6.5,11.5-15.3,11.2-24.4V125.9l52,0c13.1,0,41-11.2,41-11.2l-53.4,0
				C667.7,114.7,657.4,132.3,655,134.8z"/>
			<path class="st2" d="M797.1,336.6c1.3-3.9,5-7.6,6.7-11.2h-34c-1.3,0-8.9,8.1-9.5,11.2H797.1z"/>
			<path class="st2" d="M877,165.5v-39.4l0,0c0,0-11.2,5.4-11.2,11.9v67.2C871.4,190.6,877,182,877,165.5z"/>
			<path class="st2" d="M674.5,114.7H655v11C659.8,119,670.6,118.3,674.5,114.7z"/>
			<path class="st2" d="M655,280.6v56l0,0c2.1,0,11.1-5.6,11.1-19.6c0-0.4,0.2-63.9,0.2-63.9c-2.1,3.1-4.1,6.2-6.1,9.4
				C656.8,268,655,274.2,655,280.6z"/>
			<path class="st2" d="M865.8,246.8c2.8-0.8,11.2-18,11.2-19.6v-32.5c0-2-11.2,30.1-11.2,32V246.8z"/>
			<path class="st2" d="M851,125.9c21.4,0,26-11.2,26-11.2h-79.5c-35.5,0-53.6,11.1-53.6,11.1L851,125.9z"/>
			<path class="st2" d="M711.2,325.4H691c-13.1,0-21.4,5.4-25.4,11.2l0,0h28.7C700.8,336.6,707.4,329.2,711.2,325.4z"/>
			<path class="st2" d="M751.6,336.6c0.7-3.8,5.7-7.8,9.3-11.2l-40.9,0c-5.4,6.8-5.4,6.8-11.1,11.2H751.6z"/>
		</g>
		<rect x="812.7" y="294.5" class="st2" width="33.4" height="11.2"/>
		<g>
			<g>
				<g>
					<path class="st2" d="M694.3,307.8c9.6,0,16.8-6.7,16.8-15.7V145.5h-11.2v145.8c0,3.3-3,5.2-5.6,5.2c-2.6,0-5.6-1.9-5.6-5.2
						v-37.9h-11.2v38.7C677.4,301.1,684.7,307.8,694.3,307.8"/>
				</g>
			</g>
		</g>
		<g>
			<g>
				<polygon class="st2" points="779,233 790.2,233 790.2,305.7 801.4,305.7 801.4,145.5 790.2,145.5 790.2,221.8 779,221.8 
					779,145.5 767.8,145.5 767.8,305.7 779,305.7 				"/>
			</g>
		</g>
		<rect x="722.1" y="294.5" class="st2" width="34.5" height="11.2"/>
		<g>
			<g>
				<g>
					<path class="st2" d="M835,145.5V268c0,3.3-2.9,5.6-5.6,5.6c-2.7,0-5.6-2.3-5.6-5.6V145.5h-11.2v123.3c0,4.5,1.8,8.7,5.1,11.7
						c3.1,2.8,7.3,4.4,11.7,4.4c4.4,0,8.6-1.6,11.7-4.4c3.3-3,5.1-7.2,5.1-11.7V145.5H835z"/>
				</g>
			</g>
		</g>
		<g>
			<g>
				<path class="st2" d="M737.8,185.9l0.8-31.2l1.1,31.2l3.2,63.8h-7.5L737.8,185.9z M722.4,283.4h11.2l1.2-22.5h8.9l1.6,22.5h11.2
					l-9.9-137.9h-16.8L722.4,283.4z"/>
			</g>
		</g>
		<g>
			<g>
				<path class="st2" d="M690.1,391c0,6.6-6.1,11.1-17.8,11.1c-8.3,0-15.2-2.3-20.3-6.3l4.9-5.8c3.8,3.2,9.1,5,15.6,5
					c5.5,0,8.3-1,8.3-3.1c0-2.1-2.6-2.8-9.2-3.3c-9.6-0.8-18.3-2.9-18.3-10.1c0-6.9,7.5-10.7,17.7-10.7c6.9,0,13.3,1.7,17.7,4.8
					l-4.7,5.8c-3.6-2.5-7.9-3.5-12.9-3.6c-3.8,0-8.3,0.6-8.3,2.9c0,2.2,3.7,2.4,9.5,2.9C682.7,381.5,690.1,383.6,690.1,391z"/>
				<path class="st2" d="M793,391c0,6.6-6.1,11.1-17.8,11.1c-8.3,0-15.2-2.3-20.3-6.3l4.9-5.8c3.8,3.2,9.1,5,15.6,5
					c5.5,0,8.3-1,8.3-3.1c0-2.1-2.6-2.8-9.2-3.3c-9.6-0.8-18.3-2.9-18.3-10.1c0-6.9,7.5-10.7,17.7-10.7c6.9,0,13.3,1.7,17.7,4.8
					l-4.7,5.8c-3.6-2.5-7.9-3.5-12.9-3.6c-3.8,0-8.3,0.6-8.3,2.9c0,2.2,3.7,2.4,9.5,2.9C785.5,381.5,793,383.6,793,391z"/>
				<path class="st2" d="M847.1,368.9v32.2h-9.4v-12.5h-19.3v12.5h-9.4v-32.2h9.4v12h19.3v-12H847.1z"/>
				<path class="st2" d="M867.6,401.1v-32.2h9.4v32.2H867.6z"/>
			</g>
			<path class="st2" d="M740.5,368.9v17c0,9.8-6.7,16.2-18.7,16.2c-12,0-18.7-6.4-18.7-16.2v-17h9.4v16.3c0,5.6,3.1,9.3,9.3,9.3
				c6.2,0,9.3-3.6,9.3-9.3v-16.3H740.5z"/>
		</g>
	</g>
</g>
</svg>
