<?xml version="1.0" encoding="utf-8"?>
<!-- Generator: Adobe Illustrator 26.0.1, SVG Export Plug-In . SVG Version: 6.00 Build 0)  -->
<svg version="1.1" id="Layer_1" xmlns="http://www.w3.org/2000/svg" xmlns:xlink="http://www.w3.org/1999/xlink" x="0px" y="0px"
	 viewBox="0 0 83.6 139.2" style="enable-background:new 0 0 83.6 139.2;" xml:space="preserve">
<style type="text/css">
	.st0{fill:#EE7862;}
</style>
<g>
	<g>
		<path class="st0" d="M75.7,60.3c0.9-0.5,3.8-3.7,3.8-4.2V42.6c-2.2,2.5-3.8,6-3.8,6.5V60.3z"/>
		<path class="st0" d="M79.5,75.4V59.8c-1.1,0.4-3.8,3.8-3.8,4.2v7.6h-15c-2.4,0-4.5,1.5-5.4,3.8H79.5z"/>
		<path class="st0" d="M4.1,6.8v41.1c2.7-2.2,3.9-5.2,3.8-8.3V3.8h17.7C30,3.8,39.5,0,39.5,0H21.4C8.4,0,4.9,6,4.1,6.8z"/>
		<path class="st0" d="M52.4,75.4c0.4-1.3,1.7-2.6,2.3-3.8H43.1c-0.4,0-3,2.8-3.2,3.8H52.4z"/>
		<path class="st0" d="M79.5,17.3V3.9l0,0c0,0-3.8,1.8-3.8,4v22.8C77.6,25.8,79.5,22.9,79.5,17.3z"/>
		<path class="st0" d="M10.7,0H4.1v3.7C5.7,1.5,9.4,1.2,10.7,0z"/>
		<path class="st0" d="M4.1,56.4v19l0,0c0.7,0,3.8-1.9,3.8-6.7c-0.1-0.1,0-21.7,0-21.7c-0.7,1-1.4,2.1-2.1,3.2
			C4.7,52.1,4.1,54.2,4.1,56.4z"/>
		<path class="st0" d="M75.7,44.9c1-0.3,3.8-6.1,3.8-6.7v-11c0-0.7-3.8,10.2-3.8,10.9V44.9z"/>
		<path class="st0" d="M70.7,3.8C78,3.8,79.6,0,79.6,0h-27C40.4,0,34.3,3.8,34.3,3.8H70.7z"/>
		<path class="st0" d="M23.2,71.6h-6.9c-4.4,0-7.3,1.8-8.6,3.8l0,0h9.8C19.7,75.4,21.9,72.9,23.2,71.6z"/>
		<path class="st0" d="M36.9,75.4c0.2-1.3,1.9-2.6,3.1-3.8H26.1c-1.8,2.3-1.8,2.3-3.8,3.8H36.9z"/>
	</g>
	<rect x="57.7" y="61.1" class="st0" width="11.4" height="3.8"/>
	<g>
		<g>
			<g>
				<path class="st0" d="M17.4,65.6c3.3,0,5.7-2.3,5.7-5.3V10.5h-3.8V60c0,1.1-1,1.8-1.9,1.8s-1.9-0.7-1.9-1.8V47.1h-3.8v13.1
					C11.7,63.3,14.2,65.6,17.4,65.6"/>
			</g>
		</g>
	</g>
	<g>
		<g>
			<polygon class="st0" points="46.2,40.2 50,40.2 50,64.9 53.8,64.9 53.8,10.5 50,10.5 50,36.4 46.2,36.4 46.2,10.5 42.4,10.5 
				42.4,64.9 46.2,64.9 			"/>
		</g>
	</g>
	<rect x="26.9" y="61.1" class="st0" width="11.7" height="3.8"/>
	<g>
		<g>
			<g>
				<path class="st0" d="M65.2,10.5v41.6c0,1.1-1,1.9-1.9,1.9s-1.9-0.8-1.9-1.9V10.5h-3.8v41.9c0,1.5,0.6,3,1.7,4
					c1.1,1,2.5,1.5,4,1.5s2.9-0.5,4-1.5s1.7-2.4,1.7-4V10.5H65.2z"/>
			</g>
		</g>
	</g>
	<g>
		<g>
			<path class="st0" d="M32.2,24.2l0.3-10.6l0.4,10.6L34,45.9h-2.5L32.2,24.2z M27,57.3h3.8l0.4-7.6h3l0.5,7.6h3.8l-3.4-46.8h-5.7
				L27,57.3z"/>
		</g>
	</g>
	<g>
		<g>
			<path class="st0" d="M16,93.9c0,2.3-2.1,3.8-6.1,3.8c-2.8,0-5.2-0.8-6.9-2.1l1.7-2c1.3,1.1,3.1,1.7,5.3,1.7
				c1.9,0,2.8-0.3,2.8-1.1c0-0.7-0.9-0.9-3.1-1.1c-3.3-0.3-6.2-1-6.2-3.4c0-2.3,2.5-3.6,6-3.6c2.3,0,4.5,0.6,6,1.6l-1.6,2
				c-1.2-0.9-2.7-1.2-4.4-1.2c-1.3,0-2.8,0.2-2.8,1c0,0.7,1.3,0.8,3.2,1C13.5,90.7,16,91.4,16,93.9z"/>
			<path class="st0" d="M51,93.9c0,2.3-2.1,3.8-6.1,3.8c-2.8,0-5.2-0.8-6.9-2.1l1.7-2c1.3,1.1,3.1,1.7,5.3,1.7
				c1.9,0,2.8-0.3,2.8-1.1c0-0.7-0.9-0.9-3.1-1.1c-3.3-0.3-6.2-1-6.2-3.4c0-2.3,2.5-3.6,6-3.6c2.3,0,4.5,0.6,6,1.6l-1.6,2
				c-1.2-0.9-2.7-1.2-4.4-1.2c-1.3,0-2.8,0.2-2.8,1c0,0.7,1.3,0.8,3.2,1C48.4,90.7,51,91.4,51,93.9z"/>
			<path class="st0" d="M69.3,86.4v10.9h-3.2v-4.2h-6.6v4.2h-3.2V86.4h3.2v4.1h6.6v-4.1H69.3z"/>
			<path class="st0" d="M76.3,97.3V86.4h3.2v10.9H76.3z"/>
		</g>
		<path class="st0" d="M33.1,86.4v5.8c0,3.3-2.3,5.5-6.4,5.5s-6.4-2.2-6.4-5.5v-5.8h3.2v5.5c0,1.9,1.1,3.1,3.2,3.1s3.2-1.2,3.2-3.1
			v-5.5H33.1z"/>
	</g>
</g>
<rect x="4.1" y="119.3" class="st0" width="75.4" height="10.8"/>
</svg>
